<?xml version="1.0" encoding="UTF-8" standalone="no"?>
<!-- Generator: Adobe Illustrator 19.2.1, SVG Export Plug-In . SVG Version: 6.00 Build 0)  -->

<svg
   xmlns:dc="http://purl.org/dc/elements/1.1/"
   xmlns:cc="http://creativecommons.org/ns#"
   xmlns:rdf="http://www.w3.org/1999/02/22-rdf-syntax-ns#"
   xmlns:svg="http://www.w3.org/2000/svg"
   xmlns="http://www.w3.org/2000/svg"
   xmlns:sodipodi="http://sodipodi.sourceforge.net/DTD/sodipodi-0.dtd"
   xmlns:inkscape="http://www.inkscape.org/namespaces/inkscape"
   version="1.1"
   id="Layer_1"
   x="0px"
   y="0px"
   viewBox="0 0 90 66.8"
   style="enable-background:new 0 0 90 66.8;"
   xml:space="preserve"
   inkscape:version="0.91 r13725"
   sodipodi:docname="grass.svg"><metadata
     id="metadata9"><rdf:RDF><cc:Work
         rdf:about=""><dc:format>image/svg+xml</dc:format><dc:type
           rdf:resource="http://purl.org/dc/dcmitype/StillImage" /></cc:Work></rdf:RDF></metadata>
     
 <defs>
    <linearGradient id="grad1" x1="0%" y1="0%" x2="100%" y2="100%">
      <stop offset="0%" style="stop-color:#8bc34a;stop-opacity:1" />
      <stop offset="80%" style="stop-color:rgb(0,155,125);stop-opacity:1" />
    </linearGradient>

  </defs>

     
     <sodipodi:namedview
     pagecolor="#ffffff"
     bordercolor="#666666"
     borderopacity="1"
     objecttolerance="10"
     gridtolerance="10"
     guidetolerance="10"
     inkscape:pageopacity="0"
     inkscape:pageshadow="2"
     inkscape:window-width="1155"
     inkscape:window-height="679"
     id="namedview5"
     showgrid="false"
     inkscape:zoom="3.4444444"
     inkscape:cx="45"
     inkscape:cy="33.400002"
     inkscape:window-x="0"
     inkscape:window-y="23"
     inkscape:window-maximized="0"
     inkscape:current-layer="Layer_1" /><path
     d="M75.6,34.5c1.8-3,4-5.5,6.6-7.1c-2.8,1.3-5.2,2.9-7.3,4.7c-1.1-3.2-2.9-6.2-5.6-8.9c1.6-5.1,3.6-9.9,6.4-13.8  c-3.9,3-6.8,7-9,11.6c-0.8-0.6-1.6-1.1-2.5-1.7c0.8,0.7,1.5,1.5,2.2,2.3c-2.5,5.2-4,11-5,16.7c-0.2-5.2-0.9-10.5-2.3-15.3  c1.8-7.6,4.1-14.6,7.3-19.6c-3.8,3.6-6.8,8.7-9.1,14.5c-1.9-4.3-4.7-8.1-8.5-10.7c3.7,3.1,5.8,8.6,6.9,15.1c-2.4,7.3-4,15.4-5,22.6  c0.5-9.7,0.2-21.1-2.8-30.7c0.7-1.6,1.5-3.2,2.4-4.6c-1,1-1.9,2.1-2.8,3.2C45.9,7.8,43.6,3.4,40.4,0c2.4,4.3,3.9,9.9,4.8,15.9  c-1,1.7-2,3.4-2.8,5.2c-1.5-2.3-3.5-4.3-6-5.9c2.4,1.9,4.1,4.6,5.1,7.9c-1.7,4.1-3,8.5-3.9,12.8c-0.9-5.1-2.2-10.2-4.2-14.8  c0.6-3,1.4-5.8,2.5-8.2c-1.5,1.5-2.8,3.3-3.9,5.3c-1.7-3.2-3.8-6-6.3-8.2c2,3.6,3.5,7.6,4.7,11.9c-1.2,3.2-2,6.8-2.5,10.4  c-1-11.4-4.1-22.2-11.6-25.8c3.7,3.4,5.7,10.3,6.6,18.2c-2.9,2.2-5,4.7-6.5,7.3c-3.3-5.1-7.6-10-13.3-13.7  c4.8,4.7,8.5,11.4,11.4,18.4c-0.4,1.2-0.6,2.4-0.8,3.6c-3-2.5-7.4-4.3-13.7-4.6c21.5,7.9,11.8,31.2,11.8,31.2h67.8  c0,0-9.9-19.6,10.4-26.9c-6.4-0.2-10.7,1.5-13.5,4.2C76.6,40.9,76.4,37.6,75.6,34.5z M20.8,58.9c-0.3-1.1-0.7-2.2-1-3.4  c0-1.2-0.1-2.4-0.2-3.6c0.7,2.6,1.3,5,1.7,7H20.8z M23.6,48c-1.3-4.1-3-8.6-5.4-12.9c0.7-3.8,2.2-7.3,4.7-10.1  C23.9,32.4,23.9,40.7,23.6,48z M27.5,58.9c0.2-1.7,0.3-3.7,0.5-5.9c0.2,2.1,0.5,4.1,0.8,5.9H27.5z M33.7,58.9L33.7,58.9  c-1-7.1-1.9-17.8-1.4-27.9C33.9,41.5,33.9,52,33.7,58.9z M39.9,58.9h-0.1c0.3-7.1,1-17.9,3.2-28.4C43.7,40.1,41.6,51.5,39.9,58.9z   M44.3,24.4c0.4-1.6,0.9-3.2,1.4-4.7c0.4,3.6,0.6,7.3,0.6,10.9C45.9,28.5,45.2,26.4,44.3,24.4z M49.3,58.9L49.3,58.9  c0-0.1,0-0.1,0-0.2C49.3,58.8,49.3,58.8,49.3,58.9z M54.9,58.9h-0.5c0.3-5.8,1-14.1,2.3-22.8C56.6,44.6,55.7,53,54.9,58.9z   M68.2,58.9h-0.4c0.7-4.4,1.9-10,3.7-15.4C71,49.2,69.6,54.7,68.2,58.9z M65.2,46.6c0.5-6.7,1.5-14.3,3.4-21.4  c1.7,3.2,2.5,6.7,2.9,10.3C68.6,38.9,66.6,42.8,65.2,46.6z"
     id="path3"
     style="fill:#8bc34a" /></svg>
