<?xml version="1.0" encoding="iso-8859-1"?>
<!-- Generator: Adobe Illustrator 19.0.0, SVG Export Plug-In . SVG Version: 6.00 Build 0)  -->
<svg version="1.1" id="Capa_1" xmlns="http://www.w3.org/2000/svg" transform="rotate(20deg)" xmlns:xlink="http://www.w3.org/1999/xlink" x="0px" y="0px"
viewBox="-100 50 463 525" style="enable-background:new 0 0 463.006 463.006;" xml:space="preserve">
<g transform="rotate(20)">
<path  fill="#ff6e6e" d="M435.322,426.874L306.773,224.888c0.683-1.26,1.203-2.617,1.521-4.055c0.896-4.043,0.165-8.192-2.06-11.683l-8.597-13.496
c-3.139-4.925-8.616-7.474-14.07-7.132l-20.91-32.382c0.225-1.515,0.345-3.065,0.345-4.642c0-1.619-0.123-3.209-0.36-4.763
l37.86-58.287c10.635-16.692,15.322-36.724,13.205-56.329l-2.485-25.352c-0.313-3.188-2.613-5.824-5.729-6.565
c-3.108-0.735-6.356,0.578-8.07,3.284l-65.921,104.102L165.584,3.486c-1.714-2.706-4.959-4.02-8.071-3.284
c-3.116,0.741-5.417,3.378-5.729,6.565l-2.479,25.278c-2.123,19.678,2.563,39.709,13.234,56.459l37.824,58.23
c-0.237,1.554-0.36,3.145-0.36,4.764c0,1.577,0.12,3.126,0.345,4.642l-20.911,32.382c-5.453-0.342-10.93,2.207-14.069,7.132
l-8.597,13.494c-2.225,3.491-2.957,7.641-2.061,11.683c0.319,1.438,0.838,2.796,1.522,4.056L27.685,426.87
c-3.373,5.294-4.482,11.585-3.123,17.713c1.358,6.128,5.022,11.36,10.316,14.733c3.904,2.487,8.27,3.674,12.589,3.674
c7.77,0,15.384-3.843,19.859-10.87l128.542-201.976c0.31,0.019,0.62,0.033,0.932,0.033c1.125,0,2.259-0.123,3.385-0.373
c4.042-0.896,7.493-3.313,9.718-6.805l8.597-13.494c3.119-4.896,3.13-10.893,0.561-15.678l12.441-19.153l12.437,19.147
c-0.669,1.245-1.18,2.584-1.494,4.001c-0.896,4.042-0.164,8.191,2.061,11.683l8.597,13.494c2.951,4.634,7.972,7.168,13.097,7.168
c0.31,0,0.621-0.013,0.931-0.032l128.552,201.988c3.372,5.295,8.604,8.959,14.733,10.317c1.707,0.378,3.426,0.565,5.132,0.565
c4.422,0,8.762-1.256,12.58-3.689c5.295-3.372,8.959-8.604,10.317-14.733C439.802,438.455,438.693,432.164,435.322,426.874z
M298.423,29.943l0.363,3.712c1.76,16.306-2.123,32.902-10.899,46.678l-32.734,50.394c-3.847-4.375-8.882-7.677-14.6-9.396
L298.423,29.943z M175.154,80.389c-8.812-13.832-12.695-30.43-10.929-46.808l0.357-3.638l57.866,91.387
c-5.716,1.719-10.75,5.021-14.596,9.395L175.154,80.389z M54.674,444.064c-2.52,3.954-7.784,5.118-11.736,2.602
c-3.953-2.519-5.121-7.783-2.601-11.739l127.506-200.346l14.338,9.134L54.674,444.064z M205.85,221.446l-8.597,13.494
c-0.147,0.231-0.454,0.3-0.69,0.153c-0.001-0.001-0.002-0.002-0.004-0.003c-0.003-0.002-0.007-0.004-0.01-0.006l-26.976-17.186
c-0.043-0.027-0.174-0.111-0.219-0.313c-0.045-0.201,0.039-0.333,0.066-0.377l8.597-13.494c0.027-0.043,0.111-0.175,0.313-0.22
c0.206-0.043,0.333,0.039,0.377,0.066l26.988,17.193C205.929,220.903,205.999,221.213,205.85,221.446z M207.487,204.11
l-14.354-9.145l14.682-22.737c3.779,4.313,8.708,7.595,14.311,9.345L207.487,204.11z M215.003,151.499c0-9.098,7.402-16.5,16.5-16.5
s16.5,7.402,16.5,16.5s-7.402,16.5-16.5,16.5S215.003,160.596,215.003,151.499z M240.881,181.573
c5.602-1.751,10.531-5.032,14.31-9.345l14.683,22.738l-14.353,9.144L240.881,181.573z M266.455,235.085
c-0.003,0.002-0.007,0.004-0.01,0.006c-0.001,0.001-0.002,0.002-0.004,0.003c-0.234,0.147-0.54,0.078-0.689-0.153l-8.597-13.494
c-0.148-0.233-0.08-0.543,0.152-0.691l0.046-0.029c0.004-0.002,0.007-0.004,0.011-0.006c0.004-0.002,0.007-0.005,0.011-0.008
l26.921-17.15c0.084-0.053,0.177-0.078,0.269-0.078c0.166,0,0.327,0.082,0.423,0.23l8.597,13.496
c0.027,0.043,0.111,0.174,0.066,0.375c-0.045,0.203-0.177,0.286-0.22,0.314L266.455,235.085z M423.799,441.337
c-0.491,2.216-1.816,4.108-3.732,5.329c-1.914,1.219-4.19,1.62-6.406,1.13c-2.216-0.491-4.108-1.816-5.327-3.729L280.824,243.715
l14.338-9.134L422.67,434.93C423.889,436.844,424.291,439.12,423.799,441.337z"/>
</g>
</svg>
