<svg xmlns="http://www.w3.org/2000/svg" xmlns:xlink="http://www.w3.org/1999/xlink" version="1.1" x="0px" y="0px" viewBox="0 0 100 125" enable-background="new 0 0 100 100" xml:space="preserve"><path fill="#000000" d="M87.559,60.832c0.004,0.007,0.015,0.005,0.02,0.011c0.036,0.052,0.087,0.09,0.154,0.09  c0.033,0,0.068-0.009,0.1-0.026l0.977-0.562c0.01-0.005,0.01-0.016,0.018-0.021c0.008-0.007,0.02-0.008,0.027-0.016  c0-0.001,0.002-0.001,0.004-0.002c0.011-0.013,0.008-0.03,0.016-0.044c0.012-0.022,0.022-0.04,0.025-0.065  c0.002-0.01,0.012-0.016,0.012-0.025v-3.061c0-0.019-0.016-0.03-0.021-0.048c-0.004-0.017,0.003-0.034-0.006-0.051  c-0.005-0.009-0.017-0.01-0.022-0.017c-0.016-0.022-0.035-0.033-0.06-0.047c-0.022-0.013-0.04-0.023-0.065-0.027  c-0.01-0.001-0.017-0.011-0.027-0.011c-0.019,0-0.031,0.016-0.049,0.021c-0.017,0.004-0.033-0.003-0.049,0.006l-0.702,0.396  c-0.001,0.001-0.001,0.002-0.002,0.002c-0.001,0.001-0.003,0-0.003,0.001l-0.276,0.168c-0.008,0.005-0.008,0.015-0.015,0.02  c-0.021,0.017-0.031,0.037-0.044,0.061s-0.024,0.042-0.028,0.067c-0.001,0.009-0.01,0.015-0.01,0.023v2.016v1.043  c0,0.02,0.016,0.031,0.021,0.049C87.557,60.797,87.549,60.816,87.559,60.832z M87.932,59.804l0.05-0.029l0.392,0.357l-0.441,0.253  V59.804z M88.51,59.716l-0.302-0.275v-1.819l0.302-0.17V59.716z"/><path fill="#000000" d="M69.262,67.839c0,0.012,0.011,0.02,0.013,0.03c0.004,0.026,0.015,0.046,0.028,0.068s0.026,0.04,0.049,0.056  c0.009,0.007,0.011,0.02,0.021,0.024l0.145,0.072c0.012,0.006,0.024,0.006,0.037,0.009c0.005,0.002,0.008,0.008,0.013,0.009  c0.013,0.003,0.026,0.004,0.039,0.004c0.001,0,0.003-0.001,0.004-0.001v1.924v1.045c0,0.02,0.015,0.031,0.021,0.049  c0.004,0.017-0.003,0.035,0.006,0.051c0.005,0.007,0.015,0.005,0.02,0.011c0.036,0.052,0.087,0.09,0.154,0.09  c0.034,0,0.068-0.009,0.1-0.026l0.978-0.562c0.009-0.005,0.009-0.016,0.017-0.021c0.009-0.007,0.02-0.007,0.026-0.015  c0.001-0.001,0.003,0,0.003-0.001c0.013-0.013,0.01-0.031,0.018-0.046c0.013-0.022,0.023-0.04,0.026-0.065  c0.001-0.01,0.011-0.016,0.011-0.025v-3.068c0-0.02-0.016-0.031-0.021-0.049c-0.003-0.014,0.001-0.027-0.005-0.04l0.277-0.16  c0.005-0.003,0.005-0.009,0.01-0.012c0.028-0.02,0.046-0.048,0.062-0.08c0.007-0.014,0.019-0.021,0.021-0.035  c0.001-0.003,0.003-0.004,0.004-0.007l0.004-0.019c0.007,0.003,0.016,0.004,0.023,0.006c0.007,0.003,0.009,0.011,0.017,0.012  c0.014,0.003,0.026,0.004,0.039,0.004c0.002,0,0.005-0.002,0.008-0.002v1.915v1.053c0,0.019,0.015,0.031,0.02,0.049  c0.004,0.017-0.002,0.035,0.007,0.051c0.004,0.007,0.015,0.005,0.019,0.011c0.037,0.052,0.088,0.09,0.154,0.09  c0.035,0,0.068-0.009,0.101-0.027l0.978-0.564c0.008-0.005,0.009-0.016,0.016-0.021c0.009-0.007,0.02-0.007,0.027-0.014  c0.001-0.001,0.002-0.001,0.004-0.002c0.012-0.013,0.009-0.031,0.017-0.047c0.013-0.021,0.022-0.04,0.026-0.064  c0.001-0.01,0.01-0.016,0.01-0.025v-3.068c0-0.02-0.015-0.031-0.02-0.049c-0.004-0.014,0.001-0.027-0.006-0.04l0.274-0.158  c0.005-0.003,0.005-0.009,0.009-0.011c0.029-0.021,0.048-0.05,0.063-0.083c0.006-0.013,0.017-0.021,0.021-0.033  c0-0.003,0.002-0.004,0.003-0.006l0.005-0.026c0.01,0.004,0.02,0.004,0.028,0.007c0.007,0.002,0.009,0.009,0.015,0.01  c0.014,0.003,0.027,0.004,0.039,0.004c0.003,0,0.006-0.002,0.008-0.002v1.923v1.045c0,0.019,0.016,0.031,0.021,0.049  c0.005,0.017-0.003,0.035,0.007,0.051c0.004,0.007,0.015,0.005,0.02,0.011c0.036,0.052,0.087,0.09,0.154,0.09  c0.033,0,0.068-0.009,0.1-0.027l0.978-0.564c0.009-0.005,0.009-0.016,0.017-0.021c0.008-0.007,0.02-0.008,0.026-0.016  c0.001,0,0.003,0,0.003-0.001c0.012-0.013,0.01-0.03,0.018-0.045c0.012-0.022,0.023-0.04,0.026-0.065  c0.001-0.01,0.011-0.016,0.011-0.025v-3.062c0-0.02-0.016-0.031-0.021-0.049c-0.004-0.016,0.002-0.031-0.006-0.045l0.274-0.159  c0.004-0.003,0.004-0.009,0.009-0.011c0.029-0.021,0.047-0.049,0.062-0.082c0.007-0.013,0.018-0.021,0.021-0.034  c0.001-0.003,0.004-0.004,0.004-0.006l0.004-0.021c0.009,0.004,0.018,0.005,0.025,0.007c0.008,0.003,0.011,0.011,0.019,0.013  c0.013,0.003,0.026,0.004,0.039,0.004c0.003,0,0.005-0.002,0.007-0.002v1.915v1.053c0,0.02,0.016,0.031,0.021,0.049  c0.004,0.018-0.003,0.035,0.006,0.052c0.005,0.007,0.015,0.005,0.02,0.011c0.036,0.051,0.087,0.089,0.154,0.089  c0.033,0,0.068-0.009,0.1-0.027l0.978-0.566c0.009-0.005,0.009-0.015,0.016-0.021c0.009-0.007,0.021-0.007,0.027-0.015  c0.001-0.001,0.003-0.001,0.004-0.002c0.013-0.013,0.009-0.031,0.017-0.047c0.013-0.021,0.023-0.039,0.026-0.063  c0.001-0.01,0.011-0.016,0.011-0.025v-3.068c0-0.02-0.016-0.031-0.021-0.049c-0.004-0.014,0.001-0.026-0.006-0.039l0.274-0.159  c0.005-0.003,0.005-0.009,0.01-0.012c0.018-0.012,0.027-0.029,0.041-0.047v1.917v1.053c0,0.019,0.016,0.031,0.021,0.049  c0.005,0.017-0.003,0.035,0.007,0.051c0.004,0.007,0.015,0.005,0.02,0.011c0.036,0.052,0.087,0.09,0.154,0.09  c0.033,0,0.068-0.009,0.1-0.027l0.978-0.564c0.009-0.005,0.009-0.016,0.017-0.021c0.008-0.007,0.02-0.008,0.026-0.016  c0.001,0,0.003,0,0.003-0.001c0.012-0.013,0.01-0.03,0.018-0.044c0.012-0.023,0.023-0.041,0.026-0.066  c0.001-0.01,0.011-0.016,0.011-0.025v-3.068c0-0.02-0.016-0.031-0.021-0.049c-0.003-0.013,0.001-0.024-0.005-0.037l0.412-0.236  c0.005-0.003,0.005-0.009,0.01-0.013c0.019-0.012,0.029-0.03,0.043-0.049v1.919v1.045c0,0.019,0.015,0.031,0.02,0.049  c0.004,0.017-0.002,0.035,0.007,0.051c0.004,0.007,0.015,0.005,0.019,0.011c0.037,0.052,0.088,0.09,0.154,0.09  c0.035,0,0.068-0.009,0.101-0.027l0.978-0.564c0.008-0.005,0.009-0.016,0.016-0.021c0.01-0.007,0.021-0.008,0.027-0.016  c0.002-0.001,0.004-0.001,0.004-0.002c0.012-0.013,0.009-0.03,0.017-0.044c0.013-0.022,0.022-0.04,0.026-0.065  c0.001-0.01,0.01-0.016,0.01-0.025v-3.061c0-0.019-0.015-0.03-0.02-0.048c-0.004-0.016,0.002-0.031-0.006-0.046l0.41-0.237  c0.004-0.003,0.004-0.009,0.008-0.012c0.029-0.02,0.048-0.049,0.063-0.082c0.003-0.007,0.011-0.01,0.013-0.017V63.8v1.053  c0,0.02,0.016,0.031,0.021,0.049c0.005,0.017-0.003,0.035,0.007,0.051c0.004,0.007,0.015,0.005,0.02,0.011  c0.036,0.052,0.087,0.09,0.154,0.09c0.033,0,0.068-0.009,0.1-0.026l0.977-0.562c0.01-0.005,0.01-0.016,0.018-0.021  c0.008-0.007,0.02-0.008,0.026-0.015c0.001-0.001,0.003-0.001,0.004-0.002c0.012-0.013,0.009-0.03,0.017-0.045  c0.012-0.022,0.022-0.04,0.025-0.065c0.002-0.01,0.012-0.016,0.012-0.025v-3.068c0-0.019-0.016-0.031-0.021-0.049  c-0.005-0.017,0.003-0.035-0.007-0.051c-0.005-0.009-0.016-0.009-0.021-0.017c-0.016-0.021-0.035-0.032-0.059-0.046  c-0.023-0.013-0.042-0.024-0.068-0.027c-0.01-0.002-0.016-0.011-0.025-0.011c-0.019,0-0.031,0.016-0.049,0.021  s-0.035-0.002-0.051,0.007l-0.699,0.403h-0.001l-0.276,0.158c-0.009,0.005-0.01,0.016-0.017,0.021  c-0.021,0.017-0.032,0.036-0.046,0.06l-0.001,0.001l0.273-1.357l0.967-0.558c0.009-0.005,0.009-0.016,0.017-0.021  c0.008-0.007,0.02-0.008,0.027-0.016c0-0.001,0.003-0.001,0.004-0.002c0.012-0.013,0.009-0.03,0.016-0.045  c0.013-0.022,0.023-0.04,0.026-0.064c0.001-0.01,0.011-0.016,0.011-0.025v-3.062c0-0.019-0.016-0.03-0.021-0.048  c-0.004-0.018,0.003-0.035-0.007-0.052c-0.004-0.009-0.016-0.01-0.021-0.017c-0.016-0.021-0.035-0.032-0.059-0.045  c-0.023-0.014-0.041-0.025-0.067-0.028c-0.01-0.002-0.016-0.011-0.026-0.011c-0.019,0-0.03,0.015-0.048,0.021  c-0.017,0.004-0.034-0.003-0.051,0.006l-0.701,0.4c-0.001,0-0.001,0.001-0.001,0.002c-0.001,0-0.002,0-0.003,0L80.5,56.937  c-0.008,0.005-0.008,0.015-0.016,0.021c-0.018,0.014-0.026,0.028-0.038,0.047l-0.267-0.153c-0.009-0.005-0.019,0-0.027-0.003  c-0.023-0.011-0.046-0.01-0.072-0.01s-0.048-0.001-0.072,0.009c-0.009,0.004-0.02-0.001-0.027,0.004l-0.209,0.119  c-0.002,0.001-0.002,0.004-0.003,0.005c-0.002,0.001-0.004,0-0.006,0.001c-0.004,0.003-0.004,0.008-0.007,0.011  c-0.011,0.007-0.021,0.004-0.031,0.013c-0.012,0.016-0.012,0.039-0.02,0.058c-0.008,0.015-0.021,0.024-0.025,0.041  c-0.003,0.011,0.002,0.021,0.002,0.032c-0.001,0.007-0.008,0.012-0.008,0.02c0,0.012,0.014,0.026,0.018,0.039  c0.004,0.019-0.003,0.037,0.007,0.055c0.001,0.002,0.003,0.001,0.005,0.003c0.001,0.002,0,0.005,0.001,0.007l0.007,0.01  c0.004,0.006,0.012,0.004,0.016,0.009c0.005,0.006,0.003,0.012,0.008,0.018c0.017,0.017,0.05,0.019,0.076,0.027  c0.021,0.009,0.037,0.033,0.061,0.033c0.039,0,0.078-0.011,0.113-0.033c0.003-0.002,0.003-0.008,0.006-0.01l0.089-0.052l0.421,0.242  l0,0l0.155,0.094l-1.132,0.654l-0.611-0.353c0.006-0.009,0.012-0.016,0.016-0.024c0.005-0.012,0.016-0.018,0.019-0.029  c0.007-0.029-0.005-0.057-0.012-0.086c-0.004-0.021,0.003-0.042-0.009-0.062c-0.001-0.002-0.004-0.002-0.006-0.005  c-0.001-0.002,0-0.006-0.002-0.008c-0.015-0.021-0.04-0.026-0.061-0.04s-0.036-0.033-0.061-0.039  c-0.027-0.006-0.053,0.006-0.081,0.011c-0.021,0.005-0.043-0.003-0.063,0.009l-0.207,0.121c-0.009,0.005-0.01,0.016-0.017,0.021  c-0.015,0.011-0.024,0.021-0.035,0.035c-0.006,0.008-0.017,0.008-0.021,0.017s0,0.018-0.003,0.026  c-0.008,0.017-0.012,0.03-0.014,0.049c0,0.005-0.005,0.008-0.006,0.013c-0.005-0.003-0.011,0-0.016-0.002  c-0.025-0.011-0.048-0.009-0.074-0.009c-0.026,0.001-0.048,0-0.071,0.01c-0.009,0.004-0.019-0.001-0.026,0.004l-0.204,0.119  c-0.007,0.004-0.007,0.013-0.013,0.017c-0.031,0.021-0.049,0.049-0.063,0.084c-0.005,0.013-0.013,0.021-0.015,0.035  c-0.003,0.014-0.016,0.022-0.016,0.037c0,0.028,0.02,0.049,0.03,0.073c0.004,0.009-0.001,0.019,0.004,0.027  c0.002,0.004,0.008,0.002,0.01,0.006c0.036,0.053,0.087,0.094,0.156,0.094h0.007h0.003c0.002,0,0.003-0.002,0.005-0.002  c0.032-0.002,0.064-0.009,0.093-0.025l0.105-0.062l0.181,0.102l0.396,0.231l-1.135,0.657l-0.608-0.35  c0.004-0.007,0.003-0.014,0.007-0.02c0.011-0.021,0.018-0.039,0.021-0.063c0.004-0.031-0.001-0.057-0.012-0.087  c-0.005-0.012,0.001-0.023-0.005-0.034c-0.004-0.008-0.014-0.008-0.02-0.015c-0.009-0.014-0.008-0.031-0.021-0.042  c-0.019-0.016-0.042-0.014-0.063-0.022c-0.012-0.004-0.021-0.009-0.033-0.012c-0.041-0.008-0.075-0.002-0.112,0.016  c-0.009,0.003-0.017-0.002-0.024,0.003l-0.208,0.121c-0.009,0.005-0.009,0.016-0.017,0.021c-0.014,0.011-0.023,0.021-0.035,0.035  c-0.006,0.008-0.016,0.008-0.021,0.017c-0.004,0.009,0,0.018-0.003,0.026c-0.007,0.017-0.011,0.03-0.013,0.049  c-0.001,0.002-0.003,0.004-0.004,0.007c-0.004-0.002-0.009-0.001-0.013-0.002c-0.024-0.011-0.046-0.011-0.071-0.011  c-0.027,0-0.049,0-0.074,0.01c-0.009,0.004-0.02-0.001-0.028,0.004l-0.208,0.121c-0.007,0.005-0.008,0.014-0.014,0.02  c-0.023,0.017-0.036,0.036-0.051,0.062c-0.007,0.013-0.02,0.021-0.023,0.035c-0.003,0.01,0,0.018-0.002,0.026  c-0.002,0.012-0.012,0.019-0.012,0.03c0,0.021,0.016,0.033,0.021,0.053c0.003,0.012-0.004,0.025,0.002,0.037l0.004,0.006  c0,0.001,0.002,0.002,0.002,0.003s0,0.001,0,0.002c0.001,0.001,0.003,0.001,0.004,0.002c0.004,0.007,0.012,0.011,0.016,0.018  c0.01,0.011,0.016,0.02,0.027,0.028c0.035,0.032,0.078,0.055,0.126,0.055c0.03,0,0.062-0.007,0.091-0.021  c0.004-0.002,0.004-0.006,0.008-0.008c0-0.001,0.002,0,0.002-0.001l0.106-0.062l0.179,0.105c0,0,0,0,0.001,0  c0.001,0.001,0.001,0.002,0.001,0.002l0.396,0.228l-1.133,0.653l-0.609-0.352c0.006-0.008,0.008-0.019,0.012-0.028  c0.006-0.014,0.014-0.024,0.016-0.039c0.002-0.013,0.014-0.021,0.014-0.034c0-0.025-0.019-0.042-0.027-0.063  c-0.005-0.013,0.002-0.026-0.006-0.039c-0.004-0.006-0.012-0.007-0.017-0.013c-0.018-0.022-0.038-0.034-0.064-0.048  c-0.022-0.013-0.041-0.024-0.066-0.027c-0.009-0.001-0.015-0.01-0.024-0.01c-0.02,0-0.032,0.016-0.05,0.021  s-0.036-0.002-0.052,0.008l-0.205,0.121c-0.008,0.005-0.008,0.015-0.015,0.021c-0.015,0.011-0.024,0.021-0.035,0.035  c-0.006,0.008-0.017,0.008-0.021,0.017c-0.006,0.009,0,0.019-0.004,0.027c-0.007,0.017-0.012,0.03-0.014,0.048  c0,0.005-0.004,0.008-0.005,0.013c-0.005-0.003-0.011,0-0.016-0.002c-0.024-0.01-0.046-0.009-0.072-0.009  c-0.026,0.001-0.049,0-0.073,0.01c-0.009,0.004-0.018-0.001-0.026,0.004l-0.178,0.104c-0.003,0.001-0.006-0.001-0.009,0  c-0.006,0.003-0.008,0.01-0.014,0.013l-0.008,0.005c-0.006,0.003-0.006,0.011-0.012,0.015c-0.002,0.002-0.004,0.005-0.007,0.008  c-0.013,0.01-0.021,0.019-0.032,0.031c-0.015,0.021-0.029,0.036-0.036,0.06c-0.003,0.012-0.001,0.022-0.003,0.035  c-0.001,0.009-0.01,0.015-0.01,0.024c0,0.013,0.011,0.02,0.014,0.031c0.002,0.014-0.006,0.026,0,0.04l0.002,0.006  c0.002,0.005,0.008,0.007,0.01,0.013c0.002,0.003,0,0.007,0.002,0.011c0.003,0.006,0.012,0.004,0.016,0.009  c0.001,0.003,0.004,0.005,0.006,0.007c0.009,0.012,0.015,0.022,0.025,0.032c0.032,0.025,0.068,0.042,0.109,0.045  c0.006,0,0.01,0.007,0.017,0.007h0.003c0.002,0,0.004-0.002,0.006-0.002c0.014-0.001,0.025-0.008,0.039-0.011  c0.01-0.003,0.019-0.002,0.027-0.006c0.002-0.001,0.002-0.002,0.003-0.003c0.008-0.003,0.016-0.002,0.022-0.006l0.109-0.063  l0.181,0.102l0.397,0.233l-1.137,0.655l-0.615-0.354c0.008-0.011,0.015-0.021,0.02-0.032c0.005-0.013,0.017-0.021,0.02-0.034  c0.005-0.029-0.007-0.056-0.014-0.085c-0.005-0.021,0.002-0.042-0.01-0.061c-0.002-0.003-0.006-0.003-0.008-0.006  s0-0.007-0.002-0.01c-0.016-0.02-0.04-0.022-0.06-0.034c-0.022-0.015-0.039-0.033-0.065-0.038c-0.024-0.005-0.047,0.006-0.072,0.011  c-0.023,0.005-0.047-0.002-0.068,0.011l-0.21,0.129c-0.008,0.005-0.008,0.015-0.015,0.021c-0.014,0.011-0.022,0.021-0.033,0.034  c-0.006,0.008-0.016,0.008-0.021,0.017c-0.005,0.009,0,0.02-0.004,0.029c-0.006,0.017-0.011,0.029-0.013,0.047  c-0.001,0.002-0.002,0.004-0.003,0.006c-0.005-0.003-0.01,0-0.016-0.002c-0.023-0.01-0.046-0.009-0.072-0.009  c-0.027,0.001-0.049,0-0.074,0.011c-0.008,0.003-0.018-0.002-0.025,0.003l-0.207,0.121c-0.008,0.005-0.008,0.014-0.016,0.02  c-0.01,0.007-0.022,0.009-0.031,0.018l0,0c-0.001,0.001,0,0.003-0.002,0.004c-0.011,0.013-0.012,0.032-0.02,0.048  c-0.01,0.019-0.02,0.033-0.022,0.054c-0.002,0.012-0.013,0.019-0.013,0.03c0,0.023,0.018,0.039,0.025,0.06  c0.004,0.014-0.002,0.028,0.006,0.041c0.003,0.006,0.011,0.004,0.015,0.009c0.009,0.012,0.011,0.025,0.021,0.035  c0,0.001,0,0.002,0.001,0.002l0.006,0.006c0.037,0.035,0.084,0.052,0.131,0.052c0.01,0,0.018-0.01,0.026-0.012  c0.024-0.003,0.05-0.006,0.073-0.02l0.109-0.063l0.18,0.101c0,0,0,0,0.001,0l0.396,0.231l-1.136,0.658l-0.609-0.352  c0.004-0.006,0.005-0.013,0.008-0.02c0.01-0.018,0.018-0.032,0.021-0.053c0.002-0.012,0.013-0.02,0.013-0.031  c0-0.021-0.017-0.035-0.022-0.055c-0.005-0.015,0.002-0.03-0.006-0.044c-0.005-0.008-0.015-0.009-0.02-0.016  c-0.018-0.022-0.038-0.034-0.062-0.048c-0.022-0.013-0.041-0.023-0.066-0.027c-0.01-0.001-0.016-0.011-0.025-0.011  c-0.02,0-0.031,0.016-0.049,0.021c-0.018,0.004-0.034-0.003-0.05,0.006l-0.211,0.119c-0.009,0.005-0.009,0.016-0.017,0.021  c-0.016,0.011-0.025,0.021-0.037,0.036c-0.006,0.008-0.017,0.008-0.021,0.017c-0.005,0.008,0,0.018-0.004,0.025  c-0.007,0.017-0.01,0.03-0.012,0.048c-0.001,0.005-0.005,0.007-0.005,0.012c-0.005-0.002-0.01,0-0.014-0.002  c-0.024-0.011-0.046-0.01-0.073-0.01c-0.025,0-0.048,0-0.072,0.01c-0.009,0.004-0.02-0.001-0.027,0.004l-0.205,0.119  c-0.006,0.004-0.006,0.013-0.013,0.018c-0.022,0.015-0.036,0.032-0.052,0.055c-0.006,0.012-0.012,0.021-0.016,0.034  c-0.004,0.011-0.008,0.019-0.01,0.03c-0.004,0.013-0.016,0.022-0.016,0.036c0,0.018,0.015,0.029,0.019,0.045  c0.002,0.008-0.003,0.015-0.001,0.021l0.004,0.01c0.002,0.006,0.008,0.009,0.011,0.015c0.002,0.003,0,0.007,0.001,0.01  c0.003,0.004,0.009,0.003,0.011,0.006c0.011,0.017,0.019,0.03,0.032,0.043c0.036,0.032,0.079,0.056,0.129,0.056  c0.023,0,0.047-0.003,0.069-0.012c0.009-0.003,0.011-0.013,0.018-0.017c0.005-0.002,0.011-0.001,0.015-0.004l0.104-0.061l0.18,0.105  c0,0,0,0,0.001,0l0.397,0.231l-1.135,0.652l-0.604-0.348c0.006-0.01,0.005-0.021,0.009-0.031c0.008-0.018,0.013-0.031,0.015-0.051  c0.004-0.031,0-0.055-0.01-0.085c-0.005-0.013,0.002-0.027-0.006-0.04c-0.006-0.011-0.02-0.012-0.027-0.021  c-0.008-0.01-0.007-0.024-0.018-0.033c-0.012-0.011-0.029-0.007-0.043-0.014c-0.023-0.012-0.043-0.02-0.07-0.021  c-0.024-0.002-0.044,0.002-0.068,0.009c-0.016,0.004-0.032-0.002-0.047,0.006l-0.21,0.121c-0.009,0.005-0.009,0.016-0.017,0.021  c-0.015,0.012-0.025,0.021-0.036,0.036c-0.006,0.008-0.017,0.008-0.021,0.017c-0.006,0.008,0,0.018-0.004,0.026  c-0.007,0.017-0.011,0.03-0.013,0.048c-0.001,0.01-0.011,0.016-0.011,0.025V67.839z M80.803,63.917l0.049-0.028l0.394,0.364  l-0.442,0.254V63.917z M81.381,63.833l-0.301-0.278v-1.813l0.301-0.174V63.833z M71.448,63.548l-0.555,2.784l-0.501-0.406  l0.401-1.999L71.448,63.548z M73.264,62.501l-0.555,2.783l-0.5-0.41l0.396-1.992L73.264,62.501z M75.078,61.45l-0.556,2.782  l-0.496-0.405l0.398-1.997L75.078,61.45z M76.895,60.406l-0.555,2.778l-0.498-0.409l0.398-1.99L76.895,60.406z M78.711,59.353  l-0.555,2.78l-0.501-0.406l0.401-1.995L78.711,59.353z M80.529,58.306l-0.556,2.784l-0.5-0.406l0.397-1.999L80.529,58.306z   M70.671,66.668l-0.486,0.279l0.117-0.579L70.671,66.668z M72.12,65.318l0.369,0.302l-0.487,0.277L72.12,65.318z M73.936,64.27  l0.367,0.3l-0.484,0.279L73.936,64.27z M75.753,63.219l0.368,0.303l-0.486,0.282L75.753,63.219z M77.567,62.169l0.369,0.301  l-0.487,0.282L77.567,62.169z M79.384,61.127l0.368,0.3l-0.484,0.279L79.384,61.127z M70.294,67.968l0.294-0.172v2.26l-0.294-0.275  V67.968z M72.112,66.923l0.293-0.172v2.259l-0.293-0.273V66.923z M73.928,65.871l0.295-0.17v2.258l-0.295-0.274V65.871z   M75.741,64.826l0.299-0.175v2.263l-0.299-0.274V64.826z M77.42,63.855l0.297-0.174v2.263l-0.297-0.275V63.855z M79.237,62.803  l0.297-0.17v2.262l-0.297-0.272V62.803z M70.011,70.148l0.056-0.033l0.388,0.363l-0.443,0.255V70.148z M71.829,69.099l0.053-0.029  l0.391,0.362l-0.443,0.256V69.099z M73.645,68.052l0.056-0.033l0.388,0.36l-0.443,0.256V68.052z M75.461,67l0.051-0.028l0.393,0.361  l-0.443,0.257V67z M77.139,66.03L77.191,66l0.392,0.364l-0.443,0.255V66.03z M78.958,64.985l0.051-0.029l0.39,0.357l-0.44,0.254  V64.985z M80.926,59.279l0.318,0.29l-0.425,0.245L80.926,59.279z M81.381,59.153l-0.301-0.274v-0.383l0.174-0.867  c0.003-0.018-0.009-0.031-0.01-0.048c-0.002-0.024-0.001-0.044-0.011-0.066c-0.003-0.008,0.001-0.017-0.003-0.024  c-0.001-0.002-0.004-0.002-0.006-0.004c-0.01-0.017-0.027-0.022-0.042-0.035c-0.012-0.011-0.015-0.028-0.029-0.036l-0.073-0.04  v-0.315l0.301-0.172V59.153z M69.663,66.609V63.5l0.557,0.32L69.663,66.609z"/><path fill="#000000" d="M85.877,57.125c0.004,0.007,0.015,0.005,0.02,0.011c0.036,0.052,0.087,0.09,0.154,0.09  c0.033,0,0.068-0.009,0.1-0.027l0.978-0.564c0.009-0.005,0.009-0.016,0.017-0.021c0.008-0.007,0.02-0.007,0.026-0.014  c0.001-0.001,0.003-0.001,0.003-0.002c0.013-0.013,0.01-0.031,0.018-0.047c0.013-0.021,0.023-0.04,0.026-0.064  c0.001-0.01,0.011-0.016,0.011-0.025v-3.066c0-0.02-0.016-0.031-0.021-0.049s0.002-0.035-0.007-0.052  c-0.006-0.009-0.016-0.009-0.021-0.016c-0.017-0.021-0.036-0.032-0.061-0.046c-0.022-0.013-0.041-0.025-0.067-0.028  c-0.009-0.001-0.015-0.01-0.024-0.01c-0.019,0-0.03,0.015-0.048,0.021c-0.018,0.004-0.036-0.003-0.053,0.007l-0.694,0.406  c-0.001,0-0.001,0-0.001,0.001l-0.282,0.163c-0.008,0.005-0.008,0.016-0.016,0.021c-0.021,0.016-0.031,0.035-0.045,0.059  s-0.025,0.042-0.028,0.067c-0.001,0.01-0.011,0.016-0.011,0.025v2.016v1.045c0,0.019,0.016,0.031,0.021,0.049  C85.875,57.09,85.868,57.109,85.877,57.125z M86.25,56.094l0.056-0.032l0.388,0.36l-0.443,0.256V56.094z M86.829,56l-0.295-0.273  v-1.812l0.295-0.173V56z"/><path fill="#000000" d="M97.583,57.118c-0.004-0.009,0.001-0.018-0.004-0.026s-0.016-0.009-0.021-0.017  c-0.011-0.015-0.021-0.024-0.035-0.035c-0.007-0.006-0.008-0.017-0.016-0.021l-0.599-0.351V45.009c0-0.01-0.009-0.016-0.011-0.025  c-0.002-0.018-0.006-0.031-0.013-0.048c-0.003-0.009,0.001-0.019-0.003-0.026c-0.006-0.009-0.016-0.009-0.021-0.017  c-0.012-0.015-0.021-0.024-0.036-0.036c-0.007-0.005-0.008-0.016-0.017-0.021L60.481,23.864c-0.008-0.005-0.018,0-0.025-0.004  c-0.025-0.01-0.047-0.01-0.074-0.01s-0.049,0-0.073,0.01c-0.009,0.004-0.019-0.001-0.026,0.004l-10.307,5.95l-0.315-0.183  c-0.008-0.005-0.018,0-0.027-0.004c-0.024-0.01-0.047-0.01-0.073-0.01s-0.048,0-0.073,0.01c-0.009,0.004-0.019-0.001-0.027,0.004  l-3.464,2.005L25.558,19.834c-0.008-0.005-0.018,0-0.026-0.004c-0.025-0.011-0.047-0.01-0.074-0.01s-0.049-0.001-0.074,0.01  c-0.009,0.004-0.018-0.001-0.026,0.004L4.125,32.09c-0.008,0.005-0.009,0.016-0.016,0.021c-0.014,0.012-0.024,0.021-0.036,0.035  c-0.006,0.008-0.016,0.008-0.021,0.017s0,0.018-0.003,0.026c-0.007,0.018-0.011,0.031-0.014,0.049  c-0.001,0.01-0.01,0.016-0.01,0.025V46.22c0,0.01,0.009,0.016,0.01,0.024c0.003,0.026,0.015,0.046,0.028,0.068  c0.013,0.023,0.023,0.043,0.045,0.059c0.007,0.006,0.008,0.017,0.016,0.021l0.457,0.267v0.041v3.678l-0.178,0.105  c-0.008,0.005-0.008,0.015-0.015,0.021c-0.014,0.011-0.024,0.021-0.035,0.035c-0.006,0.008-0.017,0.008-0.021,0.017  s0,0.019-0.004,0.027c-0.007,0.017-0.011,0.03-0.013,0.048c-0.001,0.01-0.01,0.015-0.01,0.024v1.609c0,0.01,0.009,0.016,0.01,0.025  c0.003,0.026,0.015,0.045,0.028,0.067c0.014,0.023,0.024,0.043,0.045,0.06c0.007,0.005,0.008,0.016,0.016,0.021l7.732,4.466  l-6.779,3.917c-0.008,0.005-0.009,0.016-0.016,0.021c-0.015,0.012-0.025,0.021-0.036,0.036c-0.006,0.008-0.017,0.008-0.021,0.017  s0,0.018-0.003,0.026c-0.007,0.017-0.011,0.03-0.013,0.048c-0.001,0.01-0.01,0.016-0.01,0.025v0.242c0,0.01,0.009,0.016,0.01,0.025  c0.003,0.026,0.015,0.045,0.028,0.067c0.014,0.023,0.024,0.043,0.045,0.06c0.007,0.005,0.008,0.016,0.016,0.021l13.111,7.566  c0.032,0.019,0.066,0.027,0.1,0.027s0.068-0.009,0.1-0.027l3.188-1.838l8.028,0.006l3.586,2.072c0.032,0.019,0.066,0.027,0.1,0.027  s0.068-0.009,0.1-0.027l6.872-3.974l28.542,16.478c0.031,0.019,0.065,0.027,0.1,0.027s0.068-0.009,0.1-0.027l27.937-16.131  c0.009-0.005,0.009-0.016,0.017-0.021c0.021-0.017,0.031-0.036,0.045-0.06c0.014-0.022,0.025-0.041,0.028-0.067  c0.001-0.01,0.011-0.016,0.011-0.025V63.8c0-0.01-0.01-0.016-0.011-0.025c-0.003-0.018-0.006-0.031-0.013-0.047  c-0.004-0.009,0.001-0.019-0.004-0.027s-0.016-0.009-0.021-0.017c-0.011-0.015-0.021-0.024-0.036-0.036  c-0.007-0.006-0.007-0.016-0.016-0.021l-0.314-0.183v-3.883l0.599-0.351c0.008-0.005,0.009-0.016,0.016-0.021  c0.021-0.016,0.031-0.035,0.045-0.059s0.025-0.042,0.028-0.068c0.001-0.009,0.011-0.015,0.011-0.024v-1.848  c0-0.01-0.01-0.016-0.011-0.024C97.593,57.148,97.589,57.135,97.583,57.118z M25.458,20.238l20.139,11.629l-0.158,0.092  L25.558,20.481c-0.008-0.005-0.018,0-0.026-0.004c-0.017-0.007-0.03-0.011-0.048-0.013c-0.01-0.002-0.016-0.011-0.026-0.011  s-0.016,0.009-0.026,0.011c-0.018,0.002-0.031,0.006-0.047,0.013c-0.009,0.004-0.019-0.001-0.027,0.004L5.521,31.934  c-0.016,0.01-0.019,0.028-0.032,0.041s-0.032,0.016-0.042,0.032c-0.005,0.008,0,0.018-0.003,0.026  c-0.01,0.024-0.01,0.047-0.01,0.073c0,0.018-0.011,0.034-0.007,0.051c-0.007,0.002-0.01,0.01-0.017,0.013  c-0.009,0.004-0.02-0.001-0.028,0.004l-0.459,0.265l-0.3-0.175L25.458,20.238z M49.56,30.035l0.314,0.183c0,0,0,0,0.001,0  l0.561,0.323c0,0,0,0.001,0.001,0.001l0.698,0.406l0,0l7.244,4.179L49.56,40.22l-7.845-4.527c-0.002-0.011-0.011-0.018-0.015-0.027  c-0.004-0.009,0.001-0.019-0.004-0.027s-0.016-0.009-0.021-0.017c-0.011-0.015-0.021-0.024-0.036-0.036  c-0.007-0.006-0.007-0.016-0.016-0.021l-0.816-0.474l4.03-2.33h0l0.701-0.398c0,0,0-0.001,0-0.001s0,0,0.001,0l0.557-0.322  L49.56,30.035z M60.381,24.267l35.927,20.742L68.486,61.073l-0.305-0.178c0.011-0.009,0.015-0.021,0.024-0.03  c0.008-0.01,0.024-0.007,0.031-0.019c0.006-0.009,0.001-0.02,0.005-0.029c0.009-0.021,0.011-0.039,0.013-0.062l0.131,0.075  c0.031,0.019,0.065,0.027,0.1,0.027s0.068-0.009,0.1-0.027l26.406-15.244l0.697-0.404c0.021-0.013,0.027-0.037,0.042-0.056  c0.009-0.01,0.024-0.006,0.031-0.018c0.005-0.009,0-0.019,0.004-0.027c0.01-0.023,0.009-0.046,0.009-0.072s0.001-0.049-0.01-0.074  c-0.004-0.009,0.002-0.018-0.004-0.026c-0.009-0.017-0.028-0.019-0.041-0.031c-0.012-0.013-0.016-0.032-0.031-0.041L60.481,24.51  c-0.008-0.005-0.018,0-0.025-0.004c-0.018-0.007-0.031-0.011-0.05-0.014c-0.009-0.001-0.015-0.01-0.024-0.01  s-0.016,0.009-0.024,0.01c-0.019,0.003-0.032,0.007-0.05,0.014c-0.008,0.004-0.018-0.001-0.025,0.004l-9.745,5.628l-0.163-0.094  L60.381,24.267z M68.986,79.103L36.977,60.626v-3.171l0.854,0.495v0.203c0,0.01,0.009,0.016,0.011,0.025  c0.003,0.026,0.015,0.044,0.027,0.066c0.014,0.024,0.025,0.044,0.047,0.061c0.007,0.006,0.007,0.016,0.016,0.021l1.537,0.885  c0.031,0.019,0.065,0.027,0.1,0.027c0.029,0,0.057-0.01,0.084-0.022c0,0.006,0.005,0.01,0.006,0.016  c0.004,0.026,0.015,0.044,0.028,0.066c0.013,0.024,0.024,0.044,0.046,0.061c0.007,0.006,0.008,0.016,0.016,0.021l1.537,0.885  c0.031,0.019,0.065,0.027,0.1,0.027c0.03,0,0.059-0.01,0.086-0.023c0,0.003,0.003,0.005,0.004,0.009  c0.003,0.026,0.015,0.045,0.028,0.067c0.014,0.023,0.024,0.043,0.045,0.06c0.007,0.005,0.008,0.016,0.016,0.021l1.537,0.887  c0.032,0.019,0.066,0.027,0.1,0.027c0.029,0,0.059-0.009,0.087-0.022c0,0.005,0.005,0.008,0.005,0.014  c0.003,0.025,0.015,0.044,0.028,0.067s0.024,0.043,0.045,0.06c0.007,0.005,0.008,0.016,0.016,0.021l1.534,0.887  c0.032,0.019,0.066,0.027,0.1,0.027c0.03,0,0.06-0.01,0.087-0.024c0,0.002,0.002,0.004,0.002,0.006  c0.003,0.025,0.015,0.044,0.027,0.067c0.014,0.023,0.024,0.043,0.045,0.059c0.007,0.006,0.008,0.017,0.016,0.021l1.534,0.891  c0.032,0.019,0.066,0.027,0.101,0.027c0.03,0,0.06-0.01,0.088-0.023c0,0.004,0.004,0.007,0.004,0.011  c0.003,0.025,0.015,0.044,0.028,0.067s0.023,0.043,0.045,0.059c0.007,0.006,0.008,0.017,0.016,0.021l1.534,0.891  c0.032,0.019,0.066,0.027,0.101,0.027c0.031,0,0.062-0.01,0.091-0.025c0,0.003,0.002,0.004,0.002,0.007  c0.003,0.025,0.015,0.044,0.028,0.067s0.024,0.043,0.045,0.06c0.007,0.005,0.008,0.016,0.016,0.021l1.534,0.887  c0.032,0.019,0.066,0.027,0.1,0.027c0.033,0,0.067-0.009,0.098-0.025l0.184-0.103l17.921,10.343c0.031,0.019,0.065,0.027,0.1,0.027  s0.068-0.009,0.1-0.026l0.118-0.068V79.103z M14.652,57.634l-4.264,2.46c-0.008,0.005-0.009,0.016-0.016,0.021  c-0.015,0.012-0.025,0.021-0.036,0.036c-0.006,0.008-0.017,0.008-0.021,0.017c-0.005,0.008,0,0.018-0.003,0.026  c-0.007,0.017-0.011,0.03-0.013,0.048c-0.001,0.01-0.01,0.016-0.01,0.025v0.24c0,0.01,0.009,0.016,0.01,0.025  c0.003,0.026,0.015,0.045,0.028,0.067c0.014,0.023,0.024,0.043,0.045,0.06c0.007,0.005,0.008,0.016,0.016,0.021l9.28,5.358  l-0.664,0.67l-0.366,0.214L7.534,60.507l5.939-3.429c0.001-0.001,0.002-0.001,0.002-0.001l0.111-0.063L14.652,57.634z M94.89,45.183  L60.582,25.375V25.03l34.607,19.979L94.89,45.183z M60.181,25.375l-8.945,5.169l-0.3-0.174l9.245-5.34V25.375z M60.381,25.72  l34.109,19.693L68.485,60.427l-30.473-17.6l3.611-2.083c0.008-0.005,0.009-0.016,0.016-0.021c0.021-0.017,0.032-0.036,0.045-0.06  c0.013-0.022,0.025-0.041,0.028-0.067c0.001-0.01,0.01-0.016,0.01-0.025v-0.539l7.737,4.466c0.032,0.019,0.066,0.027,0.1,0.027  c0.035,0,0.069-0.009,0.101-0.027l0.454-0.267l0.037,0.022c0.032,0.02,0.068,0.029,0.104,0.029c0.034,0,0.068-0.009,0.1-0.027  l9.222-5.322c0.008-0.005,0.009-0.016,0.016-0.021c0.021-0.017,0.032-0.036,0.046-0.06c0.013-0.022,0.024-0.041,0.028-0.067  c0.001-0.01,0.01-0.016,0.01-0.025v-0.05l1.157-0.665c0.009-0.005,0.009-0.016,0.017-0.021c0.021-0.017,0.032-0.036,0.045-0.06  c0.014-0.022,0.025-0.041,0.028-0.067c0.001-0.01,0.011-0.016,0.011-0.025v-1.127c0-0.01-0.009-0.016-0.01-0.025  c-0.003-0.018-0.007-0.031-0.014-0.048c-0.004-0.009,0.002-0.018-0.004-0.026c-0.004-0.009-0.016-0.009-0.021-0.017  c-0.012-0.015-0.021-0.024-0.036-0.036c-0.008-0.005-0.008-0.016-0.016-0.021l-1.848-1.067l-0.008-0.011v-0.368  c0-0.01-0.009-0.016-0.011-0.025c-0.002-0.018-0.006-0.031-0.013-0.048c-0.004-0.009,0.002-0.019-0.004-0.026  c-0.004-0.009-0.016-0.009-0.021-0.017c-0.012-0.015-0.021-0.024-0.036-0.036c-0.008-0.005-0.008-0.016-0.016-0.021l-7.244-4.179  L60.381,25.72z M96.507,56.667L68.685,72.733V61.419l27.822-16.063V56.667z M68.285,72.73l-0.294-0.172v-0.207v-0.324V61.248  l0.294,0.172V72.73z M68.568,75.23l-17.72-10.228c-0.008-0.005-0.018,0-0.026-0.004c-0.024-0.01-0.046-0.009-0.072-0.01  c-0.027,0-0.049-0.001-0.073,0.009c-0.003,0.001-0.007,0-0.011,0.001v-1.496l17.902,10.339V75.23z M6.223,32.684l0.958,0.554  l-0.159,0.088l-1.147-0.661c0.012-0.009,0.017-0.022,0.025-0.033c0.009-0.009,0.025-0.006,0.032-0.018  c0.005-0.009,0-0.019,0.004-0.028c0.008-0.021,0.01-0.038,0.012-0.06L6.223,32.684z M26.059,44.137  c0.032,0.019,0.066,0.027,0.1,0.027s0.068-0.009,0.1-0.027l0.13-0.075c0.002,0.018,0.006,0.031,0.013,0.048  c0.003,0.009-0.002,0.02,0.003,0.028c0.006,0.012,0.022,0.008,0.03,0.018c0.015,0.019,0.02,0.042,0.041,0.055l0.256,0.153  l-0.574,0.333l-0.576-0.334l0.259-0.151c0.022-0.014,0.028-0.038,0.043-0.058c0.008-0.01,0.024-0.006,0.031-0.018  c0.004-0.009,0-0.018,0.003-0.026c0.006-0.017,0.01-0.029,0.012-0.047L26.059,44.137z M59.377,38.421  c-0.001,0-0.001,0.001-0.002,0.001l-9.221,5.324l-0.139,0.08c0,0,0,0-0.001,0l-0.255,0.149v-0.664l10.773-6.22v0.664L59.377,38.421z   M58.719,35.821l0.605,0.861l-9.564,5.522v-1.217L58.719,35.821z M49.36,42.205l-7.637-4.408v-1.211l7.637,4.402V42.205z   M41.723,38.903l7.637,4.409v0.668l-7.637-4.408V38.903z M49.56,42.966l-7.837-4.525v-0.184l7.737,4.466  c0.032,0.019,0.066,0.027,0.1,0.027s0.068-0.009,0.1-0.027l10.055-5.805c0.002-0.001,0.002-0.005,0.004-0.007  c0.004-0.002,0.008-0.001,0.011-0.003c0.02-0.014,0.022-0.037,0.035-0.056c0.016-0.022,0.036-0.039,0.042-0.065  c0.006-0.025-0.006-0.048-0.01-0.074c-0.004-0.022,0.003-0.046-0.01-0.067c-0.001-0.003-0.006-0.003-0.007-0.006  c-0.002-0.003-0.001-0.007-0.003-0.01l-0.244-0.348l0.801,0.463L49.56,42.966z M41.322,36.24v1.672v0.645v1.131v0.77l-3.71,2.141  l-0.598-0.342c-0.008-0.005-0.018,0-0.026-0.003c-0.024-0.01-0.045-0.009-0.071-0.009c-0.027-0.001-0.05-0.002-0.075,0.009  c-0.008,0.003-0.017-0.002-0.025,0.003l-0.28,0.158c-0.009,0.005-0.009,0.016-0.017,0.021c-0.015,0.011-0.026,0.021-0.037,0.036  c-0.006,0.007-0.016,0.008-0.021,0.016c-0.005,0.009,0,0.018-0.003,0.026c-0.007,0.017-0.011,0.03-0.013,0.048  c-0.001,0.01-0.011,0.017-0.011,0.026V54.25l-1.413,0.82V39.718l6.3-3.635V36.24z M66.588,70.763l0.392-0.362l0.051,0.028v0.589  L66.588,70.763z M64.771,69.71l0.39-0.361l0.053,0.031v0.585L64.771,69.71z M62.956,68.666l0.395-0.363l0.047,0.026v0.59  L62.956,68.666z M61.139,67.613l0.391-0.36l0.051,0.03v0.583L61.139,67.613z M59.324,66.569l0.392-0.365l0.051,0.029v0.59  L59.324,66.569z M57.509,65.517l0.39-0.358l0.051,0.029v0.582L57.509,65.517z M55.692,64.47l0.391-0.36l0.051,0.03v0.585  L55.692,64.47z M53.874,63.424l0.395-0.362l0.048,0.028v0.59L53.874,63.424z M52.06,62.371l0.39-0.359l0.053,0.031v0.585  L52.06,62.371z M50.445,55.332l-0.35,6.093l-0.7,0.345l0.395-6.82L50.445,55.332z M49.598,62.116l0.546-0.27l-0.034,0.566  L49.598,62.116z M47.779,61.068l0.549-0.274l-0.033,0.573L47.779,61.068z M45.968,60.016l0.543-0.267l-0.032,0.563L45.968,60.016z   M44.149,58.971l0.548-0.274l-0.034,0.573L44.149,58.971z M42.334,57.925l0.546-0.274l-0.034,0.567L42.334,57.925z M40.515,56.874  l0.55-0.276l-0.033,0.573L40.515,56.874z M38.696,55.827l0.551-0.273l-0.032,0.572L38.696,55.827z M31.582,65.362l-0.012-0.013  l5.622-3.252l0.019,0.011L31.582,65.362z M31.556,64.647c-0.002-0.007-0.01-0.01-0.013-0.017c-0.003-0.009,0.001-0.018-0.003-0.025  c-0.005-0.009-0.016-0.01-0.022-0.017c-0.011-0.016-0.021-0.026-0.036-0.038c-0.007-0.005-0.008-0.016-0.016-0.021l-1.263-0.73  c-0.016-0.01-0.034-0.002-0.051-0.007c-0.018-0.005-0.03-0.021-0.049-0.021l-8.461-0.006c-0.019,0-0.031,0.015-0.048,0.02  c-0.018,0.005-0.036-0.002-0.052,0.007l-0.836,0.48c-0.009,0.005-0.009,0.016-0.017,0.021c-0.015,0.012-0.024,0.021-0.035,0.035  c-0.006,0.007-0.016,0.007-0.021,0.015c-0.005,0.009,0,0.019-0.004,0.028c-0.007,0.017-0.011,0.03-0.014,0.049  c0,0.003-0.003,0.005-0.003,0.008l-8.049-4.645l3.425-1.976c0.001-0.001,0.002-0.001,0.002-0.001l0.111-0.064l1.295,0.747  c0.032,0.019,0.066,0.027,0.1,0.027s0.069-0.009,0.101-0.027l0.249-0.146l1.546,0.893v0.291c0,0.01,0.009,0.016,0.01,0.025  c0.003,0.026,0.015,0.045,0.028,0.067c0.014,0.023,0.024,0.043,0.045,0.06c0.007,0.005,0.008,0.016,0.016,0.021l2.374,1.369  c0.032,0.019,0.066,0.027,0.1,0.027s0.068-0.009,0.1-0.027l0.812-0.469h0.132l0.851,0.495v1.01c0,0.01,0.009,0.016,0.01,0.025  c0.003,0.025,0.015,0.044,0.028,0.067c0.014,0.023,0.024,0.043,0.046,0.06c0.007,0.005,0.008,0.016,0.016,0.021l2.097,1.213  c0.032,0.019,0.066,0.027,0.1,0.027s0.068-0.009,0.1-0.027l5.067-2.929l0.74,0.424c0.031,0.018,0.065,0.026,0.099,0.026  s0.068-0.009,0.099-0.026l0.958-0.549v1.105c0,0.01,0.009,0.016,0.011,0.025c0.003,0.026,0.015,0.045,0.028,0.067  c0.014,0.023,0.024,0.043,0.045,0.06c0.008,0.006,0.008,0.017,0.017,0.021l1.399,0.803c0.031,0.018,0.065,0.026,0.1,0.026  s0.068-0.009,0.1-0.026l1.714-0.986l0.157,0.092L31.556,64.647z M12.729,48.345l0.546-0.272l-0.032,0.57L12.729,48.345z   M10.916,47.298l0.545-0.271l-0.034,0.565L10.916,47.298z M9.096,46.248l0.549-0.273L9.61,46.546L9.096,46.248z M7.279,45.204  l0.549-0.276L7.795,45.5L7.279,45.204z M5.468,44.152l0.543-0.269l-0.032,0.564L5.468,44.152z M36.297,56.834l-1.575,0.905  c0,0,0,0.001-0.001,0.001l0,0l-0.837,0.487l-0.279,0.155c0,0,0,0.001-0.001,0.001c0,0,0,0,0,0l-0.279,0.158c0,0,0,0.001,0,0.001  c0,0-0.001,0-0.001,0l-0.142,0.082c0,0,0,0,0,0l-1.114,0.647h0l-0.276,0.158c0,0,0,0.001,0,0.001c0,0-0.001,0-0.001,0l-0.491,0.285  c0,0,0,0,0,0.001l-0.598,0.345v-0.427l5.598-3.229V56.834z M6.315,37.369l-0.351,6.091l-0.7,0.347l0.391-6.821L6.315,37.369z   M17.817,51.799c0.032,0.019,0.066,0.027,0.1,0.027c0.029,0,0.057-0.011,0.084-0.023c0,0.003,0.002,0.004,0.002,0.007  c0.003,0.026,0.015,0.045,0.028,0.067c0.014,0.023,0.024,0.043,0.045,0.06c0.007,0.005,0.008,0.016,0.016,0.021l1.537,0.887  c0.032,0.019,0.066,0.027,0.1,0.027c0.03,0,0.06-0.01,0.088-0.023c0,0.002,0.002,0.004,0.003,0.007  c0.003,0.026,0.015,0.045,0.028,0.067c0.014,0.023,0.024,0.043,0.045,0.06c0.007,0.005,0.008,0.016,0.016,0.021l1.537,0.887  c0.032,0.019,0.066,0.027,0.1,0.027c0.029,0,0.057-0.01,0.084-0.022c0,0.005,0.005,0.008,0.006,0.014  c0.003,0.026,0.015,0.045,0.028,0.067c0.014,0.023,0.024,0.043,0.045,0.06c0.007,0.005,0.008,0.016,0.016,0.021l1.538,0.887  c0.032,0.019,0.066,0.027,0.1,0.027c0.029,0,0.057-0.011,0.083-0.023c0,0.003,0.002,0.005,0.003,0.007  c0.003,0.026,0.015,0.044,0.027,0.066c0.014,0.024,0.025,0.044,0.047,0.061c0.007,0.006,0.007,0.016,0.016,0.021l1.44,0.83v0.025  l-8.621-4.978l0.017-0.01L17.817,51.799z M26.162,60.209l-0.701-0.008c-0.001,0-0.002,0-0.002,0h-0.839h-0.276h-0.281h-0.998h-0.238  h-0.82v-0.486l8.292,0.006v0.488h-3.442H26.162z M24.819,61.834v-1.232h0.439v1.484L24.819,61.834z M32.245,39.825l-0.163-0.092  v-0.184l0.163,0.094V39.825z M31.883,40.08l0.362,0.204v0.183l-0.518-0.298L31.883,40.08z M31.682,41.576v0.414l-0.156,0.091v-0.596  L31.682,41.576z M32.083,41.805l0.163,0.094v0.185l-0.163-0.094V41.805z M31.682,39.32v0.413l-0.156,0.09v-0.594L31.682,39.32z   M31.883,42.335l0.362,0.209v0.185l-0.521-0.301L31.883,42.335z M31.882,50.736l0.363,0.208v0.186l-0.521-0.302L31.882,50.736z   M32.245,50.483l-0.163-0.094v-0.185l0.163,0.094V50.483z M31.682,50.39l-0.156,0.091v-0.598l0.156,0.091V50.39z M31.883,45.404  l0.362,0.204v0.183l-0.518-0.298L31.883,45.404z M31.526,46.823l0.156,0.091v0.408l-0.156,0.091V46.823z M32.245,45.149  l-0.163-0.092v-0.184l0.163,0.094V45.149z M31.682,45.057l-0.156,0.09v-0.594l0.156,0.091V45.057z M32.083,47.141l0.163,0.091v0.183  l-0.163-0.094V47.141z M31.882,47.667l0.363,0.208v0.187l-0.521-0.303L31.882,47.667z M31.25,51.335l0.367,0.213l-0.11,0.062  c-0.009,0.005-0.009,0.016-0.017,0.021c-0.015,0.012-0.024,0.021-0.035,0.036c-0.006,0.008-0.017,0.008-0.021,0.017  c-0.005,0.008,0,0.018-0.003,0.026c-0.007,0.017-0.01,0.03-0.013,0.048c-0.001,0.01-0.011,0.016-0.011,0.025v1.426l-0.156-0.092  V51.335z M32.083,52.612l0.301,0.175v2.348l-0.301,0.176V52.612z M32.784,53.017l0.159,0.092v2.118l-0.159-0.093V53.017z   M31.479,55.637c0.002,0.002,0.006,0.002,0.008,0.004c0.007,0.005,0.007,0.015,0.015,0.02l0.276,0.168  c0.033,0.02,0.068,0.029,0.104,0.029c0.034,0,0.069-0.009,0.101-0.027l0.602-0.35l0.358,0.208v0.576l-2.821,1.636l-2.554-0.006  L31.479,55.637z M31.406,55.218l-4.635,2.675h-0.412v-0.911l5.047-2.912V55.218z M25.959,56.982v0.911h-0.416l-9.104-5.255v-1.153  L25.959,56.982z M14.077,51.837l-0.014-0.009v-0.044v-0.158v-1.53l0.029-0.498l1.049,0.601c0.025,0.014,0.052,0.018,0.079,0.021  c0.003,0.001,0.006,0.005,0.009,0.005c0.004,0.001,0.008,0.001,0.011,0.001c0.001,0,0.002-0.001,0.003-0.001L15.2,50.966  c0,0.002,0.002,0.004,0.002,0.006S15.2,50.976,15.2,50.978v0.209L14.077,51.837z M14.545,49.396l0.546-0.271l-0.032,0.566  L14.545,49.396z M15.398,42.607l-0.356,6.096l-0.7,0.349l0.395-6.827L15.398,42.607z M16.156,41.42l0.021-0.013v8.892L16.002,50.4  c-0.008,0.005-0.009,0.016-0.017,0.021c-0.014,0.011-0.024,0.021-0.035,0.034c-0.006,0.007-0.016,0.008-0.021,0.016  c-0.005,0.009,0,0.019-0.004,0.028c-0.007,0.017-0.011,0.03-0.014,0.049c-0.001,0.01-0.011,0.016-0.011,0.025v0.207l-0.299,0.174  L16.156,41.42z M15.703,42.322l-1.048-0.606c-0.015-0.009-0.031-0.002-0.047-0.006c-0.015-0.005-0.025-0.02-0.042-0.021  c-0.006-0.002-0.011,0.006-0.018,0.005l0.055-0.944l1.152,0.664L15.703,42.322z M7.391,37.527c-0.015-0.009-0.032-0.002-0.047-0.006  c-0.015-0.005-0.024-0.019-0.041-0.02c-0.007-0.002-0.012,0.006-0.019,0.006l0.055-0.954l1.152,0.665l-0.053,0.911h0  c0,0,0-0.001-0.001-0.001L7.391,37.527z M9.208,38.573c-0.015-0.009-0.031-0.002-0.046-0.006c-0.016-0.005-0.025-0.02-0.042-0.021  c-0.004-0.001-0.008-0.001-0.012-0.001c-0.002,0-0.004,0.002-0.006,0.003l0.055-0.949l1.148,0.664l-0.053,0.913  c-0.001,0,0-0.001-0.001-0.002L9.208,38.573z M11.025,39.616c-0.015-0.009-0.033-0.002-0.049-0.007  c-0.015-0.005-0.024-0.019-0.04-0.02c-0.004-0.001-0.008-0.001-0.012-0.001c-0.002,0-0.003,0.002-0.005,0.002l0.054-0.939  l1.149,0.665l-0.053,0.911h0L11.025,39.616z M12.837,40.667c-0.015-0.009-0.032-0.002-0.048-0.006  c-0.015-0.005-0.024-0.019-0.041-0.02c-0.005-0.001-0.009,0.005-0.014,0.004l0.055-0.948l1.149,0.663l-0.052,0.907L12.837,40.667z   M16.24,52.984l8.505,4.909h-2.557l-7.223-4.176L16.24,52.984z M30.133,58.526v0.57l-7.964-0.008v-0.57L30.133,58.526z   M29.612,60.61l-2.555,1.476V60.61H29.612z M30.87,53.888c0.008-0.005,0.008-0.015,0.015-0.021c0.021-0.017,0.031-0.036,0.044-0.06  c0.013-0.022,0.025-0.042,0.028-0.068c0.001-0.009,0.01-0.015,0.01-0.023v-0.201l0.083-0.049l0.3,0.175l-1.789,1.032L30.87,53.888z   M28.774,55.1c0.008-0.005,0.009-0.016,0.016-0.021c0.021-0.017,0.032-0.036,0.045-0.06c0.013-0.022,0.025-0.041,0.028-0.067  c0-0.002,0.002-0.004,0.002-0.006l0.021,0.012c0.031,0.018,0.065,0.026,0.1,0.026c0.023,0,0.044-0.011,0.067-0.019l-1.716,0.99  v-0.027L28.774,55.1z M7.472,38.036l0.659,0.379l-0.354,6.091l-0.7,0.352L7.472,38.036z M9.289,39.081l0.655,0.378l-0.35,6.094  l-0.7,0.349L9.289,39.081z M11.105,40.126l0.656,0.385l-0.35,6.094l-0.7,0.349L11.105,40.126z M12.919,41.176l0.662,0.379  l-0.353,6.095l-0.7,0.349L12.919,41.176z M16.039,51.485v1.152l-1.476,0.849l-0.996-0.574L16.039,51.485z M23.862,60.602v0.032  l-0.055-0.032H23.862z M25.658,62.755v-0.324v-1.827l0.301,0.004v2.365l-0.315-0.183C25.646,62.778,25.658,62.769,25.658,62.755z   M26.359,60.61h0.297v1.821v0.324c0,0.015,0.013,0.023,0.016,0.037l-0.313,0.181V60.61z M32.366,59.562l0.715-0.416v0.913  l-0.715,0.41V59.562z M34.183,61.27v-2.753l0.439-0.256v3.261L34.183,61.27z M36.014,55.783l-5.48,3.167v-0.509l5.48-3.167V55.783z   M30.567,42.295v11.106v0.201l-1.38,0.828V43.121L30.567,42.295z M28.474,43.498v11.107v0.207l-1.137,0.656V44.361v-0.207  L28.474,43.498z M26.937,44.708v11.106v0.209l-0.577,0.333V45.042L26.937,44.708z M25.959,56.356l-0.577-0.333v-0.209V44.708  l0.577,0.335V56.356z M24.981,44.361v11.107l-1.14-0.657v-0.206V43.498l1.14,0.657V44.361z M23.165,54.423l-1.137-0.656v-0.209  V42.452l1.137,0.659V54.423z M21.348,53.371l-1.136-0.656v-0.201V41.399l1.136,0.659V53.371z M19.531,52.326l-1.136-0.656V51.46  V40.355l1.136,0.656V52.326z M17.717,51.281l-1.14-0.658v-0.207V39.767V39.31l1.14,0.655V51.281z M15.901,40.874l-1.137-0.657  v-1.959l1.137,0.654V40.874z M14.084,39.828l-1.136-0.656v-1.96l1.136,0.657V39.828z M12.267,38.775l-1.136-0.656v-1.96l1.136,0.657  V38.775z M10.454,37.73l-1.14-0.657v-1.96l1.14,0.658V37.73z M8.637,36.677L7.5,36.021v-1.96l1.137,0.657V36.677z M6.82,35.632  l-1.137-0.656v-1.961l1.137,0.656V35.632z M6.675,36.167l-0.053,0.918l-0.007-0.004l-1.041-0.605  c-0.015-0.009-0.032-0.002-0.048-0.007c-0.015-0.004-0.025-0.019-0.042-0.02c-0.004-0.001-0.007-0.001-0.011-0.001  c-0.001,0-0.001,0.001-0.002,0.001l0.054-0.939L6.675,36.167z M21.769,58.433v0.509l-8.96-5.175v-0.209v-0.3L21.769,58.433z   M12.246,54.228l9.36,5.402v0.427l-1.422-0.82c0,0,0-0.001-0.001-0.001l-0.211-0.121c0,0-0.001,0-0.001,0l-0.276-0.164  c0,0-0.001,0-0.001,0s0-0.001,0-0.001l-1.747-1.008l-0.349-0.201c0,0,0,0,0,0c-0.001,0,0-0.001-0.001-0.001l-0.28-0.158h0  l-5.069-2.928V54.228z M11.974,60.05c0.003,0.026,0.015,0.045,0.028,0.067c0.014,0.023,0.024,0.043,0.045,0.06  c0.007,0.005,0.008,0.016,0.016,0.021l8.52,4.916l-0.017,0.017l-8.843-5.105l0.239-0.138v0.138  C11.963,60.035,11.972,60.041,11.974,60.05z M35.022,61.52v-3.49l1.477-0.849l0.078,0.044v3.4L35.022,61.52z M36.338,54.768  l0.297-0.172l0.08,0.046v0.211c0,0.01,0.009,0.016,0.011,0.025c0.003,0.026,0.015,0.045,0.028,0.067  c0.014,0.023,0.024,0.043,0.045,0.06c0.008,0.006,0.008,0.017,0.017,0.021l1.054,0.606l-0.001,0.02L36.338,54.768z M38.811,48.145  c-0.015-0.009-0.031-0.002-0.047-0.007c-0.015-0.004-0.025-0.019-0.042-0.02c-0.004-0.001-0.008-0.001-0.012-0.001  c-0.002,0-0.003,0.002-0.005,0.002l0.066-1.158l1.152,0.664l-0.065,1.128l-0.006-0.003L38.811,48.145z M40.627,49.197  c-0.015-0.008-0.032-0.002-0.047-0.006c-0.015-0.005-0.024-0.019-0.041-0.02c-0.007-0.002-0.012,0.006-0.018,0.006l0.067-1.172  l1.148,0.666l-0.065,1.126L40.627,49.197z M42.445,50.243c-0.015-0.009-0.032-0.002-0.048-0.007  c-0.015-0.004-0.025-0.019-0.042-0.02c-0.007-0.002-0.011,0.006-0.018,0.005l0.067-1.164l1.149,0.658l-0.066,1.137L42.445,50.243z   M44.26,51.295c-0.014-0.009-0.03-0.002-0.046-0.006c-0.016-0.005-0.025-0.02-0.042-0.021c-0.004-0.001-0.008-0.001-0.012-0.001  c-0.002,0-0.004,0.002-0.006,0.003l0.067-1.167l1.149,0.663l-0.065,1.131c0,0,0-0.001,0-0.001L44.26,51.295z M46.075,52.34  c-0.015-0.009-0.032-0.002-0.048-0.007c-0.015-0.004-0.025-0.019-0.042-0.02c-0.006-0.001-0.011,0.006-0.017,0.005l0.067-1.168  l1.152,0.662l-0.066,1.136l-0.004-0.002c0,0,0,0,0,0L46.075,52.34z M47.891,53.392c-0.015-0.008-0.032-0.002-0.047-0.006  c-0.015-0.005-0.024-0.019-0.041-0.02c-0.004-0.001-0.008-0.001-0.012-0.001c-0.002,0-0.004,0.002-0.006,0.003l0.067-1.166  L49,52.865l-0.065,1.128L47.891,53.392z M38.891,48.655l0.66,0.384l-0.351,6.092l-0.707,0.352L38.891,48.655z M40.708,49.706  l0.659,0.379l-0.354,6.091l-0.7,0.352L40.708,49.706z M42.525,50.753l0.655,0.383l-0.35,6.092l-0.7,0.352L42.525,50.753z   M44.342,51.803l0.656,0.378l-0.35,6.094l-0.7,0.351L44.342,51.803z M46.155,52.85l0.66,0.384l-0.351,6.093l-0.701,0.344  L46.155,52.85z M47.972,53.901l0.659,0.379l-0.353,6.093l-0.7,0.349L47.972,53.901z M50.962,53.378l-1.136-0.656v-1.961l1.136,0.656  V53.378z M49.149,52.326l-1.14-0.656v-1.961l1.14,0.656V52.326z M47.333,51.28l-1.137-0.657v-1.959l1.137,0.656V51.28z   M45.516,50.227l-1.136-0.657v-1.959l1.136,0.656V50.227z M43.699,49.182l-1.136-0.657v-1.959l1.136,0.656V49.182z M41.885,48.13  l-1.14-0.658v-1.953l1.14,0.658V48.13z M40.069,47.083l-1.137-0.654v-1.962l1.137,0.657V47.083z M38.252,49.038l-0.357,6.148  l-0.78-0.449v-0.21V43.422l1.137,0.657V49.038z M52.78,52.464v6.772l-0.257-0.144l-0.696-0.407c-0.017-0.01-0.035-0.003-0.053-0.007  c-0.018-0.006-0.029-0.021-0.049-0.021c-0.009,0-0.015,0.009-0.023,0.01c-0.022,0.003-0.038,0.012-0.059,0.021v-6.883L52.78,52.464z   M51.926,59.208l0.297,0.174v2.294l-0.297,0.274V59.208z M53.739,60.256l0.301,0.172v2.3l-0.301,0.276V60.256z M55.556,61.305  l0.3,0.175v2.293l-0.3,0.277V61.305z M57.374,62.35l0.297,0.173v2.303l-0.297,0.272V62.35z M59.19,63.403l0.297,0.173v2.294  l-0.297,0.277V63.403z M61.002,64.448l0.301,0.175v2.293l-0.301,0.277V64.448z M62.82,65.499l0.301,0.172v2.298l-0.301,0.277V65.499  z M64.637,66.548l0.297,0.174v2.294l-0.297,0.274V66.548z M66.454,67.596l0.297,0.17v2.303l-0.297,0.274V67.596z M67.307,67.628  l-0.254-0.15c0,0-0.001,0-0.002,0c0-0.001,0-0.002-0.001-0.002l-0.698-0.398c-0.016-0.009-0.033-0.002-0.051-0.007  s-0.029-0.02-0.048-0.02c-0.01,0-0.016,0.009-0.025,0.011c-0.021,0.002-0.035,0.009-0.054,0.018v-6.881l1.133,0.658V67.628z   M65.491,66.577l-0.256-0.143l0,0l-0.697-0.408c-0.017-0.01-0.035-0.003-0.053-0.008s-0.029-0.02-0.049-0.02  c-0.009,0-0.015,0.009-0.023,0.01c-0.021,0.003-0.037,0.011-0.057,0.02v-6.882l1.135,0.658V66.577z M63.676,65.531l-0.254-0.149  c-0.001,0-0.002,0-0.002,0V65.38l-0.701-0.4c-0.017-0.009-0.034-0.002-0.051-0.006c-0.018-0.006-0.03-0.021-0.049-0.021  c-0.01,0-0.016,0.009-0.025,0.011c-0.02,0.002-0.033,0.007-0.051,0.015v-6.877l1.133,0.655V65.531z M61.86,64.479l-0.258-0.146l0,0  l-0.699-0.405c-0.016-0.01-0.033-0.002-0.051-0.007s-0.03-0.021-0.049-0.021c-0.01,0-0.017,0.009-0.025,0.011  c-0.02,0.002-0.033,0.008-0.051,0.016v-6.878l1.133,0.655V64.479z M60.043,63.434l-0.258-0.147l0,0l-0.696-0.403  c-0.017-0.01-0.034-0.003-0.052-0.007c-0.018-0.005-0.029-0.021-0.049-0.021c-0.009,0-0.015,0.009-0.023,0.01  c-0.021,0.003-0.036,0.01-0.056,0.019v-6.881l1.134,0.654V63.434z M58.226,62.387l-0.253-0.151c-0.001,0-0.002,0-0.002,0  c-0.001,0-0.001-0.001-0.001-0.001l-0.697-0.404c-0.016-0.01-0.034-0.002-0.051-0.007c-0.018-0.005-0.03-0.021-0.05-0.021  c-0.01,0-0.016,0.009-0.025,0.011c-0.021,0.003-0.035,0.01-0.055,0.019v-6.882l1.134,0.654V62.387z M56.413,61.338l-0.257-0.147  h-0.001l-0.699-0.405c-0.016-0.01-0.033-0.002-0.05-0.007c-0.019-0.005-0.03-0.021-0.05-0.021c-0.01,0-0.016,0.009-0.025,0.011  c-0.021,0.003-0.037,0.011-0.058,0.021v-6.886l1.14,0.658V61.338z M54.596,60.292l-0.254-0.151c0,0-0.001,0-0.002,0  c0-0.001,0-0.002-0.001-0.002l-0.702-0.4c-0.016-0.009-0.033-0.002-0.051-0.006c-0.017-0.006-0.029-0.021-0.048-0.021  c-0.011,0-0.017,0.009-0.026,0.011c-0.02,0.003-0.034,0.009-0.053,0.018v-6.88l1.137,0.657V60.292z M67.506,60.51l-1.142-0.663  c0.015-0.011,0.021-0.027,0.031-0.041c0.008-0.01,0.024-0.006,0.03-0.018c0.006-0.009,0-0.019,0.004-0.027  c0.008-0.018,0.01-0.033,0.012-0.053l1.224,0.707L67.506,60.51z M65.692,59.458l-1.142-0.662c0.013-0.01,0.019-0.023,0.027-0.035  c0.009-0.01,0.024-0.006,0.03-0.018c0.006-0.008,0.001-0.018,0.004-0.025c0.009-0.021,0.011-0.037,0.013-0.06l1.228,0.709  L65.692,59.458z M63.875,58.411l-1.145-0.661c0.016-0.012,0.021-0.029,0.033-0.044c0.008-0.01,0.023-0.007,0.029-0.018  c0.006-0.009,0-0.019,0.004-0.028c0.007-0.017,0.01-0.03,0.013-0.049l1.223,0.706L63.875,58.411z M62.063,57.36l-1.146-0.662  c0.013-0.01,0.018-0.024,0.027-0.036c0.008-0.009,0.024-0.006,0.031-0.018c0.006-0.009,0-0.019,0.004-0.028  c0.008-0.019,0.011-0.034,0.013-0.055l1.23,0.711L62.063,57.36z M60.244,56.312l-1.145-0.66c0.018-0.012,0.022-0.031,0.035-0.047  c0.008-0.01,0.023-0.007,0.03-0.018c0.004-0.009-0.001-0.019,0.003-0.027c0.006-0.016,0.011-0.028,0.013-0.046l1.223,0.706  L60.244,56.312z M58.428,55.26l-1.143-0.659c0.014-0.01,0.02-0.024,0.029-0.036c0.009-0.01,0.025-0.007,0.031-0.019  c0.005-0.008,0-0.018,0.004-0.026c0.008-0.019,0.009-0.035,0.011-0.056l1.228,0.708L58.428,55.26z M56.613,54.216l-1.144-0.66  c0.013-0.01,0.019-0.023,0.028-0.035c0.008-0.01,0.023-0.006,0.03-0.018c0.005-0.008,0-0.017,0.004-0.025  c0.01-0.021,0.01-0.04,0.012-0.063l1.229,0.71L56.613,54.216z M54.793,53.169l-1.144-0.661c0.016-0.011,0.021-0.028,0.032-0.043  c0.008-0.01,0.023-0.007,0.03-0.018c0.005-0.009,0-0.018,0.003-0.026c0.008-0.02,0.011-0.035,0.012-0.056l1.226,0.707L54.793,53.169  z M52.981,52.119l-1.143-0.66c0.014-0.011,0.02-0.025,0.029-0.038c0.008-0.01,0.024-0.006,0.031-0.018  c0.004-0.008,0-0.018,0.003-0.026c0.009-0.02,0.01-0.037,0.012-0.059l1.229,0.71L52.981,52.119z M51.162,51.071l-1.143-0.659  c0.017-0.012,0.023-0.031,0.036-0.048c0.008-0.01,0.024-0.006,0.03-0.018c0.005-0.009,0-0.018,0.003-0.026  c0.007-0.018,0.009-0.031,0.011-0.051l1.225,0.707L51.162,51.071z M49.35,50.02l-1.146-0.66c0.013-0.01,0.019-0.024,0.029-0.037  c0.008-0.01,0.024-0.006,0.031-0.018c0.005-0.008,0-0.018,0.003-0.026c0.009-0.02,0.01-0.038,0.011-0.06l1.23,0.71L49.35,50.02z   M47.531,48.973l-1.146-0.661c0.017-0.011,0.021-0.029,0.033-0.044c0.008-0.01,0.024-0.007,0.03-0.018  c0.005-0.009,0-0.019,0.003-0.027c0.007-0.018,0.01-0.033,0.012-0.053l1.226,0.708L47.531,48.973z M45.717,47.921l-1.143-0.659  c0.015-0.011,0.021-0.026,0.032-0.04c0.008-0.01,0.023-0.007,0.03-0.018c0.004-0.008,0-0.016,0.003-0.023  c0.008-0.021,0.009-0.037,0.011-0.059l1.227,0.709L45.717,47.921z M43.9,46.877l-1.142-0.659c0.013-0.01,0.018-0.024,0.028-0.037  c0.008-0.01,0.024-0.006,0.031-0.018c0.005-0.009,0-0.018,0.003-0.026c0.01-0.021,0.01-0.041,0.012-0.064l1.231,0.712L43.9,46.877z   M42.083,45.83l-1.145-0.66c0.016-0.011,0.022-0.029,0.034-0.044c0.008-0.01,0.024-0.007,0.031-0.019  c0.004-0.008,0-0.018,0.003-0.026c0.008-0.019,0.009-0.035,0.011-0.057l1.228,0.709L42.083,45.83z M40.269,44.779l-1.143-0.661  c0.011-0.009,0.017-0.022,0.026-0.033c0.009-0.01,0.024-0.006,0.031-0.018c0.005-0.009,0-0.018,0.004-0.026  c0.01-0.022,0.01-0.042,0.011-0.066l1.232,0.712L40.269,44.779z M38.451,43.733l-1.147-0.663c0.014-0.011,0.019-0.027,0.03-0.04  c0.008-0.01,0.024-0.007,0.031-0.018c0.005-0.009,0-0.019,0.004-0.028c0.008-0.02,0.01-0.037,0.012-0.059l0.133,0.076  c0,0,0.001,0,0.001,0l1.099,0.635L38.451,43.733z M34.622,55.302l-0.72,0.414L33.9,52.671c0-0.01-0.009-0.016-0.011-0.025  c-0.002-0.018-0.005-0.031-0.012-0.047c-0.003-0.01,0.001-0.019-0.003-0.027s-0.016-0.01-0.022-0.018  c-0.011-0.014-0.021-0.023-0.035-0.034c-0.008-0.007-0.008-0.018-0.017-0.022l-0.806-0.463l0.11-0.062  c0.008-0.005,0.009-0.016,0.017-0.021c0.021-0.017,0.032-0.036,0.046-0.06c0.013-0.022,0.024-0.041,0.028-0.066  c0.001-0.01,0.011-0.017,0.011-0.026v-1.939c0-0.01-0.009-0.016-0.01-0.025c-0.002-0.018-0.007-0.032-0.014-0.049  c-0.004-0.009,0.001-0.019-0.004-0.027c-0.005-0.008-0.015-0.009-0.021-0.016c-0.011-0.015-0.021-0.023-0.036-0.035  c-0.007-0.005-0.008-0.016-0.016-0.021l-1.679-0.969c-0.009-0.005-0.019,0-0.027-0.004c-0.025-0.011-0.047-0.011-0.074-0.01  c-0.026,0-0.049,0-0.073,0.011c0,0-0.001,0-0.001,0v-0.441l1.373,0.79c0.031,0.019,0.065,0.027,0.1,0.027  c0.033,0,0.067-0.009,0.098-0.025l0.283-0.158c0.009-0.005,0.01-0.017,0.018-0.022c0.021-0.016,0.033-0.035,0.046-0.059  c0.013-0.022,0.024-0.041,0.028-0.067c0.002-0.01,0.011-0.016,0.011-0.026v-1.934c0-0.01-0.009-0.016-0.01-0.025  c-0.002-0.018-0.006-0.031-0.013-0.047c-0.003-0.009,0.001-0.018-0.003-0.025c-0.005-0.009-0.016-0.01-0.021-0.017  c-0.012-0.016-0.021-0.026-0.037-0.038c-0.006-0.004-0.006-0.012-0.013-0.016c0.007-0.005,0.007-0.014,0.014-0.019  c0.021-0.016,0.032-0.036,0.045-0.06c0.013-0.022,0.024-0.041,0.028-0.067c0.001-0.009,0.01-0.015,0.01-0.024v-1.932  c0-0.01-0.009-0.016-0.01-0.025c-0.002-0.018-0.006-0.03-0.012-0.047c-0.003-0.008,0.001-0.017-0.003-0.024  c-0.005-0.009-0.016-0.01-0.022-0.018c-0.012-0.016-0.021-0.026-0.037-0.038c-0.007-0.005-0.008-0.016-0.016-0.021l-1.679-0.971  c-0.008-0.005-0.018,0-0.026-0.004c-0.024-0.01-0.046-0.01-0.073-0.01s-0.049-0.001-0.074,0.01c-0.001,0-0.002,0-0.003,0v-0.446  l1.372,0.796c0.032,0.019,0.066,0.027,0.101,0.027c0.034,0,0.067-0.009,0.099-0.026l0.283-0.16c0.008-0.005,0.009-0.016,0.017-0.021  c0.021-0.017,0.032-0.036,0.046-0.06c0.013-0.022,0.024-0.041,0.028-0.066c0.001-0.01,0.011-0.017,0.011-0.026V41.46  c0-0.011-0.009-0.017-0.011-0.026c-0.002-0.019-0.006-0.032-0.013-0.048c-0.003-0.009,0.001-0.019-0.003-0.026  s-0.015-0.009-0.021-0.017c-0.011-0.015-0.021-0.024-0.037-0.035c-0.003-0.002-0.003-0.007-0.007-0.009  c0.004-0.003,0.005-0.009,0.009-0.012c0.021-0.016,0.032-0.036,0.045-0.06c0.013-0.022,0.024-0.041,0.028-0.067  c0.001-0.009,0.01-0.015,0.01-0.024v-1.932c0-0.01-0.009-0.016-0.01-0.025c-0.002-0.018-0.006-0.03-0.013-0.047  c-0.003-0.009,0.001-0.018-0.003-0.025c-0.005-0.009-0.016-0.01-0.021-0.017c-0.012-0.016-0.021-0.026-0.037-0.038  c-0.007-0.005-0.008-0.016-0.016-0.021l-1.579-0.913v-0.186l3.095,1.785V55.302z M30.301,41.799  c0.002,0.021,0.004,0.037,0.012,0.057c0.003,0.009-0.001,0.018,0.003,0.026c0.007,0.012,0.022,0.008,0.031,0.018  c0.011,0.014,0.017,0.031,0.032,0.042l-1.395,0.833l-0.186-0.106L30.301,41.799z M28.206,43.011c0.002,0.022,0.004,0.04,0.013,0.061  c0.004,0.009-0.001,0.019,0.004,0.026c0.007,0.012,0.022,0.008,0.031,0.018c0.009,0.011,0.015,0.024,0.026,0.033l-1.144,0.659  L26.98,43.72L28.206,43.011z M25.181,43.808l-1.144-0.659c0.013-0.009,0.019-0.022,0.028-0.034c0.008-0.01,0.023-0.006,0.03-0.018  c0.005-0.008,0-0.017,0.004-0.025c0.009-0.02,0.01-0.037,0.012-0.059l1.224,0.706L25.181,43.808z M23.362,42.763l-1.144-0.662  c0.015-0.011,0.02-0.027,0.031-0.041c0.008-0.01,0.024-0.006,0.03-0.018c0.005-0.009,0-0.018,0.003-0.027  c0.007-0.018,0.011-0.031,0.013-0.051l1.22,0.705L23.362,42.763z M21.548,41.712l-1.142-0.662c0.015-0.011,0.021-0.026,0.032-0.04  c0.008-0.01,0.023-0.006,0.03-0.018c0.004-0.007,0-0.016,0.002-0.022c0.008-0.019,0.009-0.033,0.011-0.053l1.222,0.705  L21.548,41.712z M19.732,40.667l-1.143-0.66c0.015-0.011,0.021-0.026,0.031-0.04c0.008-0.01,0.024-0.006,0.03-0.018  c0.005-0.008,0-0.017,0.003-0.025c0.008-0.019,0.01-0.034,0.013-0.055l1.226,0.708L19.732,40.667z M17.917,39.618l-1.148-0.66  c0.017-0.012,0.022-0.03,0.034-0.046c0.008-0.01,0.023-0.007,0.03-0.018c0.005-0.009,0-0.018,0.003-0.026  c0.007-0.018,0.011-0.03,0.013-0.049l1.225,0.707L17.917,39.618z M16.102,38.567l-1.146-0.66c0.012-0.009,0.017-0.022,0.026-0.033  c0.008-0.01,0.023-0.007,0.03-0.018c0.005-0.009,0-0.019,0.004-0.027c0.009-0.021,0.011-0.038,0.013-0.06l1.229,0.709L16.102,38.567  z M14.283,37.522l-1.146-0.663c0.014-0.011,0.019-0.027,0.029-0.04c0.008-0.01,0.024-0.007,0.031-0.018  c0.005-0.009,0-0.019,0.004-0.028c0.007-0.019,0.011-0.033,0.013-0.053l1.227,0.708L14.283,37.522z M12.467,36.47l-1.143-0.661  c0.012-0.009,0.018-0.022,0.027-0.033c0.008-0.01,0.024-0.007,0.03-0.018c0.005-0.008,0-0.018,0.004-0.026  c0.009-0.02,0.011-0.037,0.013-0.06l1.226,0.708L12.467,36.47z M10.651,35.423l-1.146-0.661c0.015-0.011,0.021-0.028,0.033-0.043  c0.008-0.01,0.024-0.006,0.03-0.018c0.005-0.009,0-0.018,0.003-0.026c0.007-0.018,0.01-0.032,0.012-0.051l1.222,0.705L10.651,35.423  z M8.837,34.373l-1.146-0.663c0.013-0.01,0.019-0.024,0.029-0.036c0.008-0.01,0.024-0.007,0.031-0.019  c0.004-0.009,0-0.018,0.003-0.026c0.007-0.019,0.009-0.034,0.011-0.054l1.227,0.708L8.837,34.373z M4.982,46.544  c0-0.002,0.002-0.003,0.002-0.005s-0.002-0.003-0.002-0.005v-1.681l0.03-0.504l1.048,0.605c0.025,0.015,0.052,0.019,0.079,0.021  c0.004,0.001,0.006,0.005,0.01,0.005c0.004,0.001,0.008,0.001,0.011,0.001c0.002,0,0.003-0.002,0.006-0.002l-0.043,0.745  c0,0.002,0.002,0.004,0.002,0.006s-0.002,0.004-0.002,0.006v1.504l-1.14-0.657V46.544z M6.799,47.587v-0.158v-1.53l0.028-0.495  l1.05,0.604c0.024,0.015,0.052,0.019,0.078,0.021c0.004,0,0.006,0.005,0.01,0.005c0.004,0.001,0.008,0.001,0.011,0.001  c0.001,0,0.001-0.001,0.002-0.001l-0.043,0.738c0,0.002,0.002,0.004,0.002,0.006s-0.002,0.004-0.002,0.006v1.51l-1.136-0.656V47.587  z M8.616,48.64v-0.164v-1.524l0.029-0.504l1.044,0.607c0.024,0.015,0.051,0.018,0.077,0.021c0.004,0.001,0.007,0.006,0.011,0.006  c0.004,0.001,0.008,0.001,0.012,0.001c0.002,0,0.003-0.002,0.006-0.002l-0.042,0.737c0,0.002,0.002,0.004,0.002,0.006  s-0.002,0.004-0.002,0.006v1.51l-1.137-0.654V48.64z M10.433,49.685v-0.156v-1.532l0.029-0.496l1.046,0.601  c0.024,0.014,0.051,0.018,0.078,0.021c0.004,0.001,0.006,0.005,0.01,0.005c0.004,0.001,0.008,0.001,0.012,0.001  c0.002,0,0.003-0.002,0.006-0.002l-0.043,0.745c0,0.002,0.002,0.004,0.002,0.006s-0.002,0.004-0.002,0.006v1.51l-1.137-0.654V49.685  z M12.246,50.738v-0.164v-1.53l0.029-0.5l1.049,0.609c0.025,0.015,0.052,0.019,0.079,0.021c0.004,0.001,0.006,0.005,0.01,0.005  c0.004,0.001,0.008,0.001,0.011,0.001c0.002,0,0.003-0.002,0.005-0.002l-0.042,0.735c0,0.002,0.002,0.004,0.002,0.006  s-0.002,0.004-0.002,0.006v1.514l-1.14-0.658V50.738z M11.134,60.292c0.003,0.026,0.015,0.045,0.028,0.067  c0.014,0.023,0.024,0.043,0.045,0.06c0.007,0.005,0.008,0.016,0.016,0.021l8.902,5.141l-0.015,0.014l-9.224-5.327l0.236-0.137v0.137  C11.124,60.277,11.133,60.283,11.134,60.292z M36.877,56.936C36.876,56.936,36.876,56.936,36.877,56.936  c-0.001,0-0.001-0.001-0.001-0.001l-0.178-0.101v-0.772c0-0.01-0.009-0.016-0.01-0.025c-0.002-0.018-0.006-0.031-0.013-0.048  c-0.003-0.009,0.001-0.018-0.003-0.026s-0.016-0.009-0.021-0.017c-0.011-0.015-0.021-0.024-0.036-0.036  c-0.007-0.005-0.008-0.016-0.016-0.021l-0.183-0.106v-0.509l1.428,0.825l-0.011,0.192c0,0.002,0.002,0.003,0.002,0.005  c0,0.002-0.002,0.004-0.002,0.006v1.187L36.877,56.936z M38.231,57.835v-1.531l0.016-0.275l1.05,0.604  c0.024,0.015,0.051,0.019,0.078,0.021c0.004,0,0.006,0.005,0.01,0.005c0.004,0.001,0.008,0.001,0.011,0.001  c0,0,0.001-0.001,0.001-0.001l-0.03,0.52c0,0.002,0.002,0.004,0.002,0.006s-0.002,0.004-0.002,0.006v1.502l-1.136-0.654V57.835z   M40.048,58.882v-1.53l0.016-0.278l1.05,0.604c0.024,0.015,0.052,0.019,0.078,0.021c0.004,0,0.006,0.005,0.01,0.005  c0.004,0.001,0.008,0.001,0.011,0.001c0.001,0,0.001-0.001,0.002-0.001l-0.03,0.52c0,0.002,0.002,0.004,0.002,0.006  s-0.002,0.004-0.002,0.006v1.51l-1.137-0.654V58.882z M41.865,59.929v-1.524l0.016-0.278l1.046,0.6  c0.024,0.014,0.051,0.018,0.077,0.021c0.004,0,0.006,0.005,0.01,0.005c0.004,0.001,0.008,0.001,0.012,0.001  c0.002,0,0.003-0.002,0.006-0.002l-0.03,0.526c0,0.002,0.002,0.004,0.002,0.006s-0.002,0.004-0.002,0.006v1.504l-1.137-0.656V59.929  z M43.684,60.982v-1.535l0,0l0.014-0.275l1.046,0.606c0.024,0.015,0.051,0.019,0.078,0.021c0.004,0,0.006,0.005,0.011,0.005  c0.004,0.001,0.008,0.001,0.012,0.001c0.001,0,0.003-0.002,0.004-0.002l-0.03,0.519c0,0.002,0.002,0.004,0.002,0.006  s-0.002,0.004-0.002,0.006v1.511l-1.134-0.655V60.982z M45.498,62.025V60.5l0,0l0.014-0.286l1.049,0.609  c0.025,0.015,0.052,0.019,0.079,0.021c0.004,0.001,0.006,0.005,0.01,0.005c0.004,0.001,0.008,0.001,0.011,0.001  c0,0,0.001-0.001,0.001-0.001l-0.03,0.518c0,0.002,0.002,0.004,0.002,0.006s-0.002,0.004-0.002,0.006v1.512l-1.134-0.658V62.025z   M47.314,63.078v-1.533l0,0l0.013-0.277l1.049,0.608c0.025,0.015,0.052,0.019,0.079,0.021c0.004,0.001,0.006,0.005,0.01,0.005  c0.004,0.001,0.008,0.001,0.011,0.001c0,0,0.001-0.001,0.001-0.001l-0.03,0.518c0,0.002,0.002,0.004,0.002,0.006  s-0.002,0.004-0.002,0.006v1.512l-1.134-0.658V63.078z M49.132,64.123v-1.533l0,0l0.013-0.274l1.045,0.605  c0.024,0.015,0.05,0.018,0.077,0.021c0.004,0.001,0.007,0.006,0.011,0.006c0.004,0.001,0.008,0.001,0.012,0.001  c0.002,0,0.003-0.002,0.005-0.002l-0.03,0.521c0,0.002,0.002,0.004,0.002,0.006s-0.002,0.004-0.002,0.006v1.509l-1.133-0.655V64.123  z M50.752,55.047l-1.042-0.609c-0.015-0.009-0.032-0.002-0.048-0.007c-0.015-0.004-0.025-0.019-0.042-0.02  c-0.004-0.001-0.008-0.001-0.012-0.001c-0.002,0-0.004,0.003-0.007,0.003l0.067-1.166l1.149,0.664L50.752,55.047z M51.643,62.59  l0.96,0.557c0.031,0.019,0.065,0.027,0.101,0.027c0.029,0,0.051-0.02,0.076-0.031v0.312l-1.137-0.656V62.59z M53.459,63.645  l0.957,0.555c0.031,0.019,0.065,0.027,0.1,0.027c0.031,0,0.055-0.021,0.08-0.033v0.313l-1.137-0.656V63.645z M55.273,64.69  l0.96,0.555c0.032,0.019,0.066,0.027,0.101,0.027c0.031,0,0.054-0.021,0.079-0.033v0.313l-1.14-0.657V64.69z M57.092,65.74  L57.092,65.74l0.959,0.551c0.031,0.018,0.064,0.026,0.1,0.026c0.029,0,0.05-0.02,0.075-0.031v0.318l-1.134-0.655V65.74z   M58.91,66.792l0.958,0.551c0.031,0.018,0.064,0.026,0.1,0.026c0.029,0,0.051-0.021,0.076-0.032v0.312l-1.134-0.655V66.792z   M60.727,67.839v-0.002l0.953,0.549c0.031,0.018,0.066,0.026,0.1,0.026c0.031,0,0.055-0.021,0.08-0.033v0.316l-1.133-0.657V67.839z   M62.543,68.89l0.954,0.549c0.031,0.018,0.065,0.026,0.1,0.026c0.031,0,0.054-0.021,0.079-0.033v0.316l-1.133-0.657V68.89z   M64.356,69.932l0.958,0.553c0.032,0.019,0.065,0.027,0.101,0.027c0.029,0,0.051-0.02,0.076-0.031v0.312l-1.135-0.657V69.932z   M66.174,70.985l0.957,0.553c0.031,0.019,0.065,0.027,0.1,0.027c0.029,0,0.051-0.02,0.076-0.031v0.312l-1.133-0.657V70.985z   M34.822,39.373l-3.096-1.785l6.305-3.643l2.276,1.319l0.816,0.474L34.822,39.373z M40.407,34.861l-2.276-1.319  c-0.008-0.005-0.018,0-0.026-0.004c-0.025-0.011-0.047-0.01-0.074-0.01s-0.049-0.001-0.074,0.01  c-0.009,0.004-0.019-0.001-0.027,0.004l-6.705,3.873c-0.008,0.005-0.009,0.016-0.016,0.021c-0.015,0.012-0.025,0.021-0.036,0.036  c-0.006,0.008-0.017,0.008-0.021,0.017s0,0.018-0.003,0.026c-0.007,0.017-0.011,0.03-0.013,0.048c-0.001,0.01-0.01,0.016-0.01,0.025  v0.533l-0.179,0.107c-0.008,0.005-0.008,0.015-0.016,0.021c-0.014,0.011-0.022,0.021-0.033,0.035  c-0.006,0.008-0.017,0.008-0.021,0.017s0,0.019-0.004,0.028c-0.007,0.017-0.011,0.03-0.013,0.048  c-0.001,0.009-0.01,0.015-0.01,0.023v1.932c0,0.01,0.009,0.016,0.011,0.025c0.003,0.026,0.015,0.045,0.028,0.067  c0.014,0.023,0.024,0.043,0.046,0.06c0.003,0.002,0.003,0.006,0.006,0.009c-0.004,0.003-0.005,0.009-0.009,0.012  c-0.014,0.011-0.022,0.021-0.033,0.035c-0.006,0.007-0.016,0.008-0.021,0.016c-0.005,0.009,0,0.02-0.004,0.028  c-0.007,0.018-0.011,0.03-0.014,0.049c-0.001,0.009-0.01,0.015-0.01,0.023v0.365l-4.69,2.713L6.722,32.511l18.736-10.822  l3.523,2.033l-6.586,3.804c-0.008,0.005-0.009,0.016-0.016,0.021c-0.015,0.012-0.024,0.021-0.036,0.036  c-0.006,0.008-0.017,0.008-0.021,0.017c-0.005,0.008,0,0.018-0.003,0.026c-0.007,0.017-0.011,0.03-0.013,0.048  c-0.002,0.01-0.011,0.016-0.011,0.025v0.354l-0.01,0.014l-1.846,1.07c-0.008,0.005-0.009,0.016-0.016,0.021  c-0.014,0.011-0.024,0.021-0.036,0.035c-0.006,0.008-0.016,0.008-0.021,0.017s0,0.018-0.003,0.027  c-0.007,0.016-0.011,0.029-0.013,0.047c-0.002,0.01-0.011,0.016-0.011,0.025v1.125c0,0.01,0.009,0.016,0.01,0.025  c0.003,0.025,0.015,0.044,0.028,0.067s0.024,0.043,0.045,0.06c0.007,0.005,0.008,0.016,0.016,0.021l8.942,5.168  c0.032,0.019,0.066,0.027,0.1,0.027s0.068-0.009,0.1-0.027l8.939-5.168c0.008-0.005,0.009-0.016,0.016-0.021  c0.021-0.017,0.032-0.036,0.045-0.06s0.025-0.042,0.028-0.067c0.001-0.01,0.01-0.016,0.01-0.025V29.31  c0-0.01-0.009-0.016-0.01-0.025c0-0.001,0-0.002,0-0.002l5.727,3.305L40.407,34.861z M22.552,28.382l6.73,3.883v1.217l-7.338-4.235  L22.552,28.382z M29.683,32.265l6.724-3.883l0.607,0.864l-7.331,4.234V32.265z M21.492,29.195c-0.002,0.003,0,0.007-0.002,0.01  c-0.001,0.003-0.006,0.003-0.007,0.006c-0.012,0.021-0.005,0.045-0.009,0.068c-0.004,0.025-0.015,0.049-0.009,0.074  s0.025,0.041,0.04,0.062c0.013,0.02,0.017,0.044,0.037,0.059c0.003,0.002,0.007,0.001,0.01,0.003  c0.002,0.002,0.002,0.005,0.004,0.006L29.383,34c0.032,0.019,0.066,0.027,0.1,0.027s0.068-0.009,0.1-0.027l7.82-4.518  c0.002-0.001,0.002-0.004,0.004-0.006c0.003-0.002,0.007-0.001,0.01-0.003c0.021-0.015,0.024-0.039,0.038-0.06  c0.015-0.021,0.034-0.037,0.04-0.062c0.005-0.024-0.006-0.047-0.01-0.073c-0.004-0.022,0.003-0.047-0.009-0.068  c-0.001-0.003-0.005-0.003-0.007-0.006s0-0.007-0.002-0.01l-0.245-0.349l0.801,0.464l-8.54,4.934l-8.543-4.934l0.796-0.462  L21.492,29.195z M20.741,29.657l8.542,4.933v0.667l-8.542-4.937V29.657z M29.683,34.589l8.539-4.933v0.663l-8.539,4.937V34.589z   M29.483,31.498l-6.588-3.799l6.586-3.804c0,0,0,0,0-0.001c0,0,0.001,0,0.001,0l0.001-0.001l6.58,3.806L29.483,31.498z   M44.739,32.357l-8.076-4.66c0-0.009-0.008-0.015-0.009-0.023c-0.002-0.018-0.006-0.031-0.013-0.048  c-0.003-0.009,0.001-0.018-0.003-0.026s-0.016-0.009-0.021-0.017c-0.011-0.015-0.021-0.024-0.036-0.036  c-0.007-0.005-0.008-0.016-0.016-0.021l-6.981-4.037c-0.008-0.005-0.018,0-0.027-0.004c-0.025-0.011-0.047-0.011-0.075-0.01  c-0.027,0-0.049,0-0.074,0.011c-0.009,0.004-0.019-0.001-0.027,0.004l-0.001,0.001l-3.721-2.147V21l19.379,11.188L44.739,32.357z   M25.258,21.343L6.323,32.281l-0.302-0.174L25.258,21V21.343z M5.283,34.979l-0.042,0.025c-0.003,0.002-0.003,0.007-0.007,0.009  c-0.018,0.014-0.029,0.027-0.042,0.046c-0.006,0.008-0.017,0.008-0.021,0.017c-0.005,0.01,0,0.02-0.004,0.029  c-0.006,0.015-0.012,0.025-0.014,0.041c-0.001,0.007-0.008,0.011-0.008,0.018l-0.021,0.37v-2.749l0.159-0.092V34.979z M6.223,47.761  c0.031,0.018,0.065,0.026,0.1,0.026c0.028,0,0.055-0.009,0.082-0.021c0,0.005,0.004,0.008,0.005,0.013  c0.003,0.026,0.015,0.045,0.028,0.067c0.014,0.023,0.024,0.043,0.045,0.06c0.007,0.005,0.008,0.016,0.016,0.021l1.537,0.887  c0.032,0.019,0.066,0.027,0.1,0.027c0.029,0,0.059-0.01,0.087-0.023c0,0.003,0.003,0.006,0.003,0.009  c0.004,0.026,0.015,0.044,0.028,0.066c0.013,0.024,0.024,0.044,0.046,0.061c0.007,0.006,0.008,0.016,0.016,0.021l1.537,0.885  c0.031,0.019,0.065,0.027,0.1,0.027c0.029,0,0.056-0.011,0.083-0.023c0,0.007,0.006,0.011,0.007,0.017  c0.003,0.026,0.015,0.044,0.027,0.066c0.014,0.024,0.025,0.044,0.047,0.061c0.007,0.006,0.007,0.016,0.016,0.021l1.537,0.885  c0.031,0.019,0.065,0.027,0.1,0.027c0.028,0,0.057-0.011,0.083-0.023c0,0.003,0.002,0.004,0.002,0.007  c0.003,0.026,0.015,0.045,0.028,0.067c0.014,0.023,0.024,0.043,0.045,0.06c0.007,0.005,0.008,0.016,0.016,0.021l1.541,0.889  c0.032,0.019,0.066,0.027,0.1,0.027c0.029,0,0.058-0.011,0.085-0.024c0,0.002,0.001,0.002,0.001,0.004  c0.003,0.025,0.016,0.044,0.028,0.067c0.003,0.006,0.004,0.012,0.007,0.018l-1.199,0.688c-0.009,0.005-0.009,0.016-0.017,0.021  c-0.015,0.012-0.025,0.021-0.036,0.036c-0.006,0.008-0.016,0.008-0.021,0.017c-0.005,0.008,0,0.018-0.003,0.026  c-0.007,0.017-0.011,0.03-0.013,0.048c-0.001,0.01-0.011,0.016-0.011,0.025v0.531l-0.462,0.267  c-0.008,0.005-0.009,0.015-0.016,0.021c-0.015,0.012-0.025,0.021-0.036,0.036c-0.006,0.008-0.017,0.008-0.021,0.017  s0,0.018-0.003,0.026c-0.007,0.017-0.01,0.03-0.013,0.048c-0.001,0.01-0.01,0.016-0.01,0.025v0.458l-6.863-3.964v-3.33L6.223,47.761  z M6.945,60.773c0.003,0.025,0.015,0.044,0.028,0.067s0.024,0.043,0.045,0.06c0.007,0.005,0.008,0.016,0.016,0.021l11.064,6.393  c0,0.002,0.001,0.004,0,0.007c0,0.004-0.004,0.006-0.004,0.01L6.698,60.748l0.237-0.137v0.137  C6.935,60.757,6.944,60.763,6.945,60.773z M34.05,68.269l6.08-3.508l0.016,0.01l-6.096,3.518V68.269z M34.042,67.57  c0-0.002-0.002-0.003-0.003-0.006c0-0.005,0.003-0.01,0.002-0.015l5.666-3.277l0.027,0.016L34.042,67.57z M33.502,67.157  l-0.368-0.215l-0.636-0.646l5.56-3.212l1.25,0.718L33.502,67.157z M32.054,65.844l-0.034-0.036l5.592-3.23l0.046,0.027  L32.054,65.844z M68.768,73.496l-17.92-10.349c-0.052-0.031-0.11-0.03-0.163-0.013l0.532-9.213l0.025-0.014v9.006  c0,0.01,0.009,0.016,0.011,0.025c0.003,0.026,0.015,0.045,0.028,0.067c0.014,0.023,0.023,0.043,0.045,0.06  c0.008,0.005,0.008,0.016,0.016,0.021l1.535,0.886l0,0l0.279,0.166c0.001,0,0.002,0,0.002,0c0,0.001,0,0.001,0,0.001l1.537,0.887  c0.001,0,0.001,0.001,0.002,0.001l0.275,0.158c0.001,0.001,0.002,0,0.003,0.001l1.538,0.886c0,0,0,0,0.001,0l0.275,0.164  c0.001,0,0.001,0,0.001,0c0.001,0.001,0.001,0.001,0.001,0.001l1.534,0.887c0,0,0,0,0.001,0c0.001,0.001,0,0.002,0.001,0.002  l0.283,0.158c0,0,0.001,0,0.002,0l1.529,0.885c0.001,0,0.001,0,0.002,0c0,0.001,0,0.002,0.001,0.002l0.282,0.158  c0.001,0,0.002,0,0.002,0l1.529,0.886c0,0.001,0,0.001,0,0.001l0.283,0.164c0,0,0,0,0.001,0l1.533,0.889c0.001,0,0.001,0,0.001,0  c0.001,0.001,0.001,0.002,0.002,0.002l0.279,0.156h0.001l1.53,0.887l0.283,0.164l1.533,0.889c0.001,0,0.001,0,0.002,0  c0,0.001,0,0.002,0.001,0.002l0.181,0.101v0.205c0,0.01,0.009,0.016,0.01,0.024c0.004,0.026,0.016,0.045,0.029,0.068  c0.013,0.023,0.023,0.043,0.044,0.059c0.007,0.006,0.008,0.017,0.017,0.021l0.693,0.406c0.032,0.019,0.066,0.027,0.102,0.027  c0.034,0,0.068-0.009,0.1-0.027l28.122-16.238l0.301,0.176L68.768,73.496z M4.426,32.611l0.298,0.174v9.642l-0.141,2.413  c0,0.002,0.002,0.004,0.002,0.006s-0.002,0.004-0.002,0.006v1.346l-0.156-0.092V32.611z M4.706,51.002l10.947,6.32  c-0.017,0.003-0.03,0.007-0.046,0.014c-0.009,0.004-0.019-0.001-0.027,0.004l-0.107,0.062l-0.111-0.063  c-0.008-0.005-0.019,0-0.028-0.004c-0.024-0.01-0.046-0.009-0.072-0.009s-0.047-0.001-0.072,0.009  c-0.009,0.004-0.019-0.001-0.028,0.004l-0.111,0.063l-1.364-0.793c-0.009-0.005-0.019,0-0.028-0.004  c-0.024-0.01-0.046-0.01-0.072-0.01s-0.048-0.001-0.072,0.009c-0.009,0.004-0.019-0.001-0.027,0.004l-0.11,0.063l-0.107-0.062  c-0.009-0.005-0.019,0-0.028-0.004c-0.024-0.01-0.046-0.01-0.072-0.01s-0.048-0.001-0.071,0.009c-0.01,0.004-0.02-0.001-0.028,0.004  l-0.111,0.063l-0.111-0.063c-0.009-0.005-0.019,0-0.028-0.004c-0.024-0.01-0.045-0.009-0.071-0.009  c-0.026,0-0.048-0.001-0.072,0.009c-0.009,0.004-0.019-0.001-0.028,0.004l-0.111,0.064L4.706,52.15V51.002z M6.109,61.019  c0.003,0.026,0.015,0.045,0.028,0.067c0.014,0.023,0.024,0.043,0.045,0.06c0.007,0.005,0.008,0.016,0.016,0.021l11.889,6.86v0.028  L5.858,60.994l0.24-0.139v0.139C6.098,61.003,6.107,61.009,6.109,61.019z M18.771,67.63l0.74-0.431  c0.009-0.005,0.009-0.016,0.017-0.021s0.018-0.004,0.025-0.011l1.674-1.692c0,0,0,0,0-0.001h0c0.008-0.009,0.006-0.021,0.013-0.031  c0.004-0.006,0.015-0.004,0.019-0.011c0.009-0.016,0.002-0.033,0.006-0.05c0.005-0.018,0.02-0.03,0.02-0.049v-0.605l0.321-0.188  v2.282l-2.835,1.635V67.63z M22.006,64.391l7.733,0.01v2.342l-7.733-0.006V64.391z M30.14,64.547l0.743,0.429v0.613  c0,0.02,0.015,0.031,0.021,0.049c0.004,0.018-0.002,0.035,0.007,0.052c0.004,0.007,0.014,0.005,0.018,0.011  c0.007,0.009,0.004,0.021,0.012,0.029l1.651,1.678c0.007,0.007,0.018,0.005,0.026,0.011s0.008,0.018,0.017,0.022l0.738,0.425v0.83  l-3.233-1.868V64.547z M40.735,64.746c-0.002-0.018-0.006-0.031-0.013-0.047c-0.004-0.009,0.001-0.019-0.004-0.027  s-0.016-0.009-0.021-0.017c-0.011-0.015-0.021-0.024-0.036-0.036c-0.007-0.006-0.007-0.016-0.016-0.021l-0.314-0.183v-0.125  c0-0.01-0.009-0.015-0.01-0.024c-0.002-0.018-0.007-0.031-0.014-0.048c-0.003-0.009,0.002-0.019-0.003-0.027  c-0.005-0.009-0.015-0.009-0.021-0.017c-0.011-0.014-0.021-0.024-0.035-0.035c-0.007-0.006-0.007-0.016-0.015-0.021l-0.323-0.191  V63.8c0-0.01-0.009-0.016-0.011-0.025c-0.002-0.018-0.006-0.031-0.013-0.048c-0.003-0.009,0.001-0.019-0.003-0.026  c-0.005-0.009-0.016-0.009-0.021-0.017c-0.012-0.015-0.021-0.024-0.036-0.036c-0.007-0.006-0.008-0.017-0.017-0.021l-1.551-0.89  v-0.132c0-0.01-0.009-0.016-0.01-0.025c-0.002-0.018-0.006-0.031-0.013-0.048c-0.003-0.009,0.001-0.018-0.003-0.026  s-0.016-0.009-0.021-0.017c-0.012-0.015-0.021-0.024-0.036-0.036c-0.007-0.005-0.008-0.016-0.016-0.021l-0.346-0.2v-0.125  c0-0.01-0.009-0.016-0.01-0.025c-0.002-0.017-0.004-0.029-0.01-0.045l31.194,18.01v1.154L40.745,64.896v-0.125  C40.745,64.761,40.736,64.755,40.735,64.746z M69.386,80.046l27.536-15.899V65.3L69.386,81.2V80.046z M69.186,79.701l-32.424-18.72  l0.015-0.009l32.309,18.649c0.031,0.019,0.065,0.027,0.1,0.027s0.068-0.009,0.1-0.027l27.422-15.831l0.016,0.01L69.186,79.701z   M96.507,63.445L69.386,79.103v-3.652l27.121-15.658V63.445z M96.606,59.274L96.606,59.274L69.088,75.162c-0.001,0-0.002,0-0.002,0  l-0.118,0.068v-1.389l28.237-16.304v1.386L96.606,59.274z"/><path fill="#000000" d="M84.06,62.855c0.004,0.007,0.015,0.005,0.019,0.011c0.037,0.052,0.088,0.09,0.154,0.09  c0.035,0,0.068-0.009,0.101-0.027l0.978-0.564c0.008-0.005,0.009-0.016,0.016-0.021c0.009-0.007,0.02-0.007,0.027-0.014  c0.001-0.001,0.002-0.001,0.004-0.002c0.012-0.013,0.009-0.031,0.017-0.047c0.013-0.021,0.022-0.04,0.026-0.064  c0.001-0.01,0.01-0.016,0.01-0.025v-3.068c0-0.02-0.015-0.031-0.02-0.049s0.002-0.035-0.008-0.052  c-0.004-0.008-0.015-0.009-0.021-0.016c-0.017-0.022-0.037-0.032-0.061-0.046c-0.022-0.013-0.041-0.024-0.067-0.028  c-0.009-0.001-0.015-0.01-0.023-0.01c-0.02,0-0.031,0.016-0.049,0.021c-0.018,0.004-0.036-0.003-0.053,0.007l-0.694,0.406  c0,0,0,0.001-0.001,0.001l-0.279,0.158c-0.01,0.005-0.01,0.016-0.018,0.021c-0.021,0.016-0.031,0.035-0.045,0.059  c-0.014,0.022-0.025,0.041-0.029,0.068c-0.001,0.01-0.01,0.016-0.01,0.025v2.014v1.053c0,0.019,0.015,0.031,0.02,0.049  C84.057,62.821,84.051,62.839,84.06,62.855z M84.434,61.82l0.053-0.029l0.391,0.362l-0.443,0.256V61.82z M85.01,61.731l-0.293-0.273  v-1.813l0.293-0.172V61.731z"/><path fill="#000000" d="M93.114,52.951c0.004,0.007,0.015,0.005,0.02,0.011c0.036,0.052,0.087,0.09,0.154,0.09  c0.033,0,0.068-0.009,0.1-0.026l0.977-0.562c0.01-0.005,0.01-0.016,0.018-0.021c0.008-0.007,0.02-0.008,0.026-0.016  c0.001,0,0.003,0,0.003-0.001c0.012-0.013,0.01-0.03,0.018-0.045c0.012-0.022,0.022-0.04,0.025-0.065  c0.002-0.01,0.012-0.016,0.012-0.025V49.22c0-0.02-0.016-0.031-0.021-0.049c-0.004-0.018,0.003-0.035-0.006-0.052  c-0.006-0.008-0.016-0.009-0.021-0.016c-0.017-0.022-0.037-0.032-0.061-0.046c-0.022-0.013-0.041-0.024-0.066-0.027  c-0.009-0.002-0.016-0.011-0.025-0.011c-0.019,0-0.031,0.016-0.049,0.021s-0.035-0.003-0.051,0.007l-0.695,0.403h-0.001l-0.28,0.16  c-0.009,0.005-0.01,0.016-0.017,0.021c-0.021,0.017-0.032,0.035-0.046,0.059c-0.013,0.023-0.024,0.042-0.028,0.068  c-0.001,0.01-0.011,0.016-0.011,0.025v2.014v1.053c0,0.02,0.016,0.031,0.021,0.049C93.112,52.917,93.104,52.935,93.114,52.951z   M93.487,51.915l0.051-0.028l0.393,0.364l-0.443,0.254V51.915z M94.065,51.83l-0.297-0.276V49.74l0.297-0.173V51.83z"/><path fill="#000000" d="M82.247,63.9c0.005,0.007,0.015,0.005,0.02,0.011C82.302,63.962,82.353,64,82.42,64  c0.034,0,0.068-0.009,0.1-0.026l0.978-0.562c0.009-0.005,0.009-0.016,0.017-0.021c0.009-0.007,0.02-0.008,0.027-0.016  c0,0,0.002,0,0.003-0.001c0.012-0.013,0.009-0.03,0.017-0.045c0.013-0.022,0.023-0.04,0.026-0.065  c0.001-0.01,0.011-0.016,0.011-0.025v-3.068c0-0.02-0.016-0.031-0.021-0.049s0.003-0.035-0.007-0.052  c-0.005-0.008-0.016-0.009-0.021-0.016c-0.016-0.021-0.035-0.032-0.059-0.046c-0.023-0.013-0.041-0.024-0.067-0.027  c-0.01-0.002-0.016-0.011-0.025-0.011c-0.02,0-0.032,0.016-0.05,0.021c-0.017,0.005-0.035-0.002-0.051,0.007L82.6,60.401  c-0.001,0-0.001,0.001-0.001,0.001c-0.001,0-0.002,0-0.003,0l-0.279,0.168c-0.008,0.005-0.008,0.016-0.015,0.021  c-0.021,0.017-0.03,0.037-0.044,0.06c-0.014,0.023-0.025,0.042-0.028,0.068c-0.001,0.009-0.01,0.015-0.01,0.023v2.014V63.8  c0,0.02,0.015,0.031,0.021,0.049C82.245,63.866,82.238,63.884,82.247,63.9z M82.621,62.869l0.053-0.031l0.39,0.362l-0.442,0.254  V62.869z M83.198,62.779L82.9,62.502v-1.813l0.298-0.173V62.779z"/><path fill="#000000" d="M89.375,59.79c0.005,0.007,0.015,0.005,0.02,0.011c0.036,0.051,0.087,0.089,0.154,0.089  c0.033,0,0.068-0.009,0.1-0.027l0.978-0.566c0.009-0.005,0.009-0.015,0.016-0.021c0.009-0.007,0.021-0.007,0.027-0.015  c0.001-0.001,0.003-0.001,0.004-0.002c0.012-0.013,0.009-0.031,0.017-0.046c0.013-0.022,0.023-0.04,0.026-0.064  c0.001-0.01,0.011-0.016,0.011-0.025v-3.066c0-0.019-0.016-0.031-0.021-0.049c-0.005-0.017,0.003-0.035-0.007-0.051  c-0.005-0.009-0.016-0.009-0.021-0.017c-0.016-0.021-0.035-0.032-0.059-0.046c-0.023-0.013-0.042-0.024-0.068-0.027  c-0.01-0.002-0.016-0.011-0.025-0.011c-0.019,0-0.031,0.016-0.049,0.021s-0.035-0.002-0.051,0.007l-0.701,0.404l-0.276,0.16  c-0.009,0.005-0.009,0.015-0.016,0.021c-0.022,0.017-0.032,0.037-0.046,0.061c-0.014,0.022-0.025,0.041-0.028,0.066  c-0.001,0.01-0.011,0.016-0.011,0.025v2.021v1.047c0,0.02,0.016,0.031,0.021,0.049C89.374,59.755,89.367,59.773,89.375,59.79z   M89.749,58.755l0.051-0.03l0.392,0.361l-0.442,0.256V58.755z M90.327,58.666l-0.301-0.277v-1.812l0.301-0.174V58.666z"/><path fill="#000000" d="M94.93,56.576c0.005,0.007,0.015,0.005,0.02,0.011c0.036,0.052,0.087,0.09,0.154,0.09  c0.034,0,0.068-0.009,0.1-0.027l0.979-0.564c0.008-0.005,0.008-0.016,0.016-0.021c0.009-0.007,0.02-0.008,0.027-0.015  c0.001-0.001,0.002-0.001,0.004-0.002c0.012-0.013,0.008-0.03,0.016-0.045c0.013-0.022,0.023-0.04,0.026-0.065  c0.002-0.01,0.011-0.016,0.011-0.025v-3.061c0-0.02-0.016-0.031-0.021-0.049c-0.004-0.017,0.003-0.035-0.007-0.051  c-0.004-0.009-0.016-0.009-0.021-0.017c-0.017-0.021-0.036-0.032-0.061-0.046c-0.022-0.013-0.04-0.023-0.065-0.027  c-0.01-0.001-0.016-0.011-0.026-0.011c-0.019,0-0.031,0.016-0.049,0.021c-0.017,0.004-0.034-0.003-0.051,0.006l-0.698,0.4v0.001  h-0.001l-0.28,0.164c-0.008,0.005-0.008,0.016-0.016,0.021c-0.021,0.016-0.031,0.036-0.045,0.06  c-0.013,0.022-0.024,0.041-0.027,0.067c-0.002,0.009-0.011,0.015-0.011,0.024v2.014v1.047c0,0.019,0.015,0.031,0.021,0.049  C94.928,56.542,94.921,56.56,94.93,56.576z M95.304,55.544l0.052-0.03l0.391,0.36l-0.442,0.255V55.544z M95.881,55.455l-0.297-0.274  v-1.812l0.297-0.171V55.455z"/><path fill="#000000" d="M82.247,59.222c0.005,0.007,0.015,0.005,0.02,0.011c0.036,0.052,0.087,0.09,0.154,0.09  c0.034,0,0.068-0.009,0.1-0.027l0.979-0.564c0.008-0.005,0.008-0.016,0.016-0.021c0.009-0.007,0.02-0.008,0.027-0.015  c0.001-0.001,0.002-0.001,0.004-0.002c0.012-0.013,0.008-0.03,0.016-0.045c0.013-0.022,0.023-0.04,0.026-0.065  c0.002-0.01,0.011-0.016,0.011-0.025V55.49c0-0.02-0.016-0.031-0.021-0.049s0.003-0.035-0.007-0.052  c-0.005-0.009-0.016-0.009-0.021-0.016c-0.016-0.021-0.035-0.032-0.06-0.046c-0.022-0.013-0.042-0.025-0.067-0.028  c-0.01-0.001-0.016-0.01-0.024-0.01c-0.019,0-0.031,0.015-0.048,0.021c-0.018,0.004-0.037-0.003-0.053,0.007l-0.699,0.408v0.001  l-0.276,0.156c-0.009,0.005-0.009,0.016-0.017,0.021c-0.021,0.017-0.033,0.036-0.047,0.06c-0.013,0.022-0.023,0.041-0.027,0.066  c-0.002,0.01-0.011,0.017-0.011,0.026v2.021v1.045c0,0.019,0.015,0.031,0.021,0.049C82.245,59.188,82.238,59.207,82.247,59.222z   M82.621,58.192l0.053-0.03l0.39,0.359l-0.442,0.255V58.192z M83.198,58.101L82.9,57.827v-1.813l0.298-0.175V58.101z"/><path fill="#000000" d="M91.3,53.996c0.004,0.007,0.015,0.005,0.019,0.011c0.037,0.052,0.088,0.09,0.154,0.09  c0.035,0,0.068-0.009,0.1-0.026l0.979-0.562c0.008-0.005,0.009-0.016,0.017-0.021c0.009-0.007,0.019-0.008,0.026-0.015  c0.001-0.001,0.003-0.001,0.004-0.002c0.012-0.013,0.009-0.03,0.017-0.045c0.013-0.022,0.022-0.04,0.026-0.065  c0.001-0.01,0.01-0.016,0.01-0.025v-3.068c0-0.02-0.015-0.031-0.02-0.049s0.002-0.035-0.008-0.052  c-0.004-0.008-0.015-0.009-0.021-0.016c-0.017-0.021-0.036-0.032-0.06-0.046c-0.023-0.013-0.041-0.024-0.066-0.027  c-0.01-0.002-0.016-0.011-0.025-0.011c-0.02,0-0.032,0.016-0.05,0.021c-0.017,0.005-0.035-0.003-0.051,0.007l-0.7,0.406  c0,0,0,0-0.001,0l-0.274,0.155c-0.009,0.005-0.01,0.016-0.017,0.021c-0.022,0.016-0.033,0.035-0.047,0.059  c-0.013,0.023-0.024,0.042-0.028,0.067c-0.001,0.01-0.01,0.017-0.01,0.026v2.023v1.045c0,0.02,0.015,0.031,0.02,0.049  C91.298,53.961,91.292,53.98,91.3,53.996z M91.674,52.964l0.05-0.029l0.391,0.361l-0.44,0.253V52.964z M92.25,52.876l-0.3-0.277  v-1.812l0.3-0.175V52.876z"/><path fill="#000000" d="M85.877,61.802c0.004,0.007,0.015,0.005,0.02,0.011c0.036,0.052,0.087,0.09,0.154,0.09  c0.033,0,0.068-0.009,0.1-0.027l0.978-0.564c0.009-0.005,0.009-0.016,0.017-0.021c0.008-0.007,0.02-0.007,0.026-0.014  c0.001-0.001,0.003-0.001,0.003-0.002c0.013-0.013,0.01-0.031,0.018-0.047c0.013-0.021,0.023-0.04,0.026-0.064  c0.001-0.01,0.011-0.016,0.011-0.025v-3.061c0-0.02-0.016-0.031-0.021-0.049c-0.005-0.017,0.003-0.035-0.007-0.051  c-0.005-0.009-0.016-0.009-0.021-0.017c-0.016-0.021-0.035-0.032-0.06-0.046c-0.022-0.013-0.04-0.023-0.066-0.027  c-0.01-0.002-0.016-0.011-0.026-0.011c-0.019,0-0.03,0.015-0.048,0.02c-0.017,0.005-0.035-0.002-0.052,0.007l-0.694,0.398  c-0.001,0,0,0.001-0.001,0.001l0,0l-0.283,0.166c-0.008,0.005-0.009,0.016-0.016,0.021c-0.021,0.016-0.032,0.036-0.045,0.06  c-0.014,0.022-0.025,0.041-0.028,0.067c-0.001,0.009-0.011,0.015-0.011,0.024v2.016v1.045c0,0.019,0.016,0.031,0.021,0.049  C85.875,61.768,85.868,61.787,85.877,61.802z M86.25,60.772l0.056-0.032l0.388,0.36l-0.443,0.256V60.772z M86.829,60.678  l-0.295-0.273v-1.812l0.295-0.169V60.678z"/><path fill="#000000" d="M91.3,58.675c0.004,0.007,0.015,0.005,0.019,0.011c0.037,0.052,0.088,0.09,0.154,0.09  c0.035,0,0.068-0.009,0.101-0.027l0.978-0.564c0.008-0.005,0.009-0.016,0.016-0.021c0.009-0.007,0.02-0.008,0.027-0.015  c0.001-0.001,0.003-0.001,0.004-0.002c0.012-0.013,0.009-0.03,0.017-0.045c0.013-0.022,0.022-0.04,0.026-0.065  c0.001-0.01,0.01-0.016,0.01-0.025v-3.062c0-0.019-0.015-0.03-0.02-0.048c-0.004-0.018,0.003-0.035-0.006-0.052  c-0.006-0.009-0.017-0.01-0.022-0.017c-0.017-0.021-0.035-0.032-0.059-0.045c-0.022-0.014-0.041-0.024-0.067-0.028  c-0.01-0.002-0.016-0.011-0.025-0.011c-0.02,0-0.031,0.015-0.049,0.021c-0.018,0.004-0.035-0.003-0.051,0.006l-0.701,0.4  c0,0,0,0.001-0.001,0.002c-0.001,0-0.001,0-0.001,0l-0.277,0.164c-0.008,0.005-0.008,0.015-0.016,0.021  c-0.021,0.017-0.031,0.036-0.045,0.06c-0.013,0.022-0.024,0.041-0.027,0.067c-0.002,0.009-0.01,0.015-0.01,0.024v2.016v1.047  c0,0.019,0.015,0.031,0.02,0.049C91.297,58.641,91.292,58.66,91.3,58.675z M91.674,57.642l0.051-0.03l0.392,0.362l-0.442,0.255  V57.642z M92.25,57.554l-0.3-0.278v-1.811l0.3-0.172V57.554z"/><path fill="#000000" d="M84.06,58.177c0.004,0.007,0.015,0.005,0.019,0.011c0.037,0.052,0.088,0.09,0.154,0.09  c0.035,0,0.068-0.009,0.101-0.027l0.978-0.564c0.008-0.005,0.009-0.016,0.016-0.021c0.009-0.007,0.02-0.007,0.027-0.014  c0.001-0.001,0.002-0.001,0.004-0.002c0.012-0.013,0.009-0.031,0.017-0.047c0.013-0.021,0.022-0.04,0.026-0.064  c0.001-0.01,0.01-0.016,0.01-0.025v-3.066c0-0.02-0.015-0.031-0.02-0.049s0.002-0.035-0.008-0.052  c-0.004-0.008-0.015-0.009-0.021-0.016c-0.017-0.022-0.037-0.032-0.061-0.046c-0.022-0.013-0.041-0.024-0.067-0.028  c-0.009-0.001-0.015-0.01-0.023-0.01c-0.02,0-0.031,0.016-0.049,0.021c-0.018,0.004-0.036-0.003-0.053,0.007l-0.694,0.406  c0,0,0,0.001-0.001,0.001l-0.277,0.153c-0.01,0.005-0.01,0.017-0.018,0.022c-0.022,0.016-0.033,0.034-0.047,0.058  s-0.025,0.042-0.028,0.067c-0.002,0.011-0.011,0.017-0.011,0.027v2.016v1.053c0,0.019,0.015,0.031,0.02,0.049  C84.057,58.143,84.051,58.162,84.06,58.177z M84.434,57.142l0.053-0.029l0.391,0.362l-0.443,0.256V57.142z M85.01,57.053  l-0.293-0.273v-1.812l0.293-0.172V57.053z"/><path fill="#000000" d="M94.93,51.898c0.005,0.007,0.015,0.005,0.02,0.011c0.036,0.052,0.087,0.09,0.154,0.09  c0.034,0,0.068-0.009,0.1-0.026l0.978-0.562c0.009-0.005,0.009-0.016,0.017-0.021c0.009-0.007,0.02-0.008,0.027-0.016  c0,0,0.002,0,0.003-0.001c0.012-0.013,0.009-0.03,0.017-0.045c0.013-0.022,0.023-0.04,0.026-0.065  c0.001-0.01,0.011-0.016,0.011-0.025v-3.061c0-0.019-0.016-0.031-0.02-0.049c-0.005-0.017,0.002-0.034-0.007-0.05  c-0.005-0.009-0.016-0.009-0.021-0.017c-0.017-0.021-0.036-0.033-0.06-0.047c-0.022-0.013-0.041-0.023-0.066-0.027  c-0.01-0.001-0.016-0.011-0.026-0.011c-0.019,0-0.031,0.016-0.049,0.021c-0.017,0.004-0.034-0.003-0.05,0.006l-0.697,0.396  c-0.001,0-0.001,0.001-0.002,0.002c-0.001,0-0.002-0.001-0.003,0L95,48.568c-0.008,0.005-0.008,0.015-0.015,0.021  c-0.021,0.017-0.03,0.036-0.044,0.06c-0.013,0.022-0.025,0.042-0.028,0.068c-0.001,0.009-0.01,0.015-0.01,0.023v2.016v1.043  c0,0.02,0.015,0.031,0.021,0.049C94.928,51.864,94.921,51.882,94.93,51.898z M95.304,50.869l0.054-0.032l0.389,0.361l-0.442,0.254  V50.869z M95.881,50.777L95.584,50.5v-1.812l0.297-0.169V50.777z"/><path fill="#000000" d="M93.114,57.628c0.004,0.007,0.015,0.005,0.02,0.011c0.036,0.052,0.087,0.09,0.154,0.09  c0.033,0,0.068-0.009,0.1-0.027l0.978-0.564c0.009-0.005,0.009-0.016,0.017-0.021c0.008-0.007,0.02-0.008,0.026-0.015  c0.001-0.001,0.003-0.001,0.004-0.002c0.012-0.013,0.009-0.03,0.017-0.045c0.013-0.022,0.023-0.04,0.026-0.065  c0.001-0.01,0.011-0.016,0.011-0.025v-3.068c0-0.02-0.016-0.032-0.021-0.05c-0.004-0.018,0.002-0.035-0.007-0.051  c-0.005-0.008-0.015-0.009-0.021-0.016c-0.016-0.021-0.036-0.032-0.06-0.046s-0.042-0.025-0.069-0.028  c-0.008-0.001-0.014-0.01-0.023-0.01c-0.018,0-0.03,0.015-0.047,0.02c-0.019,0.005-0.037-0.002-0.054,0.008l-0.697,0.408l0,0  l-0.276,0.154c-0.009,0.005-0.01,0.017-0.018,0.022c-0.021,0.016-0.033,0.035-0.047,0.059c-0.013,0.022-0.023,0.041-0.027,0.067  c-0.002,0.01-0.012,0.016-0.012,0.026v2.016v1.053c0,0.019,0.016,0.031,0.021,0.049C93.112,57.594,93.104,57.613,93.114,57.628z   M93.487,56.593l0.052-0.028l0.392,0.362l-0.443,0.255V56.593z M94.065,56.507l-0.297-0.274v-1.813l0.297-0.174V56.507z"/><path fill="#000000" d="M89.375,55.109c0.004,0.007,0.015,0.005,0.02,0.011c0.036,0.052,0.087,0.09,0.154,0.09  c0.033,0,0.068-0.009,0.1-0.026l0.977-0.562c0.01-0.005,0.01-0.016,0.018-0.021c0.008-0.007,0.02-0.008,0.026-0.015  c0.001-0.001,0.003-0.001,0.004-0.002c0.012-0.013,0.009-0.03,0.017-0.045c0.012-0.022,0.022-0.04,0.025-0.065  c0.002-0.01,0.012-0.016,0.012-0.025v-3.068c0-0.02-0.016-0.031-0.021-0.049c-0.004-0.018,0.003-0.035-0.006-0.052  c-0.006-0.008-0.016-0.009-0.021-0.016c-0.017-0.021-0.036-0.032-0.06-0.046c-0.022-0.013-0.041-0.024-0.067-0.027  c-0.009-0.002-0.016-0.011-0.025-0.011c-0.019,0-0.031,0.016-0.049,0.021s-0.035-0.002-0.051,0.007l-0.699,0.405l0,0l-0.277,0.156  c-0.008,0.005-0.009,0.016-0.017,0.021c-0.021,0.016-0.032,0.035-0.046,0.059c-0.013,0.022-0.024,0.041-0.027,0.068  c-0.002,0.01-0.012,0.016-0.012,0.025v2.016v1.053c0,0.02,0.016,0.031,0.021,0.049C89.374,55.075,89.366,55.093,89.375,55.109z   M89.749,54.073l0.048-0.026l0.394,0.363l-0.441,0.253V54.073z M90.327,53.99l-0.301-0.277V51.9l0.301-0.175V53.99z"/><path fill="#000000" d="M87.559,56.157c0.005,0.007,0.015,0.005,0.02,0.011c0.036,0.051,0.087,0.089,0.154,0.089  c0.033,0,0.068-0.009,0.1-0.027l0.978-0.566c0.009-0.005,0.009-0.015,0.016-0.021c0.009-0.007,0.021-0.007,0.027-0.015  c0.001-0.001,0.003-0.001,0.005-0.002c0.012-0.014,0.009-0.032,0.017-0.047c0.012-0.022,0.022-0.039,0.025-0.063  c0.001-0.01,0.011-0.016,0.011-0.025v-3.059c0-0.019-0.016-0.031-0.021-0.049c-0.005-0.017,0.003-0.034-0.007-0.05  c-0.004-0.009-0.016-0.009-0.021-0.017c-0.016-0.021-0.035-0.033-0.059-0.047c-0.023-0.013-0.041-0.023-0.066-0.027  c-0.011-0.001-0.017-0.011-0.027-0.011c-0.019,0-0.031,0.016-0.048,0.021c-0.017,0.004-0.034-0.003-0.05,0.006l-0.702,0.398  c-0.001,0-0.001,0.001-0.001,0.002c-0.001,0-0.002,0-0.002,0l-0.276,0.164c-0.008,0.005-0.009,0.015-0.015,0.021  c-0.021,0.017-0.032,0.036-0.045,0.06c-0.014,0.023-0.025,0.042-0.028,0.067c-0.001,0.01-0.011,0.015-0.011,0.024v2.016v1.047  c0,0.02,0.016,0.031,0.021,0.049C87.557,56.123,87.55,56.14,87.559,56.157z M87.932,55.123l0.051-0.029l0.392,0.36l-0.442,0.256  V55.123z M88.51,55.034l-0.302-0.276v-1.812l0.302-0.171V55.034z"/><text x="0" y="115" fill="#000000" font-size="5px" font-weight="bold" font-family="'Helvetica Neue', Helvetica, Arial-Unicode, Arial, Sans-serif">Created by Lluisa Iborra</text><text x="0" y="120" fill="#000000" font-size="5px" font-weight="bold" font-family="'Helvetica Neue', Helvetica, Arial-Unicode, Arial, Sans-serif">from the Noun Project</text></svg>