<svg xmlns:dc="http://purl.org/dc/elements/1.1/" xmlns:cc="http://creativecommons.org/ns#" xmlns:rdf="http://www.w3.org/1999/02/22-rdf-syntax-ns#" xmlns:svg="http://www.w3.org/2000/svg" xmlns="http://www.w3.org/2000/svg" xmlns:sodipodi="http://sodipodi.sourceforge.net/DTD/sodipodi-0.dtd" xmlns:inkscape="http://www.inkscape.org/namespaces/inkscape" viewBox="0 0 100 125" version="1.1" x="0px" y="0px"><g transform="translate(0,-952.36216)"><path style="opacity:1;fill:#000000;fill-opacity:1;stroke:none;stroke-width:1;stroke-linecap:round;stroke-linejoin:round;stroke-miterlimit:4;stroke-dasharray:none;stroke-dashoffset:0;stroke-opacity:1" d="m 50,957.36216 a 45,45 0 0 0 -45,45.00004 45,45 0 0 0 45,45 45,45 0 0 0 45,-45 45,45 0 0 0 -45,-45.00004 z m 19.15972,20.2749 2.9197,16.0575 -0.73006,2.9197 0.54747,3.83194 -0.72974,7.2989 -3.64954,4.5619 -2.37202,0.5475 -2.73732,3.4669 -0.54736,2.7369 -1.09482,0 -2.9197,8.0289 -4.92674,-1.4597 -0.54735,-1.0948 -3.28446,1.4597 -2.00716,-0.7297 -3.10218,0.9122 -1.64218,-1.2773 -3.83192,0 -0.1826,-2.5546 -3.46705,-1.4599 -2.55451,1.0948 -3.83192,-29.37814 -0.54736,-6.0216 13.8679,-1.4599 3.10218,1.2774 3.64933,-0.5474 2.00737,2.7371 4.92674,-2.3723 3.28446,-0.3648 4.56188,-4.7442 5.83896,-3.467 z"/></g><text x="0" y="115" fill="#000000" font-size="5px" font-weight="bold" font-family="'Helvetica Neue', Helvetica, Arial-Unicode, Arial, Sans-serif">Created by anbileru adaleru</text><text x="0" y="120" fill="#000000" font-size="5px" font-weight="bold" font-family="'Helvetica Neue', Helvetica, Arial-Unicode, Arial, Sans-serif">from the Noun Project</text></svg>