<svg xmlns="http://www.w3.org/2000/svg" xmlns:xlink="http://www.w3.org/1999/xlink" version="1.1" x="0px" y="0px" viewBox="0 0 100 125" enable-background="new 0 0 100 100" xml:space="preserve"><g><g><g><g><g><g><path fill="#000000" d="M66.917,40.431c0.29-0.062,0.901-0.243,1.366-0.587c0.466-0.366,0.768-0.834,0.533-1.377        c-0.235-0.543-0.74-0.724-1.208-0.756c-0.48-0.05-0.972,0.018-1.209,0.07c-3.502,0.616-7.083,0.02-10.337,0.603        c-1.623,0.261-3.166,0.814-4.414,1.593c-1.243,0.758-2.299,1.693-3.045,2.69c-1.512,1.984-2.222,3.976-2.497,5.679        c-0.263,1.712-0.143,3.148,0.188,4.241c0.317,1.097,0.765,1.858,1.156,2.382c0.417,0.514,0.726,0.833,0.995,1.005        c0.501,0.37,0.6,0.354,0.6,0.354s0.013-0.112-0.273-0.621c-0.161-0.239-0.333-0.62-0.572-1.149        c-0.222-0.536-0.455-1.254-0.579-2.209c-0.127-0.954-0.077-2.166,0.284-3.588c0.357-1.417,1.116-3.063,2.432-4.62        c1.326-1.525,3.356-2.837,6.098-3.202c1.379-0.201,2.936-0.204,4.67-0.181C62.836,40.776,64.781,40.822,66.917,40.431z"/></g></g></g></g></g></g><g><g><g><g><g><g><path fill="#000000" d="M52.25,55.457c-0.404,0.046-1.586,0.042-1.817,1.22c-0.23,1.153,1.32,1.533,1.79,1.479        c1.731,0.016,3.315-0.228,4.772-0.66c0.734-0.176,1.421-0.491,2.088-0.757c0.33-0.154,0.645-0.347,0.958-0.518l0.462-0.262        l0.426-0.326c0.278-0.223,0.557-0.428,0.814-0.661c0.242-0.263,0.48-0.522,0.713-0.776c0.399-0.557,0.763-1.125,0.979-1.695        c0.486-1.132,0.682-2.189,0.818-3.126c0.259-1.883,0.316-3.375,0.5-4.585c0.186-1.198,0.392-2.148,0.724-2.832        c0.302-0.702,0.632-1.201,0.931-1.555c0.265-0.395,0.53-0.596,0.685-0.779c0.324-0.354,0.337-0.462,0.337-0.462        s-0.075-0.052-0.551,0.099c-0.232,0.086-0.604,0.171-1.027,0.494c-0.454,0.28-0.999,0.753-1.533,1.511        c-0.563,0.751-0.996,1.814-1.364,3.115c-0.365,1.301-0.579,2.86-0.936,4.56c-0.179,0.849-0.413,1.727-0.804,2.527        c-0.387,0.82-0.896,1.49-1.786,2.063l-0.308,0.233l-0.363,0.188c-0.246,0.123-0.483,0.265-0.744,0.384        c-0.555,0.196-1.099,0.452-1.729,0.589C55.065,55.273,53.678,55.473,52.25,55.457z"/></g></g></g></g></g></g><g><g><g><g><g><g><path fill="#000000" d="M45.888,62.517c0.007,0.206,0.188,0.637,0.515,0.935c0.317,0.303,0.734,0.44,1.256,0.162        c0.522-0.279,0.746-0.656,0.838-0.949c0.082-0.292,0.032-0.544,0.034-0.693c-0.364-1.965,0.271-4.062,0.934-5.728        c0.672-1.703,1.494-3.103,2.225-4.28c1.497-2.349,2.768-3.786,3.662-4.714c0.897-0.938,1.44-1.378,1.723-1.645        c0.282-0.275,0.296-0.375,0.296-0.375s-0.062-0.063-0.461-0.014c-0.402,0.042-1.173,0.213-2.379,0.962        c-1.205,0.743-2.845,2.057-4.693,4.462c-0.91,1.21-1.901,2.677-2.742,4.579C46.302,57.11,45.372,59.444,45.888,62.517z"/></g></g></g></g></g></g><g><g><g><g><g><g><path fill="#000000" d="M45.15,50.797c0.359-0.064,1.381-0.234,1.468-1.404c0.033-0.591-0.282-0.933-0.689-1.124        c-0.395-0.17-0.856-0.186-1.059-0.156c-1.526,0.165-2.796,0.488-3.909,0.596c-1.112,0.125-2.033,0.05-2.819-0.26        c-0.784-0.286-1.517-0.847-1.974-1.327c-0.476-0.488-0.665-1.106-0.795-1.767c-0.227-1.335-0.076-2.762-0.188-3.975        c-0.096-1.224-0.377-2.293-0.862-3.022c-0.203-0.378-0.498-0.641-0.7-0.893c-0.232-0.23-0.476-0.381-0.666-0.526        c-0.373-0.302-0.721-0.362-0.922-0.455c-0.428-0.146-0.506-0.098-0.506-0.098s-0.002,0.101,0.259,0.44        c0.113,0.184,0.36,0.36,0.572,0.723c0.109,0.175,0.258,0.354,0.39,0.579c0.095,0.248,0.262,0.485,0.35,0.799        c0.225,0.604,0.298,1.398,0.239,2.45c-0.029,1.067-0.362,2.359-0.228,4.244c0.082,0.916,0.357,2.076,1.139,3.024        c0.778,0.93,1.679,1.663,2.911,2.194c1.227,0.54,2.691,0.666,4.044,0.527C42.571,51.248,43.878,50.927,45.15,50.797z"/></g></g></g></g></g></g><g><g><g><g><g><g><path fill="#000000" d="M32.495,35.369c-0.375,0.048-1.534,0.375-1.311,1.537c0.223,1.164,1.247,1.195,1.562,1.15        c4.683-0.39,8.125,1.131,9.887,2.923c0.9,0.895,1.501,1.819,1.845,2.679c0.095,0.214,0.185,0.417,0.271,0.611        c0.059,0.206,0.115,0.401,0.168,0.587c0.102,0.375,0.237,0.709,0.268,1.027c0.264,1.257,0.29,1.981,0.396,2.368        c0.092,0.39,0.171,0.448,0.171,0.448s0.087-0.025,0.247-0.39c0.141-0.369,0.467-1.067,0.532-2.507        c0.05-0.36,0-0.762-0.035-1.217c-0.022-0.228-0.044-0.468-0.068-0.721c-0.062-0.248-0.127-0.508-0.196-0.782        c-0.253-1.102-0.859-2.378-1.909-3.632C42.245,36.91,37.956,34.889,32.495,35.369z"/></g></g></g></g></g></g><g><g><g><g><g><g><path fill="#000000" d="M44.006,49.265c0.006,0.068,0.213,0.277,1.398,0.302c1.186,0.025,1.302-0.487,1.279-0.647        c-0.032-0.576-0.251-1.061-0.445-1.516c-0.198-0.451-0.495-0.775-0.728-1.115c-0.269-0.29-0.538-0.53-0.785-0.756        c-0.257-0.202-0.507-0.357-0.736-0.508c-0.931-0.556-1.62-0.728-2.102-0.813c-0.97-0.13-1.165,0.152-1.165,0.152        s-0.095,0.329,0.51,1.028c0.287,0.359,0.758,0.807,1.35,1.423C43.174,47.423,43.895,48.228,44.006,49.265z"/></g></g></g></g></g></g><g><g><g><g><g><g><path fill="#000000" d="M69.627,18.834c1.464-0.37,3.291-1.464,4.97-2.881c1.696-1.428,3.382-3.147,4.928-4.727        c1.539-1.587,3.005-2.962,4.108-3.964C84.75,6.3,85.474,5.642,85.33,5.367c-0.127-0.25-1.102,0.01-2.51,0.731        c-1.382,0.75-3.126,2.017-4.824,3.495c-1.703,1.469-3.437,3.067-5.038,4.329c-1.612,1.276-3.094,2.069-3.989,2.295        l-0.498,0.107c-0.166,0.039-0.345,0.009-0.516,0.021c-0.323,0.034-0.75-0.048-1.136-0.084        c-0.856-0.122-1.829-0.275-2.811-0.265c-2.194-0.129-4.273,1.06-5.471,2.57c-1.213,1.478-1.824,3.004-2.543,4.071        c-0.705,1.136-1.396,1.58-2.202,1.732l-0.066,0.013l-0.056,0.012c-0.475,0.103-1.437-0.05-2.308-0.327        c-0.896-0.272-1.812-0.634-2.725-1.013c-0.928-0.396-1.852-0.791-2.77-1.184c-0.955-0.393-1.863-0.784-3.012-1.086        c-4.183-0.837-8.227-0.566-11.965,0.142c-1.867,0.336-3.649,0.773-5.368,1.178c-0.861,0.202-1.711,0.401-2.551,0.598        c-0.839,0.186-1.687,0.401-2.422,0.537c-1.557,0.271-3.209,0.414-4.823,0.688c-0.811,0.138-1.619,0.298-2.434,0.539        c-0.812,0.254-1.652,0.56-2.475,1.219c0.058-0.042,0.116-0.083,0.153-0.11c-0.858,0.556-1.689,1.274-2.271,2.228        c-0.597,0.949-0.833,2.052-0.888,3.042c-0.093,2.013,0.369,3.732,0.708,5.368c0.173,0.814,0.352,1.611,0.468,2.386        c0.122,0.79,0.212,1.634,0.319,2.443c0.206,1.633,0.41,3.254,0.613,4.863c0.88,6.418,1.399,12.72,2.147,18.79        c0.378,3.042,0.75,6.036,1.117,8.982c0.149,1.478,0.459,2.921,0.699,4.362c0.254,1.439,0.505,2.866,0.755,4.282        c0.25,1.415,0.497,2.819,0.743,4.211c0.225,1.295,0.373,2.721,0.604,4.119c0.118,0.707,0.244,1.415,0.445,2.148        c0.096,0.365,0.221,0.742,0.381,1.13c0.118,0.321,0.496,1.014,0.962,1.396c0.47,0.407,1.112,0.6,1.72,0.479        c0.304-0.036,0.603-0.154,0.873-0.318c0.13-0.082,0.284-0.167,0.394-0.246l0.291-0.239c0.674-0.61,1.064-1.165,1.501-1.795        c0.056-0.087,0.101-0.133,0.165-0.254l0.182-0.367c0.109-0.245,0.157-0.45,0.222-0.671c0.092-0.414,0.145-0.804,0.175-1.155        c0.063-0.708,0.088-1.339,0.185-1.864c0.094-0.535,0.254-0.887,0.469-1.058c0.2-0.19,0.594-0.315,1.135-0.401        c0.216-0.015,0.44-0.035,0.55,0.005c0.142,0.017,0.168,0.067,0.244,0.112c0.141,0.115,0.322,0.6,0.425,1.153        c0.116,0.563,0.19,1.201,0.354,1.9c0.086,0.353,0.193,0.719,0.355,1.101c0.079,0.19,0.21,0.406,0.322,0.602        c0.123,0.183,0.263,0.309,0.396,0.464c1.088,1.188,2.421,1.777,3.705,2.189c1.295,0.383,2.578,0.551,3.84,0.657        c2.521,0.152,4.959-0.007,7.32-0.361c1.185-0.171,2.339-0.396,3.499-0.685c1.167-0.268,2.497-0.837,3.468-1.713        c1.012-0.867,1.645-1.939,2.241-2.815c0.593-0.875,1.146-1.576,1.882-1.944c0.738-0.4,1.536-0.475,2.38-0.332        c0.833,0.166,1.661,0.61,2.473,1.133c1.641,1.035,3.156,2.56,5.366,3.366c2.273,0.801,5.026,0.033,6.392-1.902        c0.692-0.912,1.085-1.904,1.38-2.862c0.293-0.963,0.485-1.912,0.643-2.843c0.604-3.704,0.736-7.237,1.716-10.286        c0.483-1.503,1.221-2.857,2.298-3.681c1.031-0.779,2.513-0.951,4.009-0.993c0.756-0.025,1.528-0.023,2.334-0.085        c0.798-0.074,1.678-0.171,2.54-0.713c0.879-0.582,1.287-1.525,1.497-2.294c0.187-0.789,0.28-1.55,0.317-2.278        c0.086-1.461,0.048-2.837,0.095-4.155c0.044-1.31,0.149-2.581,0.514-3.651c0.068-0.284,0.225-0.495,0.327-0.747        c0.157-0.273,0.313-0.544,0.468-0.814c0.313-0.545,0.621-1.084,0.925-1.616c0.295-0.546,0.611-1.056,0.868-1.625        c0.276-0.55,0.536-1.103,0.721-1.699c0.438-1.159,0.556-2.385,0.605-3.521c0.001-1.135-0.039-2.228-0.147-3.28        c-0.076-1.064-0.215-2.062-0.349-3.033c-0.131-0.973-0.258-1.919-0.381-2.838c-0.479-3.672-0.955-6.943-1.256-9.804        c-0.262-2.842-0.29-5.378-0.399-7.556c-0.063-1.094-0.121-2.104-0.174-3.038c-0.091-0.933-0.174-1.788-0.25-2.573        c-0.106-0.783-0.237-1.491-0.339-2.136c-0.087-0.648-0.228-1.221-0.372-1.734c-0.469-2.075-1.02-3.145-1.247-3.758        c-0.249-0.606-0.307-0.718-0.307-0.718s0.023,0.117,0.207,0.728c0.156,0.619,0.625,1.685,0.976,3.733        c0.257,1.004,0.34,2.276,0.54,3.805c0.046,0.772,0.096,1.615,0.15,2.534c0.024,0.921,0.05,1.919,0.078,3        c0.04,2.171-0.003,4.662,0.179,7.584c0.05,1.469,0.289,2.973,0.442,4.611c0.18,1.631,0.371,3.363,0.574,5.204        c0.189,1.835,0.479,3.807,0.623,5.84c0.128,2.019,0.326,4.225-0.39,6.239c-0.184,0.506-0.365,1.02-0.646,1.524        c-0.241,0.51-0.529,1.023-0.837,1.542c-0.294,0.519-0.608,1.045-0.932,1.58c-0.318,0.538-0.646,1.036-0.976,1.745        c-0.548,1.352-0.669,2.739-0.756,4.111c-0.047,1.342-0.095,2.716-0.144,4.124c-0.052,0.673-0.101,1.364-0.256,1.979        c-0.142,0.612-0.378,1.199-0.708,1.465c-0.333,0.277-0.951,0.436-1.631,0.497c-0.684,0.066-1.438,0.056-2.222,0.068        c-1.541,0.045-3.363,0.037-5.05,1.102c-1.623,1.086-2.567,2.751-3.18,4.439c-1.181,3.405-1.338,7.01-1.94,10.556        c-0.305,1.75-0.7,3.569-1.594,4.909c-0.47,0.656-0.989,1.108-1.771,1.348c-0.744,0.267-1.493,0.343-2.267,0.081        c-1.576-0.475-3.074-1.853-4.854-3.085c-0.89-0.617-1.912-1.229-3.138-1.538c-1.194-0.297-2.633-0.311-3.842,0.289        c-0.613,0.258-1.157,0.676-1.637,1.117c-0.453,0.456-0.854,0.951-1.174,1.426c-0.663,0.964-1.194,1.817-1.878,2.462        c-0.682,0.645-1.497,1.04-2.487,1.298c-1.045,0.269-2.161,0.474-3.273,0.641c-2.234,0.331-4.548,0.49-6.843,0.346        c-1.138-0.09-2.293-0.217-3.353-0.542c-1.054-0.307-2.063-0.781-2.713-1.443c-0.368-0.344-0.458-0.555-0.611-1.102        c-0.133-0.505-0.213-1.11-0.332-1.777c-0.138-0.662-0.243-1.438-0.852-2.293c-0.292-0.426-0.801-0.783-1.315-0.972        c-0.25-0.082-0.498-0.116-0.75-0.16c-0.235-0.019-0.45-0.004-0.676,0c-0.44,0.036-0.771,0.101-1.199,0.212        c-0.411,0.107-0.861,0.296-1.267,0.593c-0.844,0.607-1.27,1.588-1.432,2.359c-0.177,0.794-0.198,1.502-0.256,2.132        c-0.04,0.613-0.167,1.207-0.28,1.385c-0.324,0.475-0.71,0.992-1.08,1.349c-0.091,0.096-0.152,0.134-0.203,0.179        c-0.014,0.01-0.029,0.019-0.044,0.024c-0.031,0.013-0.069,0.01-0.094-0.012c-0.034-0.039-0.02,0.002-0.101-0.172        c-0.105-0.215-0.196-0.499-0.28-0.784c-0.164-0.585-0.292-1.228-0.398-1.888c-0.196-1.38-0.395-2.771-0.594-4.175        c-0.239-1.385-0.479-2.781-0.722-4.189c-0.243-1.408-0.488-2.828-0.735-4.259c-0.227-1.435-0.545-2.867-0.687-4.34        c-0.355-2.934-0.716-5.916-1.083-8.947c-0.734-6.077-1.23-12.372-2.105-18.873c-0.201-1.625-0.404-3.263-0.608-4.914        c-0.107-0.831-0.193-1.643-0.32-2.498c-0.129-0.876-0.317-1.714-0.491-2.545c-0.352-1.64-0.73-3.258-0.651-4.67        c0.041-1.432,0.705-2.415,1.917-3.19l0.086-0.055l0.067-0.055c0.325-0.266,0.903-0.526,1.542-0.713        c0.647-0.19,1.362-0.334,2.107-0.458c1.498-0.255,3.101-0.387,4.854-0.685c0.915-0.169,1.719-0.377,2.564-0.562        c0.84-0.196,1.692-0.394,2.554-0.595c1.725-0.404,3.464-0.828,5.236-1.144c1.772-0.345,3.57-0.531,5.398-0.604        c0.913-0.003,1.833,0.043,2.758,0.076c0.894,0.128,1.869,0.212,2.715,0.368c0.761,0.199,1.695,0.575,2.585,0.949        c0.92,0.394,1.846,0.791,2.777,1.188c0.954,0.396,1.93,0.787,2.986,1.109c1.07,0.287,2.172,0.654,3.739,0.362        c-0.03,0.006-0.076,0.015-0.122,0.024c0.783-0.159,1.663-0.439,2.356-1.014c0.721-0.536,1.262-1.229,1.693-1.906        c0.884-1.361,1.476-2.771,2.357-3.817c0.422-0.543,0.925-0.921,1.49-1.211l0.437-0.2l0.484-0.126        c0.2-0.059,0.132-0.047,0.394-0.051l0.574-0.012c0.766-0.011,1.551,0.111,2.455,0.239        C67.377,19.058,68.541,19.148,69.627,18.834z"/></g></g></g></g></g></g><text x="0" y="115" fill="#000000" font-size="5px" font-weight="bold" font-family="'Helvetica Neue', Helvetica, Arial-Unicode, Arial, Sans-serif">Created by Saeful Muslim</text><text x="0" y="120" fill="#000000" font-size="5px" font-weight="bold" font-family="'Helvetica Neue', Helvetica, Arial-Unicode, Arial, Sans-serif">from the Noun Project</text></svg>