<?xml version="1.0" standalone="no"?>
<!DOCTYPE svg PUBLIC "-//W3C//DTD SVG 20010904//EN"
 "http://www.w3.org/TR/2001/REC-SVG-20010904/DTD/svg10.dtd">
<svg version="1.0" xmlns="http://www.w3.org/2000/svg"
 width="784.000000pt" height="784.000000pt" viewBox="0 0 784.000000 784.000000"
 preserveAspectRatio="xMidYMid meet">
<metadata>
Created by potrace 1.11, written by Peter Selinger 2001-2013
</metadata>
<g transform="translate(0.000000,784.000000) scale(0.100000,-0.100000)"
fill="#000000" stroke="none">
<path d="M7751 7791 c-12 -16 -21 -34 -21 -39 0 -6 -3 -12 -7 -14 -5 -1 -35
-39 -67 -83 -80 -107 -94 -123 -216 -246 -201 -203 -404 -347 -670 -476 -127
-61 -128 -62 -217 -97 -35 -13 -63 -23 -63 -20 0 3 -10 -1 -22 -7 -13 -7 -36
-16 -53 -20 -16 -4 -55 -14 -85 -23 -30 -8 -66 -17 -80 -20 -14 -3 -36 -8 -50
-11 -14 -3 -36 -7 -50 -10 -14 -3 -34 -7 -45 -9 -11 -2 -40 -7 -65 -12 -25 -4
-47 -8 -50 -9 -3 -1 -32 -5 -65 -9 -32 -4 -68 -10 -80 -12 -11 -3 -40 -7 -65
-9 -25 -2 -61 -7 -80 -10 -66 -10 -105 -15 -155 -20 -27 -2 -66 -7 -85 -9 -35
-5 -129 -16 -185 -21 -16 -2 -55 -6 -85 -10 -97 -12 -104 -12 -165 -19 -156
-17 -259 -30 -340 -41 -33 -5 -86 -12 -155 -21 -25 -3 -56 -7 -70 -10 -14 -2
-43 -6 -65 -9 -22 -3 -51 -7 -65 -10 -14 -3 -41 -8 -60 -11 -108 -17 -274 -46
-279 -49 -6 -3 -57 -12 -111 -20 -14 -2 -77 -15 -140 -30 -63 -15 -126 -29
-140 -31 -14 -3 -34 -8 -45 -11 -11 -4 -27 -8 -35 -9 -8 -1 -51 -12 -95 -24
-44 -12 -89 -23 -99 -25 -10 -3 -33 -9 -51 -15 -18 -6 -41 -12 -51 -14 -31 -6
-415 -135 -451 -152 -17 -7 -34 -14 -38 -14 -42 0 -726 -322 -780 -367 -5 -5
-41 -26 -80 -48 -132 -73 -465 -307 -465 -327 0 -4 -5 -8 -11 -8 -23 0 -379
-337 -379 -359 0 -5 -4 -11 -9 -13 -8 -3 -30 -27 -124 -137 -6 -8 -42 -56 -79
-105 -37 -50 -71 -95 -76 -101 -14 -18 -162 -256 -162 -261 0 -3 -9 -19 -21
-35 -11 -16 -17 -29 -12 -29 4 0 3 -4 -2 -8 -10 -6 -125 -234 -125 -246 0 -2
-14 -34 -30 -69 -17 -36 -30 -68 -30 -70 0 -3 -5 -18 -12 -34 -6 -15 -12 -32
-14 -38 -2 -5 -17 -48 -34 -95 -47 -134 -110 -365 -135 -495 -3 -16 -7 -41
-10 -55 -3 -14 -7 -36 -10 -50 -3 -14 -8 -43 -10 -64 -6 -47 -13 -91 -21 -127
-2 -14 -7 -52 -9 -85 -2 -33 -7 -86 -11 -119 -9 -69 -10 -526 -1 -600 3 -27 8
-73 12 -101 3 -28 8 -61 10 -75 3 -13 7 -36 10 -50 15 -79 106 -297 135 -319
3 -3 19 -23 35 -45 44 -60 139 -150 206 -195 84 -58 87 -58 95 -13 4 21 9 47
11 58 2 11 6 34 9 50 3 17 7 37 8 45 2 8 6 26 9 40 4 14 9 36 11 50 7 35 10
49 45 190 18 69 34 134 36 146 3 11 16 56 30 100 14 43 25 86 25 94 0 9 4 20
8 25 5 6 14 30 21 55 46 163 180 482 259 617 17 28 28 54 25 57 -4 3 -1 6 5 6
7 0 12 4 12 9 0 12 62 114 75 123 5 4 6 8 1 8 -4 0 3 15 18 34 14 19 26 39 26
44 0 6 4 12 8 14 4 2 30 37 57 78 27 41 52 77 55 80 3 3 17 21 30 40 31 45
173 223 220 274 113 126 307 326 316 326 1 0 23 19 47 43 69 65 238 204 328
270 81 59 195 137 264 181 44 28 82 53 85 56 3 3 16 11 30 19 323 186 510 277
835 405 66 27 129 52 140 56 29 13 220 75 290 95 33 9 71 21 85 25 50 17 393
109 430 116 117 22 555 156 725 222 95 37 190 77 195 82 3 3 12 6 20 8 15 2
39 12 190 78 179 77 312 139 495 229 105 52 194 94 199 94 5 -1 12 3 15 8 6
10 171 96 171 90 0 -2 -33 -26 -72 -53 -40 -27 -74 -52 -76 -56 -2 -5 -10 -8
-18 -8 -8 0 -14 -4 -14 -10 0 -5 -5 -10 -10 -10 -6 0 -33 -17 -60 -37 -43 -34
-211 -144 -340 -224 -25 -16 -49 -32 -55 -36 -5 -5 -23 -15 -40 -23 -16 -8
-34 -21 -38 -27 -4 -7 -13 -13 -19 -13 -6 0 -43 -20 -82 -43 -149 -91 -548
-313 -574 -318 -4 -1 -47 -21 -97 -44 -138 -65 -183 -84 -189 -77 -3 3 -6 0
-6 -6 0 -7 -5 -12 -11 -12 -10 0 -164 -58 -214 -80 -11 -5 -49 -19 -85 -30
-36 -12 -78 -28 -95 -35 -16 -7 -64 -25 -105 -40 -41 -16 -81 -32 -87 -38 -7
-5 -13 -6 -13 -3 0 4 -10 1 -22 -6 -13 -7 -25 -13 -28 -13 -19 -3 -87 -29 -95
-36 -5 -5 -18 -9 -30 -9 -12 0 -25 -4 -30 -9 -9 -8 -184 -79 -210 -85 -5 -1
-26 -9 -45 -18 -19 -8 -87 -37 -150 -63 -152 -64 -404 -193 -548 -280 -136
-82 -370 -247 -459 -321 -12 -11 -49 -41 -82 -68 -34 -28 -61 -53 -61 -58 0
-4 -4 -8 -9 -8 -25 0 -366 -339 -596 -594 -6 -6 -42 -54 -81 -106 -195 -261
-346 -575 -470 -975 -14 -44 -27 -88 -29 -98 -2 -10 -7 -27 -10 -37 -3 -10 -8
-27 -10 -37 -2 -10 -9 -36 -15 -58 -6 -22 -13 -51 -16 -65 -3 -14 -7 -33 -10
-42 -3 -9 -7 -26 -9 -37 -3 -12 -7 -31 -10 -44 -11 -44 -27 -123 -30 -147 -2
-14 -6 -34 -8 -45 -2 -11 -7 -36 -11 -55 -3 -19 -8 -44 -10 -55 -2 -11 -7 -40
-10 -65 -3 -25 -8 -56 -11 -70 -2 -14 -9 -63 -15 -110 -6 -47 -13 -102 -16
-124 -3 -21 -7 -59 -9 -85 -4 -54 -13 -147 -20 -211 -3 -25 -7 -89 -11 -143
l-5 -98 33 -42 c100 -130 252 -242 423 -312 41 -17 131 -46 140 -45 3 0 21 -6
41 -15 19 -8 38 -14 42 -14 4 1 9 0 12 -1 9 -3 44 -10 84 -15 21 -3 41 -7 45
-9 27 -17 233 -25 326 -12 33 4 74 10 90 11 17 2 44 6 60 10 38 8 61 12 110
19 42 6 54 8 123 24 23 5 42 8 42 6 0 -3 8 0 18 5 9 5 33 12 52 15 47 8 55 10
200 50 354 98 701 237 1009 406 41 22 93 51 115 63 23 12 43 24 46 27 5 5 27
18 75 45 61 34 438 294 455 314 3 3 39 33 80 66 91 72 197 162 265 224 91 84
369 365 437 442 86 97 281 331 310 373 12 17 25 33 28 36 25 19 358 496 420
600 35 60 86 144 102 168 10 15 21 34 25 42 3 8 9 17 12 20 9 8 51 82 64 113
6 15 15 27 19 27 4 0 8 4 8 9 0 5 27 58 60 118 33 59 60 112 59 117 0 5 4 12
9 15 12 8 198 383 194 394 -1 4 3 7 8 7 6 0 10 9 10 20 0 11 4 20 10 20 5 0 9
3 8 8 -1 4 7 27 18 52 17 37 116 262 170 385 7 17 27 66 45 110 17 44 34 85
37 90 4 6 7 15 9 20 1 6 29 82 63 170 61 158 137 373 167 470 8 28 18 55 21
60 4 6 7 12 7 15 3 17 38 129 46 145 6 12 12 30 14 40 2 11 4 20 5 20 2 0 5
13 13 51 3 11 12 37 21 57 8 21 15 38 15 40 -1 3 12 61 17 77 3 8 5 16 6 17 0
1 7 24 15 50 15 49 62 216 68 243 2 8 13 49 25 90 12 41 23 85 26 98 2 12 22
91 43 176 22 85 42 167 45 182 3 16 15 70 26 119 12 50 24 100 26 113 7 37 13
66 19 92 3 14 10 48 15 75 9 47 14 66 24 114 2 10 7 36 10 57 4 22 8 46 11 54
2 8 6 31 9 50 3 19 8 45 10 56 7 35 18 97 21 124 2 22 15 93 29 166 2 12 7 45
11 74 4 29 9 62 11 74 2 12 6 41 9 66 3 25 8 57 10 73 7 34 1 34 -24 -2z"/>
</g>
</svg>
