<svg xmlns="http://www.w3.org/2000/svg" xmlns:xlink="http://www.w3.org/1999/xlink" version="1.1" x="0px" y="0px" viewBox="0 0 100 125" enable-background="new 0 0 100 100" xml:space="preserve"><path fill="#000000" d="M26.9,41.971l-0.078-0.738c-0.001-0.008-0.009-0.012-0.011-0.02c-0.001-0.009,0.005-0.016,0.002-0.024  l-0.229-0.783c-0.002-0.008-0.011-0.011-0.014-0.018s0.002-0.015-0.001-0.021l-0.373-0.768c-0.003-0.006-0.011-0.007-0.014-0.013  s0-0.013-0.004-0.019l-0.481-0.705c-0.004-0.006-0.013-0.006-0.017-0.012c-0.005-0.006-0.002-0.014-0.008-0.02l-0.56-0.592  c-0.006-0.006-0.016-0.004-0.022-0.01c-0.006-0.006-0.005-0.015-0.012-0.02l-0.602-0.441c-0.008-0.006-0.02-0.002-0.029-0.007  c-0.009-0.006-0.011-0.018-0.021-0.022l-0.602-0.256c-0.013-0.005-0.025,0.003-0.039,0c-0.013-0.004-0.021-0.018-0.035-0.019  l-0.562-0.055c-0.019-0.002-0.032,0.013-0.049,0.016c-0.018,0.001-0.032-0.01-0.05-0.005l-0.481,0.15  c-0.009,0.003-0.011,0.013-0.02,0.017c-0.009,0.003-0.019-0.002-0.028,0.003l-0.259,0.145c-0.01,0.006-0.011,0.019-0.02,0.025  c-0.009,0.006-0.021,0.003-0.028,0.011l-0.37,0.346c-0.013,0.013-0.011,0.031-0.021,0.046c-0.01,0.014-0.029,0.018-0.036,0.034  l-0.232,0.511c-0.006,0.014,0.002,0.027-0.001,0.041c-0.003,0.013-0.017,0.02-0.019,0.033l-0.077,0.652  c0,0.006,0.004,0.01,0.004,0.015c0,0.006-0.006,0.009-0.006,0.015v1.193c0,0.013,0.011,0.02,0.013,0.031  c0.004,0.033,0.019,0.057,0.035,0.086c0.017,0.028,0.03,0.053,0.056,0.072c0.01,0.008,0.01,0.021,0.021,0.027l0.772,0.443  c0,0,0,0,0.001,0c0.038,0.021,0.08,0.033,0.124,0.033c0.044,0,0.087-0.012,0.125-0.034h0l0.259-0.15  c0.01-0.006,0.011-0.02,0.02-0.026c0.026-0.021,0.04-0.045,0.057-0.073c0.017-0.029,0.031-0.053,0.035-0.086  c0.001-0.011,0.013-0.019,0.013-0.03v-0.758l2.323,1.342l0.022,0.182v1.178c0,0.012,0.011,0.02,0.013,0.031  c0.004,0.033,0.019,0.057,0.036,0.086c0.016,0.028,0.029,0.053,0.055,0.072c0.009,0.008,0.01,0.021,0.021,0.027l0.772,0.445  c0.04,0.022,0.083,0.033,0.125,0.033c0.042,0,0.084-0.011,0.123-0.032l0.256-0.145c0.011-0.006,0.012-0.021,0.021-0.028  c0.027-0.02,0.04-0.043,0.057-0.072c0.017-0.028,0.031-0.052,0.036-0.085c0.001-0.012,0.013-0.02,0.013-0.032v-1.197  c0-0.005-0.005-0.008-0.005-0.013S26.901,41.976,26.9,41.971z M25.867,41.685c0-0.006,0.005-0.01,0.004-0.016l-0.04-0.316  l-0.014-0.166c-0.001-0.009-0.011-0.014-0.013-0.022c-0.001-0.01,0.006-0.018,0.003-0.027l-0.156-0.521  c-0.002-0.007-0.01-0.009-0.013-0.016c-0.002-0.007,0.002-0.014-0.001-0.021l-0.247-0.518c-0.003-0.007-0.012-0.008-0.016-0.014  c-0.003-0.007,0-0.015-0.004-0.021l-0.321-0.465c-0.004-0.006-0.012-0.005-0.017-0.011c-0.004-0.005-0.002-0.013-0.007-0.018  l-0.373-0.396c-0.006-0.007-0.016-0.004-0.022-0.01c-0.007-0.007-0.006-0.017-0.014-0.022l-0.403-0.291  c-0.008-0.006-0.019-0.002-0.027-0.007c-0.008-0.004-0.01-0.015-0.019-0.019l-0.396-0.174c-0.014-0.006-0.027,0.003-0.041-0.001  c-0.014-0.004-0.022-0.019-0.038-0.02l-0.376-0.033c-0.017-0.003-0.03,0.013-0.047,0.014c-0.016,0.002-0.03-0.009-0.047-0.004  l-0.175,0.053h0l-0.143,0.043c-0.02,0.006-0.027,0.026-0.044,0.036c-0.018,0.01-0.04,0.006-0.055,0.021l-0.25,0.232  c-0.013,0.013-0.011,0.031-0.021,0.045c-0.01,0.015-0.029,0.019-0.037,0.035l-0.152,0.34c-0.006,0.013,0.002,0.026-0.001,0.039  c-0.004,0.013-0.017,0.019-0.019,0.032l-0.055,0.432c-0.001,0.006,0.005,0.01,0.004,0.016s-0.006,0.01-0.006,0.016v0.76  l-0.272-0.156v-1.036l0.071-0.598l0.196-0.432l0.29-0.271l0.377-0.113l0.473,0.046l0.543,0.231l0.557,0.402l0.532,0.565l0.465,0.673  l0.349,0.733l0.223,0.745l0.074,0.7v0.746l-0.272-0.157v-1.049C25.874,41.695,25.868,41.691,25.867,41.685z"/><path fill="#000000" d="M53.006,60.016c0.011-0.007,0.017-0.019,0.026-0.026c0.012-0.01,0.021-0.019,0.03-0.03  c0.01-0.011,0.023-0.017,0.031-0.03c0.006-0.011,0-0.022,0.004-0.033c0.009-0.021,0.014-0.038,0.017-0.061  c0.001-0.012,0.013-0.02,0.013-0.031v-8.949c0-0.023-0.02-0.039-0.025-0.061s0.004-0.044-0.008-0.064  c-0.006-0.011-0.02-0.011-0.027-0.021c-0.02-0.026-0.044-0.039-0.072-0.056c-0.029-0.018-0.053-0.032-0.086-0.036  c-0.012-0.002-0.02-0.013-0.031-0.013c-0.023,0-0.038,0.019-0.06,0.024c-0.022,0.006-0.045-0.003-0.065,0.009l-1.55,0.895  l-3.104,1.791c-0.011,0.006-0.012,0.02-0.021,0.027c-0.026,0.02-0.039,0.044-0.056,0.072c-0.017,0.029-0.031,0.053-0.036,0.086  c-0.001,0.012-0.013,0.02-0.013,0.031v7.158v1.789c0,0.023,0.019,0.038,0.024,0.06c0.006,0.022-0.003,0.045,0.009,0.065  c0.008,0.014,0.021,0.02,0.032,0.031c0.009,0.012,0.018,0.02,0.029,0.029c0.045,0.037,0.098,0.064,0.156,0.064  c0.042,0,0.085-0.011,0.125-0.033l4.654-2.684C53.004,60.02,53.004,60.017,53.006,60.016z M52.627,59.371l-1.05-0.607v-6.869  l1.05-0.605V59.371z M48.473,60.843l2.854-1.646l1.05,0.607l-3.904,2.251V60.843z"/><path fill="#000000" d="M68.547,73.431c0.008,0.014,0.021,0.02,0.031,0.03c0.01,0.012,0.019,0.021,0.03,0.03  c0.046,0.038,0.098,0.064,0.155,0.064c0.043,0,0.086-0.011,0.125-0.033l1.809-1.047c0.002-0.002,0.002-0.005,0.004-0.007  c0.01-0.006,0.017-0.017,0.025-0.024c0.012-0.01,0.021-0.019,0.03-0.03c0.01-0.011,0.023-0.017,0.03-0.03  c0.006-0.011,0-0.022,0.005-0.033c0.009-0.021,0.014-0.038,0.017-0.061c0.002-0.012,0.013-0.02,0.013-0.031v-8.947  c0-0.023-0.019-0.039-0.024-0.061s0.002-0.044-0.01-0.064c-0.006-0.011-0.019-0.011-0.025-0.021  c-0.021-0.026-0.045-0.039-0.074-0.056c-0.029-0.018-0.053-0.032-0.087-0.036c-0.011-0.002-0.018-0.013-0.029-0.013  c-0.023,0-0.038,0.019-0.06,0.025c-0.022,0.005-0.045-0.004-0.066,0.009l-1.539,0.893l0,0l-0.262,0.143  c-0.012,0.007-0.014,0.021-0.023,0.029c-0.027,0.02-0.041,0.042-0.059,0.071c-0.017,0.028-0.03,0.052-0.035,0.085  c-0.002,0.013-0.014,0.021-0.014,0.034v7.166v1.789c0,0.023,0.02,0.039,0.025,0.061S68.536,73.411,68.547,73.431z M69.014,71.662  l0.012-0.006l1.046,0.604l-1.058,0.612V71.662z M70.322,71.826l-1.046-0.604v-6.87l1.046-0.606V71.826z"/><path fill="#000000" d="M67.733,40.986c-0.006-0.007-0.018-0.004-0.024-0.01c-0.008-0.006-0.008-0.017-0.017-0.021l-0.253-0.15  c-0.009-0.006-0.021,0-0.03-0.004c-0.01-0.005-0.013-0.017-0.023-0.02l-0.48-0.15c-0.017-0.006-0.031,0.006-0.049,0.004  s-0.032-0.018-0.051-0.015l-0.566,0.059c-0.014,0.001-0.021,0.015-0.034,0.019c-0.013,0.003-0.025-0.005-0.038,0l-0.602,0.256  c-0.01,0.004-0.012,0.017-0.021,0.021c-0.009,0.005-0.02,0.001-0.027,0.007l-0.602,0.438c-0.008,0.005-0.007,0.015-0.014,0.021  c-0.006,0.006-0.016,0.004-0.021,0.01l-0.559,0.59c-0.006,0.006-0.003,0.014-0.008,0.02c-0.004,0.006-0.013,0.006-0.018,0.012  l-0.48,0.707c-0.004,0.006-0.001,0.013-0.004,0.019c-0.004,0.007-0.013,0.007-0.016,0.014l-0.37,0.771  c-0.003,0.007,0.001,0.014-0.001,0.021c-0.003,0.007-0.012,0.01-0.014,0.017l-0.23,0.777c-0.003,0.008,0.004,0.015,0.002,0.023  c-0.002,0.008-0.01,0.013-0.012,0.021l-0.078,0.742c0,0.005,0.005,0.009,0.004,0.014c0,0.005-0.005,0.008-0.005,0.013v1.195  c0,0.012,0.011,0.02,0.013,0.03c0.004,0.033,0.019,0.057,0.035,0.086c0.018,0.028,0.03,0.053,0.057,0.073  c0.009,0.007,0.01,0.021,0.02,0.026l0.26,0.15l0,0c0.038,0.022,0.081,0.034,0.125,0.034c0.043,0,0.086-0.012,0.125-0.034  c0,0,0,0,0.001,0l0.772-0.451c0.01-0.006,0.011-0.02,0.02-0.026c0.027-0.021,0.04-0.045,0.057-0.073  c0.017-0.029,0.031-0.053,0.035-0.085c0.002-0.012,0.013-0.02,0.013-0.031v-1.179l0.019-0.18l2.324-1.34v0.761  c0,0.012,0.012,0.02,0.013,0.03c0.005,0.033,0.019,0.057,0.035,0.086s0.03,0.053,0.057,0.073c0.009,0.007,0.01,0.021,0.021,0.026  l0.256,0.148l0,0c0.039,0.022,0.082,0.034,0.125,0.034s0.086-0.012,0.123-0.032c0.001-0.001,0.002-0.001,0.002-0.001l0.775-0.449  c0.012-0.006,0.012-0.02,0.021-0.027c0.025-0.021,0.039-0.044,0.055-0.072c0.018-0.029,0.031-0.053,0.036-0.086  c0.001-0.012,0.013-0.02,0.013-0.031v-1.191c0-0.006-0.006-0.01-0.006-0.016c-0.001-0.006,0.005-0.01,0.004-0.016l-0.081-0.648  c-0.001-0.013-0.015-0.02-0.019-0.031c-0.004-0.014,0.005-0.026-0.001-0.039l-0.229-0.512c-0.008-0.018-0.026-0.021-0.038-0.035  c-0.01-0.015-0.008-0.034-0.021-0.047L67.733,40.986z M66.888,42.341l0.169,0.156l0.059,0.127l-0.581-0.336l0.138-0.014  L66.888,42.341z M64.815,43.986l0.225-0.475l0.108-0.155l1.116-0.646l0.451,0.262l-1.93,1.111L64.815,43.986z M67.715,43.108  c0-0.006,0.004-0.009,0.004-0.015l-0.052-0.434c-0.002-0.014-0.015-0.021-0.019-0.034s0.004-0.026-0.002-0.04l-0.156-0.342  c-0.008-0.017-0.026-0.021-0.037-0.034c-0.01-0.015-0.008-0.033-0.021-0.046l-0.247-0.229c-0.015-0.014-0.035-0.01-0.053-0.02  c-0.017-0.01-0.024-0.03-0.044-0.036l-0.318-0.098c-0.017-0.005-0.032,0.006-0.049,0.005c-0.019-0.002-0.03-0.017-0.05-0.015  l-0.373,0.037c-0.014,0.001-0.021,0.015-0.033,0.019c-0.014,0.003-0.025-0.006-0.038,0l-0.103,0.043v0.001l-0.3,0.124  c-0.01,0.004-0.012,0.016-0.021,0.021c-0.01,0.006-0.021,0.001-0.031,0.008l-0.403,0.295c-0.007,0.005-0.007,0.016-0.013,0.021  c-0.007,0.005-0.017,0.003-0.022,0.01l-0.369,0.395c-0.005,0.005-0.003,0.013-0.007,0.018c-0.004,0.006-0.012,0.005-0.016,0.011  l-0.176,0.252l-0.15,0.217c-0.004,0.007,0,0.015-0.004,0.021c-0.004,0.006-0.012,0.007-0.016,0.014l-0.243,0.512  c-0.003,0.007,0.001,0.014-0.001,0.021c-0.003,0.007-0.012,0.009-0.014,0.017l-0.152,0.523c-0.002,0.007,0.003,0.014,0.002,0.021  c-0.002,0.008-0.01,0.011-0.011,0.019l-0.021,0.172c0,0.001,0.001,0.002,0.001,0.003s-0.002,0.002-0.002,0.003l-0.033,0.322  c0,0.005,0.004,0.008,0.004,0.013s-0.005,0.008-0.005,0.013v1.046l-0.272,0.159v-0.747l0.074-0.707l0.217-0.739l0.355-0.731  l0.459-0.677l0.529-0.557l0.559-0.407l0.543-0.23l0.473-0.05l0.377,0.118l0.293,0.271l0.193,0.432l0.074,0.596v1.031l-0.275,0.159  v-0.757C67.721,43.117,67.715,43.114,67.715,43.108z"/><path fill="#000000" d="M68.208,47.375c-0.007-0.011-0.02-0.012-0.027-0.021c-0.02-0.026-0.044-0.039-0.072-0.056  c-0.029-0.018-0.053-0.032-0.087-0.036c-0.011-0.002-0.018-0.013-0.03-0.013c-0.023,0-0.038,0.019-0.06,0.024  s-0.045-0.003-0.064,0.009l-1.553,0.893h-0.001l-3.098,1.789c-0.011,0.006-0.012,0.02-0.021,0.027  c-0.026,0.02-0.039,0.044-0.057,0.073c-0.016,0.028-0.031,0.052-0.035,0.085c-0.002,0.012-0.013,0.02-0.013,0.031v7.162v1.793  c0,0.023,0.019,0.039,0.025,0.061c0.005,0.021-0.003,0.044,0.009,0.064c0.007,0.014,0.021,0.02,0.03,0.03  c0.01,0.012,0.019,0.021,0.03,0.03c0.045,0.038,0.098,0.064,0.155,0.064c0.042,0,0.085-0.011,0.125-0.033l4.65-2.686  c0.001-0.001,0.001-0.003,0.003-0.004c0.011-0.006,0.018-0.02,0.027-0.027c0.012-0.01,0.021-0.018,0.029-0.029  c0.011-0.012,0.024-0.018,0.032-0.031c0.007-0.011,0-0.022,0.005-0.034c0.008-0.021,0.013-0.037,0.016-0.06  c0.002-0.012,0.013-0.02,0.013-0.031V47.5c0-0.023-0.019-0.038-0.024-0.06C68.211,47.417,68.22,47.395,68.208,47.375z   M66.689,48.537l1.053-0.605v8.087l-1.053-0.606V48.537z M63.591,57.488l2.848-1.643l1.052,0.605l-3.899,2.252V57.488z"/><path fill="#000000" d="M68.208,64.675c-0.006-0.011-0.02-0.011-0.025-0.021c-0.021-0.026-0.045-0.039-0.074-0.056  c-0.029-0.018-0.053-0.032-0.086-0.036c-0.012-0.002-0.019-0.013-0.03-0.013c-0.022,0-0.038,0.019-0.059,0.024  c-0.022,0.006-0.046-0.003-0.066,0.009l-1.553,0.896l-3.098,1.789c-0.011,0.006-0.012,0.02-0.021,0.027  c-0.026,0.02-0.039,0.044-0.057,0.073c-0.016,0.028-0.031,0.052-0.035,0.085c-0.002,0.012-0.013,0.02-0.013,0.031v7.162v1.789  c0,0.023,0.019,0.039,0.025,0.061c0.005,0.021-0.003,0.044,0.009,0.064c0.008,0.014,0.021,0.02,0.03,0.03  c0.01,0.012,0.019,0.021,0.03,0.03c0.045,0.037,0.098,0.064,0.155,0.064c0.042,0,0.085-0.011,0.125-0.033l4.65-2.684  c0.002-0.001,0.002-0.004,0.003-0.005c0.012-0.006,0.018-0.019,0.027-0.026c0.012-0.01,0.021-0.019,0.03-0.03  c0.01-0.011,0.023-0.017,0.03-0.03c0.006-0.011,0-0.022,0.005-0.033c0.009-0.021,0.014-0.038,0.017-0.061  c0.002-0.012,0.013-0.02,0.013-0.031V64.8c0-0.023-0.019-0.039-0.025-0.061C68.211,64.718,68.219,64.696,68.208,64.675z   M67.742,73.32l-1.053-0.607v-6.871l1.053-0.607V73.32z M63.591,74.792l2.848-1.646l1.052,0.607l-3.899,2.25V74.792z"/><path fill="#000000" d="M62.782,67.806c-0.006-0.011-0.02-0.011-0.027-0.021c-0.02-0.026-0.044-0.039-0.072-0.056  c-0.029-0.018-0.054-0.032-0.087-0.036c-0.011-0.002-0.019-0.013-0.03-0.013c-0.023,0-0.037,0.019-0.059,0.024  c-0.022,0.006-0.045-0.003-0.066,0.009l-1.552,0.896c-0.001,0-0.001,0.001-0.001,0.001l0,0l-0.256,0.15  c-0.011,0.006-0.012,0.02-0.021,0.026c-0.026,0.021-0.039,0.045-0.056,0.074c-0.017,0.028-0.031,0.052-0.035,0.085  c-0.002,0.012-0.013,0.019-0.013,0.03v7.158v1.789c0,0.023,0.019,0.038,0.024,0.06c0.006,0.022-0.003,0.045,0.009,0.065  c0.008,0.014,0.021,0.02,0.032,0.031c0.009,0.012,0.018,0.02,0.029,0.029c0.045,0.037,0.098,0.064,0.155,0.064  c0.042,0,0.085-0.011,0.124-0.033l1.809-1.039c0.001-0.001,0.001-0.003,0.002-0.003c0.012-0.007,0.018-0.02,0.028-0.028  c0.012-0.01,0.021-0.019,0.03-0.03c0.01-0.011,0.023-0.017,0.031-0.03c0.006-0.011,0-0.022,0.004-0.033  c0.009-0.021,0.014-0.038,0.016-0.061c0.002-0.012,0.014-0.02,0.014-0.031v-8.955c0-0.023-0.02-0.039-0.025-0.061  S62.793,67.827,62.782,67.806z M62.315,76.453l-1.052-0.607v-6.873l1.052-0.607V76.453z M61.007,76.281l0.005-0.003l1.052,0.608  l-1.057,0.607V76.281z"/><path fill="#000000" d="M16.651,58.346c-0.017-0.029-0.03-0.054-0.056-0.073c-0.009-0.008-0.01-0.021-0.021-0.027l-3.099-1.789  l-1.555-0.896c-0.021-0.012-0.044-0.003-0.066-0.009c-0.021-0.006-0.036-0.024-0.059-0.024c-0.012,0-0.019,0.011-0.03,0.013  c-0.034,0.004-0.059,0.019-0.088,0.036c-0.028,0.017-0.051,0.029-0.071,0.055c-0.007,0.01-0.021,0.011-0.027,0.021  c-0.012,0.021-0.003,0.043-0.009,0.065c-0.006,0.021-0.024,0.036-0.024,0.06v8.947c0,0.012,0.011,0.02,0.013,0.031  c0.003,0.022,0.008,0.039,0.016,0.061c0.004,0.01-0.001,0.021,0.004,0.032c0.008,0.014,0.021,0.02,0.031,0.031  s0.019,0.021,0.03,0.03c0.01,0.008,0.017,0.021,0.027,0.027c0.001,0.001,0.001,0.003,0.003,0.004l4.653,2.689  c0.039,0.022,0.083,0.033,0.125,0.033c0.058,0,0.11-0.026,0.155-0.064c0.012-0.01,0.021-0.019,0.03-0.03  c0.01-0.011,0.023-0.017,0.031-0.03c0.012-0.021,0.003-0.043,0.008-0.064c0.006-0.021,0.025-0.037,0.025-0.061v-1.789v-7.162  c0-0.012-0.011-0.02-0.013-0.031C16.683,58.398,16.668,58.375,16.651,58.346z M13.101,63.687l-1.055,0.605v-8.083l1.055,0.608  V63.687z M13.35,64.121l2.85,1.648v1.211l-3.902-2.255L13.35,64.121z"/><path fill="#000000" d="M26.854,46.934c-0.017-0.029-0.03-0.054-0.056-0.073c-0.009-0.008-0.01-0.021-0.021-0.027l-3.099-1.789  l-1.549-0.895c-0.021-0.012-0.043-0.003-0.065-0.008c-0.021-0.007-0.037-0.025-0.06-0.025c-0.013,0-0.02,0.012-0.032,0.014  c-0.032,0.004-0.055,0.019-0.083,0.034c-0.029,0.017-0.054,0.03-0.075,0.057c-0.007,0.01-0.021,0.01-0.026,0.021  c-0.012,0.021-0.003,0.043-0.008,0.064c-0.006,0.021-0.025,0.037-0.025,0.061v8.947c0,0.012,0.011,0.02,0.013,0.031  c0.003,0.022,0.008,0.039,0.017,0.061c0.004,0.011-0.002,0.022,0.004,0.033c0.007,0.014,0.021,0.02,0.031,0.03  c0.01,0.012,0.019,0.021,0.03,0.03c0.01,0.008,0.016,0.021,0.027,0.026c0.001,0.001,0.001,0.004,0.003,0.005l4.647,2.688  c0.039,0.022,0.083,0.033,0.125,0.033c0.058,0,0.11-0.026,0.155-0.064c0.012-0.01,0.021-0.019,0.03-0.03  c0.01-0.011,0.023-0.017,0.031-0.03c0.012-0.021,0.003-0.043,0.008-0.064c0.006-0.021,0.025-0.037,0.025-0.061v-1.789V47.05  c0-0.012-0.011-0.02-0.013-0.031C26.885,46.986,26.87,46.962,26.854,46.934z M23.303,52.275l-1.049,0.605V44.8l1.049,0.605V52.275z   M23.553,52.708l2.849,1.648v1.211l-3.897-2.254L23.553,52.708z"/><path fill="#000000" d="M37.062,70.126c-0.016-0.028-0.029-0.053-0.055-0.072c-0.009-0.008-0.01-0.021-0.021-0.027l-3.104-1.789  l-1.546-0.893c-0.021-0.012-0.043-0.003-0.065-0.008c-0.021-0.007-0.037-0.025-0.06-0.025c-0.013,0-0.02,0.012-0.032,0.014  c-0.032,0.004-0.054,0.019-0.083,0.034c-0.03,0.017-0.055,0.03-0.075,0.057c-0.007,0.01-0.021,0.01-0.026,0.021  c-0.012,0.021-0.003,0.043-0.008,0.064c-0.006,0.021-0.025,0.037-0.025,0.061v8.949c0,0.012,0.011,0.02,0.013,0.031  c0.003,0.022,0.008,0.039,0.017,0.061c0.004,0.011-0.002,0.022,0.004,0.033c0.007,0.014,0.021,0.02,0.031,0.03  c0.01,0.012,0.019,0.021,0.03,0.03c0.01,0.008,0.016,0.021,0.027,0.026c0.001,0.001,0.001,0.004,0.003,0.005l4.65,2.686  c0.04,0.022,0.083,0.033,0.125,0.033c0.058,0,0.11-0.026,0.155-0.064c0.012-0.01,0.021-0.019,0.03-0.03  c0.01-0.011,0.023-0.017,0.031-0.03c0.012-0.021,0.003-0.043,0.008-0.064c0.006-0.021,0.025-0.037,0.025-0.061v-1.791v-7.162  c0-0.012-0.011-0.02-0.013-0.031C37.094,70.179,37.079,70.156,37.062,70.126z M33.506,75.474l-1.046,0.604v-8.082l1.046,0.604  V75.474z M33.757,75.908l2.854,1.643v1.213l-3.9-2.252L33.757,75.908z"/><path fill="#000000" d="M37.062,52.826c-0.016-0.028-0.029-0.053-0.055-0.072c-0.009-0.008-0.01-0.021-0.021-0.027l-3.104-1.789  c0,0-0.001,0-0.001,0l-1.544-0.896c-0.021-0.013-0.043-0.003-0.065-0.009c-0.021-0.007-0.037-0.025-0.06-0.025  c-0.012,0-0.019,0.011-0.03,0.013c-0.034,0.004-0.058,0.019-0.088,0.036c-0.028,0.017-0.052,0.029-0.072,0.056  c-0.007,0.009-0.021,0.01-0.027,0.021c-0.012,0.021-0.003,0.043-0.009,0.064s-0.025,0.037-0.025,0.061v8.951  c0,0.012,0.011,0.02,0.013,0.031c0.003,0.022,0.008,0.039,0.017,0.061c0.004,0.011-0.002,0.022,0.004,0.033  c0.008,0.014,0.021,0.02,0.031,0.03c0.01,0.012,0.019,0.021,0.03,0.03c0.01,0.008,0.016,0.02,0.026,0.026  c0.002,0.001,0.002,0.004,0.004,0.005l4.65,2.686c0.04,0.022,0.083,0.033,0.125,0.033c0.058,0,0.11-0.026,0.155-0.064  c0.012-0.01,0.021-0.019,0.03-0.03c0.01-0.011,0.023-0.017,0.031-0.03c0.012-0.021,0.003-0.043,0.008-0.064  c0.006-0.021,0.025-0.037,0.025-0.061v-1.789v-7.162c0-0.012-0.011-0.02-0.013-0.031C37.094,52.878,37.079,52.855,37.062,52.826z   M33.506,58.169l-1.046,0.605v-8.084l1.046,0.606V58.169z M33.756,58.603l2.854,1.646v1.211l-3.9-2.252L33.756,58.603z"/><path fill="#000000" d="M16.651,41.042c-0.017-0.029-0.03-0.054-0.056-0.073c-0.009-0.008-0.01-0.021-0.021-0.027l-3.099-1.789h0  l-1.555-0.893c-0.021-0.012-0.043-0.003-0.065-0.009c-0.021-0.006-0.036-0.024-0.06-0.024c-0.012,0-0.02,0.012-0.031,0.013  c-0.033,0.005-0.057,0.019-0.085,0.036c-0.029,0.017-0.053,0.03-0.073,0.057c-0.007,0.009-0.021,0.01-0.027,0.021  c-0.012,0.021-0.003,0.042-0.008,0.063c-0.006,0.021-0.025,0.037-0.025,0.061v8.951c0,0.012,0.011,0.02,0.013,0.031  c0.003,0.022,0.008,0.039,0.017,0.061c0.004,0.011-0.002,0.022,0.004,0.033c0.008,0.014,0.021,0.02,0.031,0.03  c0.01,0.012,0.019,0.021,0.03,0.03c0.01,0.008,0.016,0.02,0.026,0.026c0.002,0.001,0.002,0.004,0.004,0.005l4.653,2.686  c0.04,0.022,0.083,0.033,0.125,0.033c0.058,0,0.11-0.026,0.155-0.064c0.012-0.01,0.021-0.019,0.03-0.03  c0.01-0.011,0.023-0.017,0.031-0.03c0.012-0.021,0.003-0.043,0.008-0.064c0.006-0.021,0.025-0.037,0.025-0.061V48.32v-7.162  c0-0.012-0.011-0.02-0.013-0.031C16.683,41.093,16.668,41.07,16.651,41.042z M13.101,46.382l-1.055,0.61v-8.085l1.055,0.605V46.382z   M13.352,46.816l2.848,1.648v1.215l-3.903-2.252L13.352,46.816z"/><path fill="#000000" d="M5.347,69.934l48.312,27.893c0.077,0.045,0.164,0.067,0.25,0.067s0.173-0.022,0.25-0.067L78.97,83.499  l4.399,2.545c0.077,0.045,0.164,0.067,0.25,0.067s0.173-0.022,0.25-0.067l12.452-7.191c0.155-0.089,0.25-0.254,0.25-0.433  s-0.095-0.344-0.25-0.433l-1.558-0.899v-0.605c0-0.179-0.096-0.344-0.25-0.433l-1.299-0.751v-0.605c0-0.179-0.096-0.344-0.25-0.433  l-1.302-0.753v-0.605c0-0.179-0.095-0.344-0.25-0.433l-12.66-7.309l-1.04-0.604v-11.95l2.848-1.646  c0.154-0.089,0.25-0.254,0.25-0.433V31.232v-5.203c0-0.179-0.096-0.344-0.25-0.433l-5.629-3.251l-7.554-7.246v-2.174  c0-0.178-0.095-0.342-0.247-0.432l-0.301-0.176L56.535,6.374c-0.077-0.045-0.163-0.067-0.25-0.067s-0.173,0.022-0.251,0.067  l-1.294,0.75c-0.153,0.09-0.249,0.254-0.249,0.433v0.778l-2.986-0.578l-2.781-0.54l-5.621-3.249C43.025,3.922,42.938,3.9,42.852,3.9  s-0.173,0.022-0.251,0.067l-1.294,0.75c-0.154,0.09-0.249,0.254-0.249,0.433v3.604L40.62,8.667c-0.032-0.007-0.064-0.01-0.096-0.01  c-0.087,0-0.173,0.022-0.25,0.067l-10.647,6.15l-2.084-1.202v-3.33c0-0.179-0.096-0.344-0.25-0.434l-1.034-0.596  c-0.077-0.044-0.164-0.066-0.25-0.066s-0.172,0.022-0.25,0.066l-1.219,0.702l-1.737-1.146v-1.52c0-0.179-0.095-0.343-0.249-0.433  l-1.034-0.6c-0.078-0.045-0.165-0.067-0.251-0.067s-0.173,0.022-0.25,0.067l-4.729,2.734c-0.154,0.089-0.25,0.254-0.25,0.433v1.662  l-3.059,5.544l-1.434,0.825c-0.155,0.09-0.25,0.255-0.25,0.434v7.504l-1.452,0.839l-2.705-1.56c-0.077-0.044-0.163-0.066-0.25-0.066  c-0.086,0-0.172,0.022-0.249,0.066l-1.293,0.742c-0.155,0.089-0.251,0.255-0.251,0.434v43.592  C5.097,69.68,5.192,69.845,5.347,69.934z M6.89,25.457l2.83,1.631l2.361,1.363l-0.792,0.457l-5.189-2.997L6.89,25.457z   M21.269,7.041l0.535,0.31l-4.235,2.446l-0.53-0.31L21.269,7.041z M22.062,9.165c0.003,0.033,0.02,0.057,0.036,0.086  s0.026,0.056,0.051,0.076c0.007,0.006,0.007,0.017,0.015,0.022l2.22,1.463c0,0,0,0,0.001,0l0.968,0.637  c0.002,0.002,0.005,0.001,0.008,0.002c0.04,0.024,0.083,0.039,0.129,0.039c0.042,0,0.083-0.012,0.12-0.032  c0.001-0.001,0.003,0,0.005-0.001l1.177-0.68v2.922l-6.841-0.359c-0.006,0-0.011,0.006-0.018,0.007c-0.014,0-0.025,0.002-0.04,0.005  c-0.031,0.006-0.051,0.024-0.078,0.041c-0.016,0.01-0.032,0.013-0.046,0.025c-0.007,0.007-0.018,0.005-0.024,0.013l-6.665,8.04  v-2.776l1.421-0.824c0,0,0.001-0.001,0.001-0.001h0c0.017-0.01,0.026-0.027,0.041-0.041c0.018-0.016,0.039-0.028,0.052-0.051  c0,0,0-0.001,0-0.002s0.001-0.001,0.002-0.002l3.186-5.771c0-0.001,0-0.001,0-0.001s0,0,0-0.001l0.002-0.004  c0.011-0.02,0.002-0.042,0.007-0.062c0.006-0.021,0.024-0.036,0.024-0.059V10.23l4.234-2.445V9.14  C22.052,9.15,22.061,9.155,22.062,9.165z M26.008,10.037l0.534,0.307l-1.042,0.603l-0.5-0.329L26.008,10.037z M29.456,15.643  l3.872,5.389l-12.361-7.138l6.004,0.315L29.456,15.643z M15.47,23.399l-2.258-1.304l6.783-8.184l13.412,7.744L15.47,23.399z   M17.318,10.229v1.212l-0.528-0.308V9.921L17.318,10.229z M17.231,11.967l-2.947,5.34l-0.596-0.345l2.947-5.341L17.231,11.967z   M13.35,17.345l0.531,0.308l-1.05,0.608l-0.535-0.31L13.35,17.345z M12.581,18.694v3.47c0,0.005,0.004,0.007,0.005,0.012  c0,0.012,0.004,0.02,0.006,0.031c0.005,0.028,0.022,0.048,0.037,0.073c0.013,0.022,0.017,0.048,0.036,0.065  c0.003,0.003,0.002,0.008,0.006,0.011c0.006,0.005,0.015,0.003,0.022,0.008c0.006,0.005,0.006,0.013,0.013,0.017l2.208,1.275  l-2.868,1.654v-6.926L12.581,18.694z M11.921,25.96l3.571-2.061l18.739-1.821c0.008-0.001,0.012-0.009,0.02-0.011  c0.032-0.006,0.062-0.014,0.089-0.031c0.004-0.002,0.008-0.001,0.012-0.004c0.007-0.005,0.007-0.016,0.013-0.021  c0.004-0.003,0.007-0.007,0.01-0.01c0.01-0.011,0.02-0.017,0.028-0.028c0.005-0.008,0.014-0.011,0.019-0.019  c0.008-0.015,0.001-0.03,0.006-0.045c0.009-0.025,0.016-0.046,0.017-0.072c0-0.012,0.011-0.021,0.01-0.032  c-0.001-0.008-0.009-0.012-0.01-0.02c-0.004-0.021-0.016-0.037-0.025-0.058c-0.006-0.014,0-0.03-0.01-0.044l-4.42-6.152l10.578-6.11  l0.941,0.185c0,0,0,0,0.001,0l18.077,3.513L27.693,31.535l-7.244-4.178c-0.011-0.006-0.023,0-0.034-0.005  c-0.03-0.012-0.058-0.012-0.09-0.012c-0.034,0-0.062-0.001-0.092,0.013c-0.011,0.004-0.022-0.002-0.033,0.004l-1.294,0.742  c-0.011,0.006-0.011,0.02-0.021,0.027c-0.018,0.014-0.031,0.026-0.044,0.044c-0.007,0.01-0.021,0.01-0.026,0.021  s0,0.022-0.004,0.033c-0.009,0.021-0.013,0.038-0.016,0.061c-0.002,0.012-0.013,0.019-0.013,0.031v1.09l-6.109-1.191l-2.326-1.344  L11.921,25.96z M56.284,7.095l10.096,5.829l-0.791,0.454L55.491,7.555L56.284,7.095z M66.628,15.167l-0.791,0.455v-1.811  l0.791-0.455V15.167z M66.84,15.623l7.375,7.074l-0.841,0.486l-7.373-7.078L66.84,15.623z M74.629,23.037l5.182,2.992l-0.79,0.457  l-5.185-2.992L74.629,23.037z M73.017,54.451v-5.986l1.428-0.822c0.002-0.001,0.002-0.004,0.004-0.005  c0.011-0.007,0.017-0.019,0.026-0.026c0.012-0.01,0.021-0.019,0.03-0.03c0.01-0.011,0.022-0.017,0.03-0.03  c0.006-0.011,0-0.022,0.005-0.033c0.009-0.021,0.014-0.038,0.017-0.061c0.002-0.012,0.013-0.02,0.013-0.031v-8.949  c0-0.023-0.019-0.038-0.024-0.06c-0.006-0.022,0.003-0.045-0.009-0.065c-0.007-0.011-0.02-0.012-0.027-0.021  c-0.021-0.026-0.044-0.039-0.073-0.056c-0.029-0.018-0.053-0.032-0.086-0.036c-0.011-0.002-0.018-0.013-0.03-0.013  c-0.023,0-0.038,0.019-0.06,0.024s-0.045-0.003-0.064,0.009l-1.179,0.678v-1.412l7.044-4.066v16.926L73.017,54.451z M78.377,65.809  C78.377,65.809,78.377,65.81,78.377,65.809l12.285,7.093L53.909,94.119l-13.45-7.762l10.348-5.977l7.63,4.4c0.001,0,0.001,0,0.001,0  c0.038,0.021,0.081,0.033,0.124,0.033c0.044,0,0.086-0.012,0.124-0.033c0,0,0,0,0.001,0l14.205-8.203  c0.011-0.006,0.012-0.02,0.021-0.027c0.026-0.02,0.039-0.044,0.057-0.073c0.016-0.028,0.031-0.052,0.035-0.085  c0.002-0.012,0.013-0.02,0.013-0.031v-8.803l4.196-2.424L78.377,65.809z M79.22,81.269l1.049,0.605v0.752  c0,0.012,0.011,0.02,0.013,0.031c0.003,0.022,0.008,0.04,0.017,0.061c0.005,0.011-0.001,0.022,0.005,0.033  c0.008,0.014,0.021,0.02,0.03,0.03c0.01,0.012,0.019,0.021,0.03,0.03c0.01,0.008,0.017,0.021,0.027,0.027  c0.002,0.001,0.002,0.003,0.003,0.004l1.427,0.822v0.615l-2.601-1.504V81.269z M83.62,85.021l-1.049-0.607l11.693-6.748l1.049,0.605  L83.62,85.021z M94.014,77.232L82.321,83.98v-0.314l11.693-6.75V77.232z M82.071,83.232l-1.051-0.605l11.695-6.75l1.049,0.605  L82.071,83.232z M92.465,75.443l-11.696,6.75v-0.318l11.696-6.748V75.443z M80.519,81.441l-1.048-0.605l11.692-6.75l1.052,0.607  L80.519,81.441z M90.914,73.652l-12.068,6.967c-0.011,0.006-0.012,0.02-0.021,0.027c-0.019,0.014-0.031,0.026-0.045,0.044  c-0.007,0.01-0.02,0.01-0.025,0.021c-0.007,0.011,0,0.022-0.005,0.033c-0.009,0.021-0.014,0.038-0.017,0.061  c-0.002,0.012-0.013,0.02-0.013,0.031v1.941L54.159,96.96v-2.408l36.755-21.217V73.652z M42.934,72.251  C42.935,72.251,42.935,72.251,42.934,72.251c0.039,0.021,0.082,0.033,0.125,0.033c0.043,0,0.085-0.012,0.123-0.033  c0.001,0,0.001,0,0.002,0l1.691-0.976v4.935v1.791c0,0.023,0.019,0.039,0.025,0.061c0.005,0.021-0.003,0.044,0.008,0.064  c0.008,0.014,0.021,0.02,0.031,0.03c0.01,0.012,0.018,0.021,0.03,0.03c0.045,0.037,0.098,0.064,0.156,0.064  c0.042,0,0.085-0.011,0.125-0.033l4.65-2.684c0.002-0.001,0.002-0.004,0.003-0.005c0.011-0.006,0.017-0.019,0.027-0.026  c0.012-0.01,0.021-0.019,0.03-0.03c0.01-0.011,0.023-0.017,0.031-0.03c0.006-0.011,0-0.022,0.004-0.033  c0.009-0.021,0.014-0.038,0.017-0.061c0.001-0.012,0.013-0.02,0.013-0.031v-7.015l0.531-0.308v11.951l-10.349,5.977V70.677  L42.934,72.251z M11.992,29.08l0.634-0.365l6.154,1.2V30.4L11.992,29.08z M20.323,27.863l7.245,4.178l2.85,1.646l-0.791,0.458  l-10.096-5.827L20.323,27.863z M29.876,34.577l0.79-0.458v1.81l-0.79,0.459V34.577z M30.879,36.382l7.376,7.076l-0.842,0.488  l-7.374-7.076L30.879,36.382z M38.667,43.796l5.183,2.996l-0.791,0.457l-5.186-2.993L38.667,43.796z M66.74,33.296l0.793,0.457  l-4.233,2.443l-0.793-0.455L66.74,33.296z M71.474,36.289l0.685,0.395h0.001c0.001,0.001,0.001,0.001,0.002,0.001l0.106,0.062  l-1.039,0.601l-0.743-0.486L71.474,36.289z M79.805,33.029l-6.788,3.918v-0.199c0-0.012-0.011-0.02-0.013-0.03  c-0.003-0.022-0.008-0.04-0.017-0.061c-0.005-0.012,0.002-0.023-0.005-0.034c-0.006-0.011-0.02-0.012-0.026-0.021  c-0.014-0.018-0.026-0.03-0.044-0.044c-0.01-0.008-0.01-0.021-0.02-0.026l-0.111-0.064l7.023-4.052V33.029z M73.017,46.96  l0.802,0.465l-0.802,0.462V46.96z M74.07,46.992l-1.053-0.609v-6.869l1.053-0.605V46.992z M69.872,37.056c0,0,0.001,0,0.002,0.001  l1.211,0.792c0.002,0.002,0.005,0.001,0.007,0.002c0.04,0.024,0.084,0.039,0.13,0.039c0.042,0,0.083-0.012,0.12-0.032  c0.001-0.001,0.003,0,0.005-0.001l1.171-0.676v0.199v1.984c0,0.002-0.002,0.003-0.002,0.005c0,0.001,0.002,0.003,0.002,0.005v7.15  c0,0.002-0.002,0.003-0.002,0.005s0.002,0.003,0.002,0.005v1.785v6.564v12.529v8.803L58.812,84.13V45.093l1.424-0.82  c0.001,0,0.001-0.001,0.001-0.001c0.016-0.009,0.025-0.027,0.039-0.04c0.018-0.016,0.039-0.028,0.051-0.051  c0.001,0,0-0.001,0.001-0.002s0.001-0.001,0.002-0.002l3.187-5.777l0,0l0,0l0.002-0.004c0.011-0.02,0.002-0.042,0.007-0.062  c0.006-0.021,0.024-0.036,0.024-0.059V36.63l4.234-2.443v1.357c0,0.01,0.01,0.016,0.01,0.024c0.004,0.033,0.02,0.057,0.036,0.086  c0.016,0.029,0.026,0.056,0.052,0.076c0.007,0.006,0.006,0.017,0.015,0.022L69.872,37.056z M49.526,74.884l-1.053-0.607v-5.08  l1.053-0.605V74.884z M45.375,76.355l2.848-1.645l1.052,0.607l-3.9,2.25V76.355z M49.652,67.943  C49.652,67.943,49.652,67.943,49.652,67.943l-1.554,0.893h0L45,70.626l-1.691,0.976V47.683l0.791-0.457v3.779v1.586  c0,0.012,0.011,0.02,0.013,0.031c0.004,0.033,0.019,0.057,0.036,0.085c0.017,0.029,0.03,0.054,0.056,0.073  c0.009,0.008,0.01,0.021,0.021,0.027l1.034,0.598c0,0,0.001,0,0.001,0c0.038,0.021,0.081,0.033,0.124,0.033s0.085-0.012,0.123-0.033  c0.001,0,0.001,0,0.002,0l8.149-4.703v16.926l-2.977,1.717c0,0,0,0.001-0.001,0.001L49.652,67.943z M63.049,37.842l-0.794-0.456  v-1.212l0.794,0.456V37.842z M62.08,37.914l0.021-0.039l0.86,0.495l-2.946,5.343l-0.86-0.499L62.08,37.914z M58.818,43.595  l0.794,0.46l-1.051,0.605l-0.793-0.456L58.818,43.595z M57.018,48.868l-0.534,0.31v-0.615l0.534-0.308V48.868z M55.984,49.177  l-1.825-1.053v-0.617l1.825,1.055V49.177z M51.057,67.707l2.977-1.717c0.011-0.006,0.012-0.02,0.021-0.027  c0.025-0.02,0.039-0.044,0.055-0.072c0.018-0.029,0.031-0.053,0.036-0.086c0.001-0.012,0.013-0.02,0.013-0.031v-17.07l1.95,1.125  c0.001,0,0.001,0,0.002,0c0.038,0.021,0.08,0.033,0.123,0.033c0.044,0,0.087-0.012,0.124-0.034c0.001,0,0.001,0,0.002,0l1.033-0.6  c0.011-0.006,0.012-0.02,0.021-0.026c0.026-0.02,0.04-0.044,0.056-0.073c0.018-0.028,0.031-0.052,0.036-0.085  c0.001-0.012,0.013-0.02,0.013-0.031v-1.189v-3.184l0.794,0.455V84.13l-7.255-4.184V67.707z M61.755,35.742v1.701l-8.595-4.962  l8.596,3.258C61.756,35.74,61.755,35.741,61.755,35.742z M61.524,37.886l-2.892,5.239l-1.489,0.865  c-0.011,0.006-0.012,0.02-0.021,0.026c-0.019,0.014-0.03,0.026-0.044,0.044c-0.008,0.01-0.021,0.011-0.027,0.021  s0,0.022-0.004,0.033c-0.009,0.021-0.014,0.038-0.017,0.061c-0.001,0.011-0.013,0.019-0.013,0.03v3.182l-1.864-1.075l-4.378-14.63  L61.524,37.886z M54.942,46.769l1.825,1.053l-0.533,0.307l-1.824-1.054L54.942,46.769z M53.659,48.125l-8.024,4.631v-0.613  l8.024-4.635V48.125z M45.134,52.755L44.6,52.447v-0.855l0.534,0.513V52.755z M76.963,64.701l-3.946,2.279V55.029l3.946-2.278  V64.701z M80.061,31.232v0.409l-0.79-0.758v-3.964l0.79-0.457V31.232z M78.848,31.17L78.848,31.17l0.793,0.761l-7.357,4.246  l-0.685-0.395c-0.011-0.007-0.023,0-0.035-0.005c-0.03-0.013-0.058-0.012-0.091-0.012s-0.061-0.001-0.091,0.012  c-0.011,0.005-0.022-0.001-0.033,0.005l-1.331,0.771l-1.734-1.144v-1.656c0-0.012-0.012-0.02-0.013-0.031  c-0.003-0.022-0.008-0.04-0.017-0.061c-0.004-0.011,0.002-0.022-0.004-0.033s-0.02-0.012-0.027-0.021  c-0.014-0.018-0.025-0.03-0.043-0.044c-0.01-0.008-0.011-0.021-0.021-0.027l-1.294-0.746c-0.011-0.006-0.022,0-0.034-0.004  c-0.031-0.014-0.059-0.013-0.094-0.013c-0.031,0.001-0.059,0-0.088,0.012c-0.012,0.005-0.023-0.001-0.034,0.005l-4.448,2.57  l-11.722-4.442c-0.026-0.011-0.051,0.003-0.078,0.002s-0.052-0.015-0.077-0.007c-0.002,0-0.003-0.002-0.005-0.001  c-0.005,0.002-0.007,0.008-0.013,0.011c-0.031,0.011-0.05,0.036-0.074,0.06c-0.019,0.017-0.044,0.021-0.058,0.044  c0,0.001,0,0.002,0,0.004c-0.003,0.006-0.002,0.013-0.005,0.02c-0.002,0.006-0.009,0.007-0.012,0.013  c-0.01,0.026,0.003,0.052,0.002,0.078s-0.015,0.053-0.008,0.078c0,0.001-0.001,0.003,0,0.004l4.531,15.139l-0.863,0.495l0,0  l-8.362,4.83L44.6,50.899v-4.106c0-0.012-0.011-0.02-0.013-0.031c-0.003-0.022-0.008-0.039-0.017-0.061  c-0.004-0.011,0.002-0.022-0.004-0.033c-0.006-0.011-0.019-0.011-0.026-0.021c-0.014-0.018-0.026-0.03-0.044-0.044  c-0.009-0.008-0.01-0.021-0.021-0.027l-5.657-3.271l-7.651-7.34v-2.28c0-0.012-0.011-0.02-0.013-0.031  c-0.003-0.022-0.008-0.039-0.017-0.061c-0.004-0.011,0.002-0.022-0.004-0.033c-0.006-0.011-0.02-0.011-0.027-0.021  c-0.013-0.018-0.025-0.03-0.043-0.044c-0.009-0.008-0.01-0.021-0.021-0.027l-2.848-1.645l32.06-18.512L78.848,31.17z M5.847,69.357  V26.343l5.315,3.07c0,0,0.001,0,0.001,0c0.018,0.01,0.038,0.01,0.057,0.016c0.008,0.002,0.011,0.011,0.02,0.013l7.742,1.506  c0.016,0.004,0.032,0.005,0.048,0.005l0,0l0,0h0c0.063,0,0.12-0.027,0.165-0.068c0.015-0.015,0.019-0.033,0.03-0.051  c0.018-0.026,0.043-0.049,0.05-0.083c0.002-0.009-0.006-0.016-0.005-0.025c0-0.008,0.009-0.014,0.009-0.022v-0.994V28.75  l10.097,5.828v2.244c0,0.001,0.001,0.002,0.001,0.003c0,0.021,0.019,0.039,0.024,0.061c0.005,0.021-0.003,0.043,0.008,0.062  c0.008,0.014,0.021,0.02,0.031,0.03c0.005,0.007,0.004,0.016,0.01,0.021c0.001,0.001,0,0.002,0.001,0.003l7.748,7.436  c0.006,0.006,0.016,0.004,0.022,0.009c0.008,0.007,0.014,0.017,0.022,0.022c0.002,0.001,0.002,0.004,0.004,0.005l5.56,3.209v23.918  l-2.726-1.574c-0.021-0.012-0.043-0.003-0.065-0.008c-0.021-0.007-0.037-0.025-0.06-0.025c-0.013,0-0.02,0.012-0.032,0.014  c-0.032,0.004-0.054,0.018-0.083,0.034c-0.03,0.017-0.055,0.03-0.076,0.057c-0.007,0.01-0.021,0.01-0.026,0.021  c-0.012,0.021-0.003,0.043-0.008,0.064c-0.006,0.021-0.025,0.037-0.025,0.061v16.113c0,0.012,0.011,0.02,0.013,0.031  c0.003,0.022,0.008,0.039,0.017,0.061c0.004,0.011-0.002,0.022,0.004,0.033c0.007,0.014,0.021,0.02,0.031,0.03  c0.01,0.012,0.019,0.021,0.03,0.03c0.01,0.008,0.016,0.021,0.027,0.026c0.001,0.001,0.001,0.004,0.003,0.005l13.825,7.979v2.408  L5.847,69.357z M47.958,8.316l0.631-0.362l2.771,0.539c0.001,0,0.001,0,0.001,0l3.379,0.654v0.491L47.958,8.316z M42.852,4.689  l5.193,3.001l-0.792,0.454l-5.195-2.995L42.852,4.689z M47.127,8.65c0,0,0.001,0,0.001,0c0.017,0.01,0.037,0.01,0.056,0.016  c0.008,0.002,0.011,0.011,0.02,0.013l7.738,1.508c0.016,0.003,0.032,0.005,0.048,0.005l0,0l0,0l0,0c0.064,0,0.121-0.027,0.166-0.068  c0.015-0.015,0.018-0.033,0.029-0.051c0.019-0.026,0.043-0.049,0.051-0.083c0.002-0.009-0.006-0.016-0.006-0.025  c0.001-0.008,0.01-0.014,0.01-0.022v-1V7.989l10.097,5.823v2.242c0,0.001,0.001,0.002,0.001,0.003c0,0.021,0.019,0.039,0.024,0.06  c0.005,0.021-0.003,0.043,0.008,0.062c0.008,0.014,0.021,0.02,0.032,0.031c0.004,0.006,0.004,0.016,0.01,0.021  c0.001,0.001,0,0.002,0.002,0.003l7.748,7.439c0.007,0.006,0.016,0.004,0.021,0.009c0.01,0.007,0.016,0.018,0.024,0.023  c0.001,0.001,0.001,0.003,0.003,0.004l5.56,3.209v3.483L60.465,12.821c-0.018-0.016-0.041-0.013-0.06-0.022  c-0.021-0.012-0.036-0.032-0.06-0.037c-0.002-0.001-0.004-0.004-0.007-0.005L41.808,9.155V5.583L47.127,8.65z M96.064,78.424v-0.01  l0.008,0.005L96.064,78.424z"/><text x="0" y="115" fill="#000000" font-size="5px" font-weight="bold" font-family="'Helvetica Neue', Helvetica, Arial-Unicode, Arial, Sans-serif">Created by Lluisa Iborra</text><text x="0" y="120" fill="#000000" font-size="5px" font-weight="bold" font-family="'Helvetica Neue', Helvetica, Arial-Unicode, Arial, Sans-serif">from the Noun Project</text></svg>