<?xml version="1.0" encoding="utf-8"?>
<!-- Svg Vector Icons : http://www.onlinewebfonts.com/icon -->
<!DOCTYPE svg PUBLIC "-//W3C//DTD SVG 1.1//EN" "http://www.w3.org/Graphics/SVG/1.1/DTD/svg11.dtd">
<svg version="1.1" xmlns="http://www.w3.org/2000/svg" xmlns:xlink="http://www.w3.org/1999/xlink" x="0px" y="0px" viewBox="0 0 1000 1000" enable-background="new 0 0 1000 1000" xml:space="preserve">
<metadata> Svg Vector Icons : http://www.onlinewebfonts.com/icon </metadata>
<g><g transform="translate(0.000000,511.000000) scale(0.100000,-0.100000)"><path d="M6877.1,4207.4c-73.9-27.2-408.4-352-2162.4-2104.1C2460.8-144.7,2548.3-49.4,2554.1-261.3c3.9-215.8-19.4-188.6,1343.7-1547.9c1378.8-1374.9,1291.3-1301,1532.4-1301c70,0,143.9,15.5,192.5,37c54.5,25.3,719.5,680.6,2150.8,2113.8c2238.3,2244.1,2125.5,2117.7,2125.5,2331.6c0,210,46.7,155.6-1308.8,1514.9c-888.7,890.7-1279.6,1271.8-1336,1297.1C7137.7,4236.6,6982.1,4246.3,6877.1,4207.4z M7466.3-683.3L5408.9-2740.8L4238.2-1570.1C3592.6-924.5,3065.6-393.6,3065.6-387.7s733.1,177,1629.6,379.2c1425.4,322.8,1633.5,375.3,1682.1,418.1c50.6,46.7,72,134.2,412.3,1652.9c198.3,882.9,365.6,1617.9,371.4,1633.5c5.9,17.5,400.6-363.7,1184.3-1147.3l1176.5-1176.5L7466.3-683.3z M6379.3,2109.2C6212,1362.4,6070,744,6062.3,736.3c-7.8-7.8-616.4-151.7-1353.5-317C3969.8,252,3349.5,112,3328.1,106.2c-21.4-5.8,721.5,750.6,1652.9,1682.1c929.5,929.5,1693.8,1689.9,1695.7,1686C6680.7,3470.4,6546.5,2855.9,6379.3,2109.2z"/><path d="M2258.5-1231.7c-31.1-15.6-530.9-499.8-1108.4-1079.3L100-3363v-89.5c0-75.8,9.7-97.2,64.2-145.8c70-64.2,149.7-73.9,233.4-29.2c64.2,35,2090.5,2065.2,2121.6,2125.5c48.6,97.2-1.9,225.6-105,270.3C2334.4-1198.7,2332.4-1198.7,2258.5-1231.7z"/><path d="M3131.7-2073.7c-21.4-3.9-369.5-338.4-772-740.9l-733.1-735.1v-87.5c0-153.6,136.1-245,274.2-186.7c38.9,17.5,353.9,318.9,770.1,735.1c766.2,772,768.1,774,696.2,912.1c-27.2,54.4-134.2,122.5-178.9,114.7C3180.3-2064,3155-2069.9,3131.7-2073.7z"/><path d="M3979.6-2929.4c-15.6-5.8-206.1-186.7-422-402.5l-394.8-390.9v-89.4c0-72,9.7-97.2,56.4-142c72-70,184.7-75.8,268.4-15.6c29.2,21.4,208.1,194.5,396.7,387c373.4,375.3,394.8,410.3,340.3,538.7C4185.7-2950.8,4071-2896.3,3979.6-2929.4z"/></g></g>
</svg>