<svg xmlns="http://www.w3.org/2000/svg" xmlns:xlink="http://www.w3.org/1999/xlink" version="1.1" x="0px" y="0px" viewBox="0 0 100 125" enable-background="new 0 0 100 100" xml:space="preserve">

<style>
.grad1 {
fill: url(#grad1);
}
.grad2 {
fill: url(#grad2);
}
.grad3 {
fill: url(#grad3);
}
.leaf {
fill: #8bc34a;
}
</style>

<defs>

<path
id="leaf"
d="M 10.0107,39.0535 C 7.13161,38.8487 5.62645,37.8109 4.85338,36.6592 C 5.00155,33.8554 5.43084,30.3632 6.63731,27.1939 C 7.32897,25.379 8.31054,23.736 9.51466,22.5283 C 10.8312,21.0887 12.0477,19.981 13.2734,19.0676 C 15.6928,17.2757 17.8153,16.4951 18.487,16.2205 C 19.1664,15.9584 20.3846,15.4657 21.8587,14.9171 C 23.3281,14.4139 25.1079,13.6857 26.6271,12.7954 C 29.7417,11.0923 32.3233,9.1704 32.3192,9.1697 C 32.3244,9.1704 29.5642,10.7002 26.3571,11.97 C 24.7389,12.6598 23.0856,13.1133 21.5424,13.4705 C 20.0238,13.8611 18.7412,14.2588 18.0349,14.532 C 16.7142,15.0834 8.80133,17.6154 4.75967,26.103 C 3.84546,28.2709 3.27209,30.5135 2.90078,32.6149 C 1.98715,32.0992 0.849796,31.1012 0.53998,29.2541 C 0,26.0359 0.300445,16.3791 9.05141,11.0147 C 17.803,5.65096 27.5736,6.723 32.2495,5.14988 C 36.9248,3.57675 38.7831,0 38.7831,0 C 38.7831,0 34.8867,36.4069 10.0107,39.0535 z"
/>

<linearGradient id="grad1" x1="0%" y1="0%" x2="100%" y2="100%">
<stop offset="0%" style="stop-color:rgb(200,30,256);stop-opacity:1" />
<stop offset="80%" style="stop-color:blue;stop-opacity:1" />
</linearGradient>
<linearGradient id="grad2" x1="0%" y1="0%" x2="100%" y2="100%">
<stop offset="0%" style="stop-color:orange;stop-opacity:1" />
<stop offset="80%" style="stop-color:rgb(200,120,256);stop-opacity:1" />
</linearGradient>
<linearGradient id="grad3" x1="0%" y1="0%" x2="100%" y2="100%">
<stop offset="0%" style="stop-color:yellow;stop-opacity:1" />
<stop offset="80%" style="stop-color:red;stop-opacity:1" />
</linearGradient>
<g id="flower">

<circle cx="50.5" class="circle" fill="#F9C80E" cy="48.9" r="10.7" />
<g class="flower">
<path d="M95.5,49.9c0-1.2-3.2-2.3-7.9-2.8c4.7-1.1,7.9-2.6,7.7-3.8c-0.2-1.6-5.7-2.2-12.9-1.7c6.7-2.4,11.4-5.3,10.9-6.7   c-0.5-1.6-6.6-1.1-14.1,1c6.4-4.4,10.7-8.8,9.8-10.2c-1-1.5-7.8,1.2-15.3,6c-0.2,0.1-0.3,0.2-0.5,0.3c6.2-6.2,10.1-12.2,8.9-13.5   c-1.1-1.1-5.5,1.6-10.7,6.2c3.2-6.2,4.7-11.3,3.4-12.1c-1.3-0.8-4.8,2.8-8.5,8.2c1.6-6.7,1.8-11.9,0.4-12.3   c-0.6-0.2-1.4,0.5-2.3,1.7c0.1-2-0.2-3.3-0.8-3.5c-1.7-0.6-5.4,5.8-8.3,14.1c-0.7,2.2-1.3,4.2-1.8,6.1c0.1-1.8,0.2-3.8,0.2-5.9   c0-8.9-1.5-16.1-3.3-16.1c-1.6,0-2.9,5.6-3.2,13c-2.1-7.7-4.8-13.4-6.5-13c-1.8,0.4-1.5,7.8,0.6,16.4c0,0.2,0.1,0.4,0.2,0.6   c-3.8-7.9-8.2-13.6-9.8-12.9c-1.4,0.7-0.3,5.8,2.3,12.1c-4.8-5.1-9.1-8.2-10.2-7.2c-1.1,1,1,5.4,4.9,10.8   c-5.8-3.7-10.6-5.7-11.5-4.5c-0.4,0.5,0,1.5,0.9,2.7c-1.8-0.8-3.1-0.9-3.6-0.4c-1.1,1.4,3.6,7,10.6,12.5c1.8,1.4,3.5,2.7,5.2,3.7   c-1.7-0.7-3.5-1.5-5.5-2.2c-8.4-3-15.6-4-16.2-2.3c-0.6,1.7,5.7,5.5,14,8.4c0.7,0.2,1.4,0.5,2.1,0.7c-0.6,0-1.2,0-1.9,0   c-8.9-0.1-16.1,1.3-16.1,3.1c0,1.4,4.6,2.7,10.9,3.2c-7.6,1.6-13.3,3.9-13,5.6c0.3,1.8,7.6,2,16.4,0.5c0.2,0,0.4-0.1,0.6-0.1   c-8.1,3.3-14.1,7.3-13.5,8.9c0.6,1.4,5.7,0.7,12.2-1.5c-5.4,4.4-8.8,8.5-7.9,9.8c0.9,1.2,5.5-0.7,11.1-4.2   C19.4,74.3,17.1,79,18.3,80c0.5,0.4,1.5,0.1,2.8-0.7c-0.9,1.8-1.1,3.1-0.6,3.6c0.9,0.8,3.6-0.7,7-3.6c-2.3,4.4-3.2,7.8-2.2,8.5   c1,0.7,3.6-1.4,6.7-5.1c-1,3.8-1.1,6.4-0.1,6.9c0.4,0.2,1.1-0.1,1.8-0.8c-0.1,1.6,0.1,2.6,0.7,2.8c1.4,0.6,4.4-3.7,7.3-9.9   c-0.5,7,0.2,12.3,1.7,12.4c1.5,0.2,3.3-4.5,4.5-11c1.2,6.8,3.1,11.6,4.6,11.5c0.6-0.1,1.1-1,1.4-2.5c0.7,1.9,1.5,2.9,2.2,2.9   c1.8-0.2,2.7-7.4,1.9-16.3c-0.2-2.3-0.5-4.4-0.8-6.3c0.6,1.7,1.3,3.6,2.2,5.5c3.6,8.1,7.8,14.1,9.4,13.4c1-0.5,0.8-3.5-0.4-7.6   c3,3.5,5.5,5.5,6.4,4.8c1.5-1-1.2-7.8-6-15.3c-0.1-0.2-0.2-0.3-0.3-0.5c6.2,6.2,12.2,10.1,13.5,8.9c1.1-1.1-1.6-5.5-6.2-10.7   c6.2,3.2,11.3,4.7,12.1,3.4c0.8-1.3-2.8-4.8-8.2-8.5c6.7,1.6,11.9,1.8,12.3,0.4c0.2-0.6-0.5-1.4-1.7-2.3c2,0.1,3.3-0.2,3.5-0.8   c0.6-1.7-5.8-5.4-14.1-8.3c-2.2-0.7-4.2-1.3-6.1-1.8c1.8,0.1,3.8,0.2,5.9,0.2C88.3,53.2,95.5,51.7,95.5,49.9z M66.5,56.1   c-3-0.3-5,0-5.3,0.9c-0.1,0.2,0,0.4,0.1,0.6c-0.5,0-0.9,0.2-1.1,0.5c-0.1,0.2-0.1,0.4-0.1,0.6c-0.4,0-0.7,0-0.9,0.2   c-0.6,0.6-0.1,2,1.1,4c-1.4-1.2-2.4-1.6-3-1.3c-0.2,0.1-0.3,0.3-0.3,0.6c-0.4-0.3-0.8-0.4-1.1-0.2c-0.7,0.3-0.8,1.6-0.5,3.6   c-0.7-1.6-1.4-2.5-2-2.5c-0.8,0.1-1.5,1.7-1.8,4.2c-0.9-2.9-2-4.6-2.9-4.5c-0.2,0-0.3,0.1-0.5,0.3c-0.2-0.5-0.5-0.7-0.9-0.8   c-0.2,0-0.4,0.1-0.6,0.2c-0.1-0.4-0.3-0.6-0.5-0.7c-0.3-0.1-0.6,0-1,0.2c0-1-0.2-1.7-0.7-1.9c-0.5-0.2-1.1,0.1-1.8,0.8   c-0.2,0-0.4,0-0.7,0.1c0.3-1,0.3-1.7,0-2c-0.6-0.6-2.2,0.1-4.3,1.5c1.4-2.6,2-4.6,1.3-5.2c-0.1-0.1-0.3-0.2-0.6-0.2   c0.2-0.5,0.2-0.9,0-1.2c-0.1-0.2-0.3-0.2-0.5-0.3c0.2-0.3,0.2-0.6,0.1-0.9c-0.3-0.7-1.8-0.9-4.1-0.6c1.6-0.8,2.5-1.6,2.4-2.3   c-0.1-0.4-0.5-0.7-1.1-0.9c2.3-0.5,3.6-1.3,3.6-2c0-0.4-0.4-0.8-1-1.1c0.6-0.1,0.9-0.4,1-0.7c0.2-0.7-0.6-1.7-2.3-2.9   c1.6,0.6,2.8,0.7,3.2,0.2c0.5-0.7-0.2-2.2-1.8-4.2c2.7,1.3,4.7,1.7,5.2,0.9c0.1-0.1,0.1-0.3,0.1-0.6c0.5,0.1,0.9,0.1,1.2-0.1   c0.1-0.1,0.2-0.3,0.3-0.6c0.3,0.2,0.7,0.2,0.9,0.1c0.7-0.3,0.8-1.8,0.3-4.1c0.9,1.5,1.8,2.4,2.4,2.2c0.3-0.1,0.5-0.4,0.7-0.8   c0.4,1.1,0.9,1.7,1.5,1.7c0.7,0,1.4-1.2,1.9-3.1c0,1.7,0.2,2.9,0.9,3.1c0.8,0.3,2-0.9,3.3-3.1c-0.3,3,0,5,0.9,5.3   c0.2,0.1,0.4,0,0.6-0.1c0,0.5,0.2,0.9,0.5,1.1c0.2,0.1,0.4,0.1,0.6,0.1c0,0.4,0,0.7,0.2,0.9c0.6,0.6,2,0.1,4-1.1   c-1.2,1.4-1.6,2.4-1.3,3c0.1,0.2,0.4,0.4,0.8,0.4c-0.2,0.3-0.3,0.6-0.2,0.9c0.2,0.6,1.1,0.9,2.6,0.9c-1.2,0.6-1.9,1.3-1.8,1.8   c0.1,0.5,0.7,0.9,1.8,1.2c-1.2,0.5-1.8,1-1.8,1.5c0,0.7,1.2,1.4,3.1,1.9c-1.7,0-2.9,0.2-3.1,0.9C63.1,53.5,64.3,54.7,66.5,56.1z"/>
</g>
</g>
</defs>

<g transform="scale(1) translate(5.25,5.25)">
<use xlink:href="#flower" class="grad1" transform="scale(0.65)" x="0" y="0"/>
<use xlink:href="#flower" class="grad2" transform="scale(0.55)" x="70" y="90"/>
<use xlink:href="#flower" class="grad3" transform="scale(0.35)" x="170" y="30"/>
<g id="leafs" transform="translate(10)">
<use xlink:href="#leaf" class="leaf" transform="scale(.85) rotate(185)" y="-110" x="-25"/>
<use xlink:href="#leaf" class="leaf" transform="scale(.5) rotate(130)" y="-165" x="85"/>
</g>
</g>

</svg>

