<svg xmlns="http://www.w3.org/2000/svg" xmlns:xlink="http://www.w3.org/1999/xlink" x="551.850286577237" y="280.299426845526" viewBox="0 -25 500 525" id="svgcontent" overflow="visible" width="280.29942684552606" height="280.29942684552606"><defs style="pointer-events: inherit"></defs><g id="state" style="pointer-events:all"><title style="pointer-events: inherit">Layer 1</title><g id="svg_4">

<path stroke="#000" stroke-width="15" fill="none" d="M272.1413879394531,116.83577874483672 C277.11712646484375,115.46283286388825 281.31158447265625,110.63900961912805 285.1358947753906,110.26794629260803 C288.9602355957031,109.93398544113188 292.7845153808594,113.71885451728485 295.4574890136719,110.26794629260803 S299.65191650390625,105.11016219637168 303.10614013671875,104.40516116402432 C306.56036376953125,103.70013698602816 311.1248474121094,102.69825443159971 313.4277038574219,101.65927711734366 C315.73052978515625,100.62029208787135 318.0333557128906,99.2473693525717 321.4464416503906,99.95239353056786 C324.90069580078125,100.65741770856403 329.4651794433594,103.73723946107202 334.0708312988281,103.40327860959587 C338.67645263671875,103.06931775811972 339.04656982421875,101.32533169630005 341.719482421875,102.03035587429622 C344.3923645019531,102.73535690664357 347.0652770996094,104.77621677532807 349.73822021484375,102.36429358012356 C352.4111022949219,99.95239353056786 354.3438720703125,98.5794476496194 358.90838623046875,95.12856257059138 C363.5140075683594,91.67767749156337 374.5346984863281,81.65896767552294 380.6617736816406,77.24330251711035 C386.7889709472656,72.75343240861002 392.5049133300781,69.63648503540935 399.7423400878906,67.22456184020484 S413.5181579589844,58.949853516416624 418.49383544921875,57.91089163259312 S441.028564453125,51.00910218649642 446.3743896484375,49.30219931167994 C451.7202453613281,47.59531572490414 468.4979553222656,41.36144798175974 468.4979553222656,41.36144798175974 L471.95220947265625,204.7036207560741 C471.95220947265625,204.7036207560741 468.9091491699219,207.44951251797102 466.9764709472656,207.44951251797102 C465.0848388671875,207.44951251797102 463.5221862792969,204.7036207560741 460.47918701171875,207.44951251797102 C457.4361572265625,210.1953888494354 457.8063049316406,212.60730432942364 460.8492736816406,218.50720736348376 C463.8923034667969,224.40711039754387 464.6735534667969,225.74295380344847 463.8923034667969,228.525940325173 C463.11102294921875,231.3088805555999 462.7409362792969,234.05477231749683 462.7409362792969,234.05477231749683 L461.21942138671875,235.42771048322902 C461.21942138671875,235.42771048322902 463.8923034667969,235.76165590427263 463.8923034667969,240.25155687363804 C463.8923034667969,244.74142698213836 466.5652770996094,242.32948064128504 464.6735534667969,246.44831056891417 C462.781982421875,250.6042043955058 464.30352783203125,251.79160704036985 461.630615234375,252.7192537838455 C458.95770263671875,253.64691595775366 458.95770263671875,253.98089223966235 458.5876159667969,257.2833442728661 C458.2174987792969,260.5858271669349 456.2847900390625,260.54867068537715 454.7632751464844,264.7046108032664 S455.5445556640625,271.2724201098463 453.9819030761719,271.9403418127986 C452.4193420410156,272.6082635157509 450.9389953613281,273.64728712130454 451.3089904785156,275.3912037461778 C451.67913818359375,277.09814905468374 452.8305358886719,283.33198207935493 451.67913818359375,286.0778584108193 C450.52777099609375,288.8237656031488 448.6360778808594,291.2356656527045 449.3763427734375,293.3136202812166 C450.11651611328125,295.39157490972866 448.224853515625,295.39157490972866 446.703369140625,295.0205038679924 C445.18194580078125,294.6865275860837 445.92205810546875,296.0594657518159 446.3332824707031,297.76638019945676 C446.703369140625,299.47326378623256 444.0304870605469,301.55121841474465 444.0304870605469,301.55121841474465 S442.5090026855469,305.002142069854 442.8790283203125,308.4530040032332 C443.2491760253906,311.9038967974775 440.2061462402344,310.8649040527889 439.0547180175781,311.5699205155688 S440.94635009765625,317.09879879919026 441.7276611328125,318.80568238596607 C442.5090026855469,320.51256597274187 439.4248962402344,320.17862055169826 439.0547180175781,323.62948248507746 C438.6846618652344,327.0804061401868 438.2734375,331.9042371001633 435.23040771484375,331.9042371001633 C432.1873779296875,331.9042371001633 422.6060485839844,337.95253460396634 418.7817077636719,342.4424510037643 C414.9574279785156,346.9323056818321 413.0657043457031,350.9026794179881 413.0657043457031,352.6095630047639 C413.0657043457031,354.3164774524048 409.2414245605469,349.15867021051963 407.71990966796875,352.6095630047639 C406.198486328125,356.0604557990082 404.2657470703125,358.472386709429 403.5255126953125,359.8452940142961 C403.5255126953125,359.8452940142961 398.46746826171875,358.9918676513407 396.6581726074219,359.8452940142961 C393.2039489746094,361.55220846193697 389.2151184082031,366.48732370139624 387.85809326171875,366.4131650426061 C384.0337829589844,366.07918876069743 384.8150939941406,361.92331036453834 383.25244140625,359.5113485932525 C381.73101806640625,357.0994485436968 379.05804443359375,356.3944320809169 377.1253967285156,358.472386709429 C375.2336730957031,360.550310477076 371.9439697265625,362.9622105266317 369.4766540527344,364.6690941134075 C367.00933837890625,366.3760702827785 367.1738586425781,374.6878270750967 367.1738586425781,374.6878270750967 S364.50091552734375,374.16840785491513 359.15509033203125,374.16840785491513 S354.17938232421875,377.8047744482974 354.17938232421875,379.17774347489467 S351.46533203125,381.1072573423662 349.9849853515625,382.62860540827387 C346.16064453125,386.4135053452919 351.1363830566406,391.94229104631813 349.20367431640625,395.0592384195188 C347.3121032714844,398.1761857927195 345.00921630859375,398.84413835653686 343.48773193359375,398.1761857927195 C341.9662170410156,397.4711693299396 342.3363037109375,401.62707858696376 344.2690124511719,403.33396217373956 C346.2017517089844,405.04084576051537 347.7232971191406,408.1578239945811 346.5718688964844,409.53070043858315 C345.42041015625,410.9037003260455 347.35321044921875,415.0595787222046 347.35321044921875,416.0985714668932 C347.35321044921875,417.1375333507167 343.52880859375,416.61802154793986 341.63720703125,415.57905966411636 C339.7456359863281,414.54009778029285 339.7456359863281,417.805455053669 337.8128967285156,420.25448072391737 C335.8801574707031,422.70347553330066 333.0428161621094,423.8909090390298 331.3157043457031,422.33243535242946 C327.8614196777344,419.2154571183637 332.837158203125,418.54759713714157 332.837158203125,417.1745972496792 C332.837158203125,415.8016899448121 332.0558776855469,411.645811548653 330.1642761230469,409.9388971010121 C328.2726745605469,408.2320135142363 326.7100524902344,409.6049516799685 325.1885070800781,408.2320135142363 C323.6669921875,406.8590753485041 323.29693603515625,403.7421588361685 320.99407958984375,404.0761351180772 S317.5398864746094,408.8999352171886 317.5398864746094,408.8999352171886 S314.0856628417969,410.6068188039644 311.8239440917969,414.7626972001235 C309.5211486816406,418.91866817887785 307.21826171875,421.5161037493017 307.6295166015625,422.96326229555416 C307.9996032714844,424.41035912007646 308.7808837890625,427.15623545154085 307.25946044921875,428.9002755198744 C305.7379455566406,430.60712824578513 301.1322937011719,430.2732136856066 300.3921203613281,432.3511374532536 C299.6107482910156,434.4290920817657 303.0650329589844,436.8409921313214 303.0650329589844,440.2918849255657 S303.0650329589844,447.19367051405425 304.21636962890625,450.3106178872549 C305.3677978515625,453.4275652604556 305.3677978515625,455.8394653100113 303.8463134765625,457.2124034757435 C302.3247985839844,458.5853416414757 300.0219421386719,455.5055198889677 296.97894287109375,457.2124034757435 S293.5247497558594,460.66329626998777 292.3733215332031,466.86006539569644 C291.221923828125,473.0568345214051 290.4817199707031,476.1737201728756 284.72467041015625,476.8787674965206 C279.0086975097656,477.58381482016557 272.67596435546875,480.5522905714606 269.098388671875,480.66363657267357 C260.29833984375,480.8862668533693 260.29833984375,480.8862668533693 260.29833984375,474.8008128680085 C260.29833984375,470.1625174289002 255.32260131835938,471.68386549480783 252.649658203125,468.23300356142863 C249.97677612304688,464.78207990631927 249.97677612304688,463.40920346231724 243.1094512939453,462.70415613867226 S232.00656127929688,456.5073870129636 232.00656127929688,453.0565250795844 S233.15797424316406,447.89868697683414 232.00656127929688,445.44969216745085 C230.85513305664062,443.0006664972025 235.049560546875,438.5479065789623 232.00656127929688,438.5479065789623 S223.98780822753906,440.62589206833945 221.68495178222656,441.9987685123415 C219.3821563720703,443.37176839980384 217.49053955078125,440.2918849255657 215.5578155517578,441.9987685123415 C213.66622924804688,443.7056520991173 211.7334747314453,446.1547394910958 208.6905059814453,447.8616230778716 C205.64747619628906,449.56850666464743 206.01754760742188,452.35144689507433 203.7147674560547,454.4294323844515 C201.4119110107422,456.5073870129636 196.0661163330078,454.4294323844515 193.3931884765625,454.4294323844515 C190.72027587890625,454.4294323844515 189.19874572753906,457.5463488967871 187.2660369873047,457.5463488967871 C185.3744354248047,457.5463488967871 184.59310913085938,452.3885416549019 181.92019653320312,450.9785395902072 C179.24728393554688,449.60557056360994 175.05287170410156,448.90055410083005 171.22853088378906,447.52764679596294 C167.40419006347656,446.1547394910958 165.88272094726562,443.03779211789515 162.79855346679688,444.41069942276226 C159.7555694580078,445.78366844935954 154.3686065673828,443.7056520991173 153.25833129882812,446.11758300953807 C152.1068878173828,448.52951391995884 152.1068878173828,453.0194303197568 149.43397521972656,453.35331401907024 C146.7610626220703,453.68729030097893 138.74232482910156,450.60746854847093 137.59092712402344,448.86345934100245 C136.4395294189453,447.11948099439905 136.80960083007812,443.3346119182461 134.54791259765625,443.3346119182461 C132.28619384765625,443.3346119182461 131.50489807128906,440.5887664476468 128.83197021484375,438.1768663980911 C126.1590576171875,435.7649354876703 124.6375732421875,436.0988809087139 120.813232421875,434.3919973219381 C116.98892211914062,432.6851137351623 112.38327026367188,434.0580210400294 108.55894470214844,434.3919973219381 C104.73460388183594,434.7259736038468 92.1102294921875,430.9411353885589 90.25975036621094,428.86311903831665 C88.36814880371094,426.78519527066965 91.78125,420.25448072391737 89.10833740234375,418.5104715164489 C86.4354248046875,416.803557068808 83.39241027832031,412.3137023907402 82.98118591308594,406.07983850520395 C82.611083984375,400.55102194331266 74.96243286132812,401.5899529662711 71.87831115722656,400.217045661404 C68.83529663085938,398.84413835653686 69.9866943359375,392.9812837910067 68.83529663085938,391.94229104631813 C67.68389892578125,390.9033600233597 63.48945999145508,392.6473383699631 60.81654739379883,394.0202765356953 C58.14363479614258,395.3931838405624 56.416507720947266,394.3542219567389 54.11368942260742,396.0982620250725 C51.81086730957031,397.8051456118483 45.88933563232422,395.3931838405624 43.21641540527344,392.6473383699631 C40.54350280761719,389.9014620384987 39.76218032836914,385.74555278147454 38.240684509277344,386.4506001051195 C36.71916580200195,387.1556165678994 35.56776809692383,389.9014620384987 34.04624938964844,390.9404547831873 S29.44062042236328,392.3133620880544 29.44062042236328,392.3133620880544 L40.13228988647461,75.98167949172603 L171.10516357421875,72.53079441269801 L172.99679565429688,73.23581087547791 C172.62669372558594,73.53267696712646 174.14820861816406,72.75343240861002 174.47715759277344,72.56788917252561 C174.27154541015625,75.87035663616189 171.22853088378906,78.09674431049825 169.09022521972656,80.36024217509475 C166.9518585205078,82.62372460925872 166.6229248046875,85.36959322550683 163.95001220703125,87.33623271367105 C166.6640167236328,86.7796338662829 167.9799346923828,83.47716640264662 169.83041381835938,81.73316491039441 C171.80422973632812,79.84074580275046 174.0248260498047,77.28039727693795 176.36875915527344,76.0187819667699 C176.24539184570312,76.50117586407032 176.57437133789062,77.20620004206648 176.5332489013672,77.6143581284141 C178.58934020996094,78.4307051619744 186.48472595214844,79.72942294718632 186.7725830078125,76.42695548355005 C187.59503173828125,77.24330251711035 188.66416931152344,77.6143581284141 189.81556701660156,77.7627834590221 C189.98008728027344,77.94831897989025 189.98008728027344,78.13386221597466 189.81556701660156,78.31938230641026 C189.23989868164062,78.35650021188667 188.86978149414062,78.69044563293028 188.41744995117188,78.83886324832201 C190.30905151367188,80.76840797665864 198.2455596923828,80.28602179457448 196.4362030029297,84.5532539071628 C197.99884033203125,84.7387739975984 199.5203399658203,85.40671113098324 200.91847229003906,85.70355407698298 C202.6866912841797,86.03751492845913 204.16708374023438,85.74064883681058 205.8942108154297,86.44567301480674 C207.7446746826172,87.1877919526305 208.52598571777344,88.33809983766696 210.49984741210938,88.74627335444711 C212.555908203125,89.154439156011 212.7615509033203,89.154439156011 213.99517822265625,90.71289741217879 C217.9840087890625,95.38830304154726 222.46630859375,98.91340850109555 228.716796875,100.73161494343549 C230.5673065185547,99.13605421222383 236.98226928710938,94.08958525633534 234.59722900390625,91.56633920556669 C236.52992248535156,90.71289741217879 238.6682586669922,90.49025941626678 237.92807006835938,93.16192308242717 C235.049560546875,93.3103406978189 236.365478515625,95.94490960415169 235.00845336914062,97.20652491431974 C236.69439697265625,96.1675476000637 237.84580993652344,94.57196372320323 239.44956970214844,93.60720678946745 C239.6551971435547,94.08958525633534 241.1767120361328,95.20278295111166 241.13558959960938,95.64804351250314 C240.9711151123047,96.53861092658371 239.28509521484375,96.35309083614811 238.83273315429688,97.31783233945134 C240.68324279785156,97.80022623675177 242.4514923095703,96.57570568641131 244.1374969482422,96.31596521545544 C246.02908325195312,96.01910683902315 248.0029296875,96.46439054606344 249.8533935546875,96.72414644745186 C250.38796997070312,98.46813250927153 248.57861328125,100.32345685708788 249.48330688476562,101.77059225769153 C247.55059814453125,101.25111131577978 246.974853515625,101.39953664638779 244.91876220703125,101.8076947327354 C243.191650390625,102.17877348968796 242.08139038085938,101.8448126382118 240.3131103515625,101.8076947327354 C238.38040161132812,101.77059225769153 237.7636260986328,102.51271891073156 236.1187286376953,102.84669519264025 C235.29629516601562,103.03221528307586 234.35049438476562,102.69825443159971 233.56918334960938,102.95799490255558 C232.95233154296875,103.10643566359613 232.58224487304688,103.81143669594348 232.00656127929688,103.95987745698403 C230.1149444580078,104.33094078350405 229.3336181640625,103.10643566359613 227.8121337890625,102.88379766768412 C225.92050170898438,102.58693929125184 225.55043029785156,103.58882184568029 224.23452758789062,104.55357877941606 C221.19149780273438,106.77996645375242 219.01205444335938,106.74286397870856 215.187744140625,107.15102206505617 C216.95596313476562,107.70760548201179 219.7522430419922,107.85604624305233 221.68495178222656,108.52396794600463 C223.8232879638672,109.2660868838284 224.7279815673828,110.41638705364858 227.11305236816406,109.89690611173683 C229.21023559570312,109.4887248797404 230.69065856933594,107.59630577209646 232.74676513671875,107.0768016845359 C233.93927001953125,106.74286397870856 234.51495361328125,106.92838406914416 235.74864196777344,106.33468274671213 C236.32435607910156,106.03782437027985 237.51686096191406,104.73909886985166 238.09259033203125,104.6649016349802 C240.18975830078125,104.47935839889578 240.8477325439453,107.22524244557644 243.0682830810547,107.44788044148845 C244.21969604492188,107.59630577209646 244.83651733398438,106.59442321766801 245.82345581054688,106.44600560227627 C247.3038330078125,106.26046236619186 247.55059814453125,107.0768016845359 248.8253173828125,107.33654215549177 C251.128173828125,107.8931487180962 252.3206787109375,107.63340824714032 254.17117309570312,109.11766926843666 C255.11697387695312,109.85978820626042 256.8440856933594,113.27357081024456 257.95440673828125,111.60378969851263 C256.1861572265625,109.89690611173683 254.70578002929688,108.33842470992022 254.66464233398438,106.07494227575626 C258.24224853515625,105.22150048236836 259.88714599609375,109.4887248797404 261.5731201171875,111.45534893747208 C262.7656555175781,112.82829481842055 263.5058288574219,113.83016965763272 265.2740783691406,114.57229631067275 C266.9600830078125,115.27731277345265 268.72833251953125,115.5741788651012 269.87969970703125,116.76157379474898 L272.1413879394531,116.83577874483672 z" id="svg_3"></path></g></g>
<g id="svg_1">
  <path transform="scale(1.35, 1.45) translate(-100,-20)" d="M395.4966009669879,5.000038170212065 C377.7640625360509,5.000038170212065 363.3890676408628,19.10553536419684 363.3890676408628,36.50554670050042 C363.3890676408628,53.90556285038474 395.4966009669879,99.51657017918478 395.4966009669879,99.51657017918478 C395.4966009669879,99.51657017918478 427.60416108893696,53.905498669308145 427.60416108893696,36.50548251942382 C427.60416108893696,19.10553536419684 413.22911260210094,5.000038170212065 395.4966009669879,5.000038170212065 zM395.4966009669879,20.752797248936986 A16.053770012540554,15.752757474198006 0 0 1 411.55038102796243,36.50554670050042 A16.053770012540554,15.752757474198006 0 0 1 395.4966009669879,52.25831701091374 A16.053770012540554,15.752757474198006 0 0 1 379.4428477018373,36.50554670050042 A16.053770012540554,15.752757474198006 0 0 1 395.4966009669879,20.752797248936986 z" fill="red" stroke-width="0" id="svg_2"></path>

</g>
</svg>
